<?xml version="1.0" encoding="utf-8"?>
<!-- Generator: Adobe Illustrator 27.5.0, SVG Export Plug-In . SVG Version: 6.00 Build 0)  -->
<svg version="1.1" xmlns="http://www.w3.org/2000/svg" xmlns:xlink="http://www.w3.org/1999/xlink" x="0px" y="0px"
	 viewBox="0 0 750 500" style="enable-background:new 0 0 750 500;" xml:space="preserve">
<g id="BACKGROUND">
	<radialGradient id="SVGID_1_" cx="375" cy="250" r="318.6887" gradientUnits="userSpaceOnUse">
		<stop  offset="0" style="stop-color:#383838"/>
		<stop  offset="1" style="stop-color:#191919"/>
	</radialGradient>
	<rect style="fill:url(#SVGID_1_);" width="750" height="500"/>
</g>
<g id="OBJECTS">
	<g>
		<defs>
			<rect id="SVGID_00000134233489820721655820000007492238301267577227_" width="750" height="500"/>
		</defs>
		<clipPath id="SVGID_00000003821621480824523760000003718402006421037740_">
			<use xlink:href="#SVGID_00000134233489820721655820000007492238301267577227_"  style="overflow:visible;"/>
		</clipPath>
		<g style="clip-path:url(#SVGID_00000003821621480824523760000003718402006421037740_);">
			<path style="fill:none;stroke:#FFA799;stroke-miterlimit:10;" d="M313.585,394.281c4.088,4.649,9.936,7.306,14.817,11.115
				c9.212,7.188,14.657,18.277,17.61,29.582s3.7,23.048,5.303,34.622c1.204,8.693,3.061,17.691,8.499,24.579
				c5.09,6.448,12.827,10.337,20.749,12.513c14.245,3.911,29.355,2.842,44.011,0.992c11.05-1.395,22.935-3.676,30.447-11.898
				c8.045-8.806,8.78-21.78,10.638-33.562c1.548-9.817,4.161-19.465,7.779-28.721c4.676-11.964,11.01-23.241,15.388-35.317
				c4.378-12.076,6.728-25.432,3.109-37.756c-3.144-10.709-10.499-19.724-14.237-30.241c-8.318-23.403,3.512-50.56,23.176-65.733
				c3.626-2.798,7.851-5.854,8.332-10.409c0.632-5.991-5.728-10.436-11.639-11.597c-5.911-1.162-12.29-0.568-17.685-3.249
				c-3.103-1.542-5.625-4.061-8.676-5.704c-3.051-1.643-7.153-2.221-9.756,0.066c-1.12,0.984-1.803,2.361-2.421,3.717
				c-5.14,11.275-7.692,23.529-11.608,35.286c-3.916,11.757-9.542,23.474-19.226,31.205c-17.419,13.906-43.38,21.815-64.22,29.497
				c-17.99,6.631-42.162,12.274-51.783,30.502C306.907,373.783,306.703,385.105,313.585,394.281z"/>
			<path style="fill:none;stroke:#FFA799;stroke-miterlimit:10;" d="M381.411,349.449c-9.428,3.044-19.289,6.355-26.043,13.604
				c-10.755,11.543-9.53,32.068,2.522,42.25c6.199,5.237,14.309,7.671,22.337,8.866c19.118,2.846,38.549-0.604,57.569-4.045
				c6.895-1.247,14.154-2.664,19.44-7.264c2.946-2.564,5.06-5.954,6.76-9.47c5.458-11.291,6.94-24.574,3.482-36.629
				c-3.769-13.138-14.37-28.845-29.682-25.583C418.825,335.218,399.881,343.487,381.411,349.449z"/>
			<path style="fill:none;stroke:#FFA799;stroke-miterlimit:10;" d="M393.234,434.629c-6.832,2.364-13.519,6.551-16.492,13.141
				c-3.306,7.327-1.331,15.979,2.017,23.286c2.398,5.233,5.639,10.329,10.524,13.375c4.389,2.737,9.69,3.564,14.852,3.897
				c8.192,0.529,16.648-0.088,24.138-3.449c7.49-3.361,13.904-9.802,15.723-17.807c1.418-6.239,0.006-12.823,1.135-19.121
				c2.133-11.895-0.069-19.643-13.797-18.259C418.795,430.955,405.308,430.451,393.234,434.629z"/>
			<path style="fill:none;stroke:#FFA799;stroke-miterlimit:10;" d="M402.106,457.156c-0.573,1.334-0.579,2.9-0.018,4.238
				c0.415,0.989,1.115,1.839,1.509,2.836c0.493,1.248,0.503,2.708,1.308,3.781c0.66,0.879,1.734,1.329,2.765,1.708
				c2.263,0.833,4.771,1.516,7.05,0.729c1.804-0.623,3.177-2.074,4.475-3.473c0.926-0.998,1.851-1.997,2.776-2.995
				c0.529-0.571,1.064-1.149,1.448-1.826c2.672-4.71,0.957-13.478-5.593-12.338C413.402,450.587,404.032,452.669,402.106,457.156z"
				/>
			<path style="fill:none;stroke:#FFA799;stroke-width:3;stroke-miterlimit:10;" d="M265.551-9.808
				c-13.319,7.482-15.691,25.317-16.539,40.57c-0.157,2.816-0.295,5.743,0.787,8.347c3.179,7.648,14.236,8.038,19.845,14.132
				c8.146,8.85,0.803,22.731,0.133,34.743c-0.901,16.184,10.586,29.249,16.572,43.346c5.374,12.656,7.625,34.524-2.816,45.151
				c-5.267,5.361-12.162,9.517-15.283,16.354c-2.551,5.589-2.89,13.188-8.462,15.776c-6.422,2.983-13.438-3.703-20.508-3.314
				c-4.354,0.24-8.033,3.112-11.874,5.178c-3.84,2.066-8.962,3.246-12.284,0.42c-1.67-1.421-2.503-3.566-3.273-5.618
				c-2.744-7.317-5.489-14.635-8.233-21.952c-18.594,4.681-37.801,6.921-56.974,6.646c-2.526-0.036-5.218-0.073-7.362,1.263
				c-4.112,2.563-4.029,8.393-4.789,13.179c-1.482,9.332-8.335,17.614-17.224,20.818c-4.373,1.576-9.352,2.111-12.794,5.234
				c-4.812,4.368-4.666,11.837-7.007,17.899c-4.651,12.046-19.701,19.697-19.52,32.608c0.093,6.647,4.438,12.417,8.899,17.347
				c6.803,7.519,14.361,14.353,22.524,20.368c-2.465,6.109,1.742,13.304,7.602,16.314c5.859,3.011,12.795,2.851,19.359,2.297
				c6.564-0.554,13.305-1.415,19.639,0.393c5.757,1.643,10.664,5.35,15.423,8.981c9.117,6.956,18.234,13.912,27.351,20.867
				c4.103,3.131,8.44,6.587,9.93,11.529c0.645,2.138,0.785,4.594,2.356,6.181c1.142,1.154,2.805,1.586,4.383,1.971
				c10.384,2.535,22.091,4.883,31.161-0.772c4.81-2.999,8.11-7.848,11.267-12.556c10.078-15.029,17.833-35.769,29.603-49.067
				c10.851-12.26,29.583-22.196,44.727-27.727c22.775-8.316,49.496-10.391,66.199-27.966c11.502-12.102,15.284-28.671,18.834-44.446
				c1.826-8.114,4.552-16.33,6.027-24.472c1.38-7.617-0.811-15.724,1.974-23.089c2.346-6.203,6.771-11.358,11.11-16.373
				c6.189-7.152,12.377-14.304,18.565-21.456c2.575-2.975,5.477-6.141,9.362-6.763c2.909-0.466,5.822,0.602,8.575,1.652
				c7.636,2.912,15.272,5.825,22.908,8.737c2.371,0.904,4.964,2.007,6.036,4.307c0.963,2.065,0.403,4.49-0.238,6.677
				c-1.847,6.307-4.234,12.456-7.126,18.357c5.414,7.68,12.929,16.3,22.192,14.729c4.76-0.808,8.604-4.235,13.029-6.167
				c4.425-1.932,10.794-1.608,12.68,2.836c0.806,1.899,0.552,4.069,0.961,6.091c0.949,4.689,5.367,7.969,9.936,9.386
				c4.569,1.417,9.441,1.42,14.164,2.182c12.278,1.98,23.812,9.682,29.127,20.926c5.315,11.244,3.581,25.816-5.185,34.637
				c-4.5,4.528-10.683,7.65-13.527,13.366c-1.218,2.448-1.852,5.396-4.06,7.009c-2.444,1.785-5.793,1.219-8.816,1.089
				c-10.341-0.445-20.169,5.316-27.074,13.026c-6.905,7.71-11.373,17.243-15.743,26.626c6.528,3.351,13.208,6.816,18.137,12.252
				c4.929,5.436,7.81,13.353,5.336,20.261c-0.538,1.502-1.321,2.966-1.367,4.56c-0.081,2.833,2.115,5.128,3.826,7.388
				c19.978,26.401-29.046,65.645-40.841,86.949c-11.033,19.927-14.937,46.869-0.082,64.135"/>
			<path style="fill:none;stroke:#FFA799;stroke-width:3;stroke-miterlimit:10;" d="M551.523-11.921
				c-0.095,12.451,9.175,23.131,18.937,29.831c8.813,6.049,20.683,8.241,19.225,22.136c-0.126,1.204-0.371,2.454,0.025,3.598
				c0.218,0.63,0.618,1.181,1.057,1.682c4.865,5.553,13.986,5.315,19.253,10.488c1.477,1.451,2.571,3.262,4.093,4.666
				c4.783,4.413,12.264,3.705,18.584,2.154c17.63-4.326,34.123-0.774,45.561,14.672c11.845,15.996,8.415,40.813,23.082,54.27
				c7.2,6.606,17.758,8.793,23.656,16.755c7.917,10.689-0.128,20.92,3.609,32.035c2.041,6.069,8.088,9.868,11.224,15.451
				c3.99,7.102,2.308,16.897-3.822,22.262c-4.722,4.133-12.172,6.696-12.851,12.934c-0.181,1.665,0.199,3.393-0.273,5
				c-0.526,1.79-2.008,3.108-3.408,4.342c-3.25,2.863-6.493,5.91-8.394,9.802c-1.901,3.892-2.211,8.842,0.297,12.372
				c1.409,1.983,3.527,3.318,5.422,4.843c7.301,5.872,8.06,14.401,13.881,21.075c7.938,9.102,21.135,10.983,33.143,12.273"/>
			<path style="fill:none;stroke:#FFA799;stroke-width:3;stroke-miterlimit:10;" d="M-23.72,126.293
				c12.93,3.867,26.636,5.12,40.053,3.661c5.599-0.609,11.336-1.761,15.955-4.985c4.618-3.223,7.863-8.96,6.696-14.47
				c-0.535-2.527-1.932-4.832-2.271-7.392c-0.712-5.377,3.279-10.117,6.997-14.066c2.74-2.91,5.656-5.934,9.473-7.119
				c6.52-2.024,13.258,1.871,18.976,5.601c2.941,1.919,6.072,4.073,7.219,7.392c0.726,2.102,0.561,4.46,1.469,6.49
				c2.936,6.566,12.822,4.221,18.93,0.424c9.376-5.828,18.38-12.983,23.514-22.756c5.133-9.774,5.575-22.645-1.331-31.258
				c-4.641-5.787-12.677-10.798-11.395-18.104c0.852-4.856,5.742-8.036,7.331-12.703c3.324-9.762-8.967-19.975-5.338-29.628"/>
			<path style="fill:none;stroke:#FFA799;stroke-width:3;stroke-miterlimit:10;" d="M68.515,439.331
				c-1.367,6.111-2.446,13.362,1.873,17.896c2.656,2.789,6.685,3.713,10.491,4.298c6.634,1.021,13.363,1.422,20.072,1.196
				c7.742-0.261,15.742-1.321,23.049,1.25c4.598,1.618,8.61,4.583,13.132,6.402c8.305,3.342,17.616,2.588,26.532,1.78
				c4.08-0.37,8.294-0.778,11.885-2.751c3.591-1.973,6.415-5.952,5.73-9.992c-0.9-5.307-6.83-7.909-11.94-9.603
				c-11.154-3.698-25.854-5.862-34.126-14.431c-6.162-6.383-8.294-13.772-17.841-16.08
				C100.755,415.281,72.49,421.556,68.515,439.331z"/>
			<path style="fill:none;stroke:#FFA799;stroke-miterlimit:10;" d="M-10.587,108.644c3.422,7.462,14.234,9.009,21.293,4.818
				s10.891-12.229,13.101-20.135c1.344-4.809,2.265-9.803,4.586-14.224c8.036-15.301,30.071-17.767,45.768-10.535
				c5.468,2.519,10.96,6.024,16.957,5.493c6.743-0.598,12.399-7.116,12.041-13.876c-0.672-12.655-18.493-20.432-16.721-32.98
				c0.476-3.369,2.382-6.34,3.555-9.534c4.144-11.278-1.135-23.62-6.315-34.461"/>
			<path style="fill:none;stroke:#FFA799;stroke-miterlimit:10;" d="M-8.901,84.867c7.624,2.366,14.83-5.015,17.942-12.366
				c3.111-7.351,4.705-15.929,10.854-21.02c10.616-8.788,28.322-2.054,39.295-10.393c5.935-4.51,8.297-12.549,7.823-19.988
				C66.54,13.661,63.656,6.615,60.81-0.274c-1.858-4.497-5.301-9.884-10.046-8.808"/>
			<path style="fill:none;stroke:#FFA799;stroke-miterlimit:10;" d="M-10.914,46.973c0.725-7.669,8.973-12.231,16.489-13.922
				c7.516-1.69,15.813-2.1,21.75-7.009c5.013-4.144,7.332-10.907,7.299-17.411c-0.034-6.504-2.161-12.82-4.762-18.781"/>
			<path style="fill:none;stroke:#FFA799;stroke-miterlimit:10;" d="M137.408-6.493c4.903,3.14,5.654,10.092,4.43,15.784
				c-1.224,5.692-3.891,11.139-3.937,16.962c-0.063,7.867,4.605,14.864,7.419,22.21c6.823,17.814,2.199,39.04-10.142,53.585
				c-12.341,14.546-31.567,22.477-50.641,22.697c-6.704,0.077-13.819-0.642-19.732,2.517c-5.355,2.861-8.656,8.35-12.453,13.087
				c-16.546,20.643-47.318,28.414-71.681,18.102"/>
			<path style="fill:none;stroke:#FFA799;stroke-miterlimit:10;" d="M159.847-9.171c5.581,13.393,0.212,28.691,1.462,43.146
				c1.469,16.99,12.048,32.173,13.537,49.161c1.347,15.369-4.801,31.536,0.782,45.918c6.882,17.728,28.195,24.768,40.425,39.331
				c4.601,5.479,8.437,12.442,15.262,14.588c8.868,2.789,17.945-4.208,22.897-12.076c4.041-6.42,6.681-14.171,5.124-21.595
				c-2.182-10.407-11.809-17.565-16.083-27.301c-4.396-10.014-2.683-21.54-0.62-32.28c0.657-3.42,1.325-7.054,0.073-10.304
				c-1.466-3.806-5.179-6.161-8.131-8.974c-10.543-10.047-11.576-26.66-8.555-40.907c3.02-14.247,9.331-27.755,11.044-42.218"/>
			<path style="fill:none;stroke:#FFA799;stroke-miterlimit:10;" d="M184.813-6.2c2.949,13.524,5.91,27.149,6.225,40.988
				c0.165,7.272-0.401,14.579,0.452,21.803c0.852,7.223,3.31,14.562,8.553,19.604c0.948,0.912,2.059,1.775,3.367,1.913
				c2.945,0.313,4.892-2.98,5.67-5.838c2.011-7.386,1.598-15.194,0.978-22.824c-0.901-11.09-2.207-22.265-0.804-33.302
				c1.403-11.038,5.874-22.162,14.555-29.122"/>
			<path style="fill:none;stroke:#FFA799;stroke-miterlimit:10;" d="M206.678,128.731c2.755,2.007,6.102,2.999,9.129,4.566
				c5.996,3.104,10.711,8.599,12.869,14.997c0.713,2.114,1.367,4.583,3.375,5.555c2.966,1.435,6.406-1.946,6.404-5.241
				c-0.002-3.295-2.12-6.156-4.042-8.832c-5.896-8.208-10.224-24.984-19.241-29.989
				C200.957,101.897,196.157,121.065,206.678,128.731z"/>
			<path style="fill:none;stroke:#FFA799;stroke-miterlimit:10;" d="M-18.225,182.616c22.866,5.664,47.123-2.832,66.873-15.673
				c10.18-6.618,19.744-14.475,31.066-18.86c7.833-3.034,16.238-4.29,24.604-5.047c9.873-0.893,19.805-1.118,29.708-0.674
				c5.616,0.252,11.452,0.788,16.275,3.677s8.286,8.798,6.622,14.167c-2.337,7.546-11.961,9.168-19.2,12.33
				c-6.741,2.945-12.4,8.297-15.717,14.862c-3.221,6.374-4.334,13.865-8.786,19.45c-7.282,9.135-21.421,10.64-28.371,20.029
				c-3.674,4.963-4.707,11.322-6.598,17.201c-5.592,17.378-19.434,31.402-35.773,39.545c-16.338,8.144-34.987,10.814-53.233,10.226"
				/>
			<path style="fill:none;stroke:#FFA799;stroke-miterlimit:10;" d="M-12.433,203.007c15.874,3.708,32.677-0.419,47.394-7.428
				c14.717-7.01,27.908-16.79,41.828-25.274c4.51-2.749,9.313-5.431,14.584-5.766c5.271-0.336,11.108,2.382,12.676,7.426
				c1.508,4.85-1.349,10.106-5.224,13.39c-3.874,3.284-8.69,5.22-12.951,7.985c-17.54,11.381-22.981,34.366-36.265,50.511
				c-15.747,19.137-42.048,27.307-66.79,25.883"/>
			<path style="fill:none;stroke:#FFA799;stroke-miterlimit:10;" d="M-17.957,222.505c9.228,3.021,19.306,1.623,28.732-0.707
				c9.426-2.33,18.72-5.576,28.409-6.211c2.704,3.098,2.073,8.078-0.314,11.426c-2.387,3.348-6.106,5.446-9.703,7.438
				c-14.114,7.815-29.375,15.883-45.426,14.264"/>
			<path style="fill:none;stroke:#FFA799;stroke-miterlimit:10;" d="M208.579,228.71c-10.461-2.739-18.223-12.027-28.652-14.882
				c-10.293-2.818-21.405,1.234-29.968,7.602c-8.563,6.368-15.232,14.885-22.603,22.601c-5.958,6.236-12.548,12.165-16.337,19.913
				c-3.789,7.748-4.006,18.064,2.132,24.123c5.061,4.996,13.695,6.585,16.323,13.193c1.064,2.675,0.898,5.774,2.289,8.294
				c2.67,4.838,9.317,5.196,14.838,5.441c27.675,1.229,54.469,15.695,70.68,38.159c3.266,4.526,6.934,9.854,12.502,10.252
				c4.169,0.298,8-2.441,10.609-5.706c7.098-8.883,7.488-21.179,10.874-32.033c3.111-9.972,8.993-19.064,16.814-25.988
				c8.615-7.628,20.208-13.673,23.055-24.822c3.86-15.113-13.671-35.171-25.473-43.464
				C247.835,218.864,227.409,233.641,208.579,228.71z"/>
			<path style="fill:none;stroke:#FFA799;stroke-miterlimit:10;" d="M143.627,275.856c1.267,2.296,3.371,4.001,5.496,5.538
				c5.441,3.937,11.379,7.188,17.628,9.65c5.598,2.206,11.433,3.778,17.003,6.056c6.636,2.714,12.862,6.428,18.404,10.975
				c3.779,3.101,7.337,6.649,11.839,8.556c4.502,1.907,10.379,1.695,13.545-2.03c2.226-2.619,2.618-6.269,3.316-9.635
				c1.486-7.16,4.803-13.933,9.549-19.498c11.988-14.057,14.716-22.985-4.841-28.501c-11.324-3.194-20.991-9.071-31.904-13.071
				c-11.449-4.196-24.189-3.678-35.738,0.167C157.238,247.621,135.849,261.762,143.627,275.856z"/>
			<path style="fill:none;stroke:#FFA799;stroke-miterlimit:10;" d="M192.889,261.197c-1.806-0.024-3.646,0.077-5.339,0.706
				c-3.47,1.289-5.922,4.926-5.815,8.626c0.038,1.323,0.457,2.756,1.562,3.484c1.043,0.687,2.393,0.572,3.642,0.575
				c6.187,0.012,11.795,3.464,17.802,4.947c2.443,0.604,5.057,0.872,7.45,0.093c2.393-0.779,4.504-2.798,4.796-5.298
				C218.181,264.087,199.371,261.284,192.889,261.197z"/>
			<path style="fill:none;stroke:#FFA799;stroke-miterlimit:10;" d="M-9.405,317.396c19.342-6.137,39.928-12.327,59.595-7.329
				c12.546,3.189,23.669,10.803,32.534,20.237c6.724,7.155,12.49,15.561,20.997,20.463c16.755,9.655,39.009,2.998,56.351,11.554
				c13.608,6.714,21.337,21.331,33.182,30.814c14.999,12.008,35.096,14.789,53.987,18.292c18.891,3.503,39.078,9.091,50.763,24.343
				c5.771,7.531,8.864,16.719,11.861,25.722c4.869,14.626,9.737,29.252,14.606,43.877"/>
			<path style="fill:none;stroke:#FFA799;stroke-miterlimit:10;" d="M-13.45,339.131c9.544-3.434,19.188-6.893,29.259-8.097
				c10.071-1.204,20.755,0.031,29.345,5.424c13.56,8.512,19.82,25.777,33.604,33.921c18.858,11.141,44.252,1.243,64.181,10.331
				c14.365,6.551,22.853,21.549,35.577,30.895c21.505,15.795,51.979,13.513,74.599,27.664c13.1,8.195,22.494,21.359,28.74,35.493
				c6.246,14.134,9.618,29.338,12.953,44.426"/>
			<path style="fill:none;stroke:#FFA799;stroke-miterlimit:10;" d="M48.909,444.314c-0.851,7.67,0.07,15.783,4.13,22.346
				c6.293,10.173,18.839,14.747,30.747,15.886c11.907,1.138,23.963-0.429,35.852,0.886c12.986,1.437,25.369,6.266,38.269,8.335
				c12.9,2.069,27.408,0.852,36.97-8.051c3.498-3.257,6.12-7.361,8.162-11.681c3.436-7.271,5.206-16.154,1.281-23.174
				c-2.049-3.665-5.439-6.405-9.038-8.569c-10.727-6.449-23.247-8.32-34.996-12.082c-12.639-4.048-20.829-10.801-30.509-19.517
				c-17.528-15.784-39.438-16.119-59.157-1.764C58.63,415.657,50.545,429.573,48.909,444.314z"/>
			<path style="fill:none;stroke:#FFA799;stroke-miterlimit:10;" d="M-12.278,359.623c11.431-7.619,27.545-7.409,38.774,0.506
				c11.229,7.915,16.843,23.02,13.51,36.348c-1.922,7.684-6.421,14.441-9.392,21.783c-6.521,16.118-5.345,34.634,0.482,51.015
				c5.827,16.381,15.993,30.883,27.215,44.162"/>
			<path style="fill:none;stroke:#FFA799;stroke-miterlimit:10;" d="M-10.07,382.571c3.468-5.23,11.869-5.23,16.583-1.086
				c4.713,4.143,6.173,11.002,5.569,17.249c-0.604,6.246-2.949,12.168-4.694,18.197c-9.838,33.986,0.87,73.076,26.655,97.303"/>
			<path style="fill:none;stroke:#FFA799;stroke-miterlimit:10;" d="M208.839,516.421c5.311,0.029,9.457-4.577,12.04-9.217
				c2.208-3.966,3.845-8.25,4.843-12.678c1.293-5.732,1.532-11.728,3.588-17.232c2.056-5.504,6.604-10.674,12.467-11.056
				c4.608-0.301,8.989,2.473,11.801,6.135c2.812,3.663,4.328,8.132,5.743,12.528c4.213,13.088,7.951,26.328,11.202,39.687"/>
			<g>
				<path style="fill:none;stroke:#FFA799;stroke-miterlimit:10;" d="M482.451-17.239c9.499,11.404,14.086,26.304,15.115,41.11
					c1.029,14.806-1.27,29.642-4.253,44.181c-1.633,7.956-3.56,16.076-8.123,22.794c-7.343,10.812-20.149,16.216-30.984,23.525
					c-29.939,20.195-45.504,56.069-52.98,91.399c-1.689,7.98-3.093,16.169-6.868,23.399c-4.029,7.716-10.526,13.865-17.448,19.142
					c-8.273,6.306-17.527,11.665-27.719,13.747c-10.192,2.081-21.451,0.548-29.699-5.79c-5.557-4.27-9.417-10.39-12.382-16.74
					c-4.944-10.587-7.719-22.341-6.813-33.99c1.96-25.192,20.665-49.18,13.88-73.52c-4.615-16.551-20.525-29.606-20.214-46.786
					c0.162-8.928,4.866-17.71,3.008-26.444c-2.049-9.629-11.31-15.89-15.899-24.599c-3.316-6.292-4.046-13.58-4.717-20.66
					c-0.767-8.1,0.038-18.697,7.846-20.987c10.766-3.159,16.637-12.347,26.335-17.99c9.054-5.269,18.185-10.573,28.105-13.941
					c11.692-3.969,24.156-5.131,36.502-5.329C410.922-45.293,459.546-44.736,482.451-17.239z"/>
				<path style="fill:none;stroke:#FFA799;stroke-miterlimit:10;" d="M307.22,4.336c8.233-2.614,12.861-9.565,20.346-13.936
					c6.99-4.081,14.048-8.18,21.712-10.817c9.017-3.1,18.631-4.038,28.169-4.332c17.062-0.527,37.339-0.667,54.675,3.929
					c11.805,3.111,22.21,8.398,29.307,17.126c7.578,9.32,10.876,21.794,11.368,34.334c0.054,1.384,0.083,2.769,0.077,4.155
					c-0.033,10.832-1.953,21.719-4.298,32.396c-1.451,6.598-3.105,13.324-6.779,18.923c-5.651,8.613-15.506,13.045-23.761,18.983
					c-12.34,8.877-21.487,21.018-28.077,34.313c-5.91,11.925-9.854,25.051-12.533,38.069c-1.293,6.282-2.394,12.713-5.265,18.436
					c-3.113,6.205-8.1,11.255-13.487,15.6c-5.966,4.817-12.647,8.972-20.041,11.008c-0.591,0.163-1.187,0.312-1.787,0.446
					c-8.101,1.81-17.124,0.706-23.792-4.21c-4.505-3.316-7.69-8.122-10.082-13.207c-1.854-3.934-3.25-8.098-4.191-12.345
					c-1.111-5-1.6-10.15-1.285-15.292c0.848-13.491,7.173-26.68,9.835-39.849c1.364-6.663,1.774-13.319,0.013-20.008
					c-3.547-13.495-15.517-24.378-15.222-38.314c0.156-7.281,3.749-14.44,2.459-21.543c-1.416-7.86-8.19-13.167-11.395-20.269
					c-1.365-3.04-2.04-6.332-2.415-9.69c-0.259-2.326-0.375-4.682-0.475-7.008C300.012,14.734,300.938,6.331,307.22,4.336z"/>
				<path style="fill:none;stroke:#FFA799;stroke-miterlimit:10;" d="M330.242,16.13c5.702-2.045,9.086-6.784,14.358-9.882
					c4.925-2.894,9.911-5.787,15.318-7.693c6.342-2.232,13.107-2.954,19.836-3.335c12.703-0.719,27.226-1.052,39.542,2.134
					c8.629,2.196,16.102,6.08,21.112,12.497c5.653,7.241,7.677,17.281,7.621,27.558c-0.006,1.095-0.024,2.193-0.071,3.293
					c-0.343,8.527-2.074,17.171-4.118,25.626c-1.27,5.241-2.654,10.566-5.435,15.052c-3.97,6.404-10.861,9.886-16.537,14.44
					c-8.748,7.021-15.174,16.103-19.62,25.507c-4.135,8.747-6.758,18.351-8.619,27.857c-0.898,4.584-1.692,9.259-3.662,13.473
					c-2.196,4.697-5.674,8.644-9.526,12.058c-4.271,3.795-9.132,7.077-14.611,8.784c-0.438,0.136-0.88,0.262-1.326,0.376
					c-6.011,1.538-12.797,0.865-17.886-2.63c-3.453-2.363-5.963-5.855-7.783-9.673c-1.444-3.019-2.425-6.251-3.098-9.526
					c-0.791-3.829-1.181-7.785-1.04-11.757c0.397-10.301,4.379-20.528,6.013-30.783c0.817-5.127,1.034-10.255-0.195-15.41
					c-2.479-10.439-10.508-19.149-10.229-29.843c0.149-5.634,2.631-11.171,1.91-16.642c-0.784-6.091-5.083-10.439-6.89-15.938
					c-0.776-2.36-1.064-4.881-1.139-7.431c-0.051-1.767,0.002-3.55,0.075-5.305C324.437,24.038,325.48,17.838,330.242,16.13z"/>
				<path style="fill:none;stroke:#FFA799;stroke-miterlimit:10;" d="M353.263,27.924c3.181-1.419,5.31-4.002,8.37-5.827
					c2.86-1.706,5.775-3.394,8.925-4.57c3.668-1.363,7.585-1.896,11.504-2.338c8.353-0.942,17.105-1.408,24.409,0.339
					c5.448,1.303,9.978,3.778,12.916,7.868c3.716,5.174,4.504,12.764,3.873,20.782c-0.063,0.806-0.13,1.618-0.219,2.431
					c-0.652,6.222-2.196,12.623-3.938,18.857c-1.088,3.883-2.215,7.799-4.091,11.182c-2.316,4.175-6.205,6.755-9.314,9.898
					c-5.147,5.204-8.844,11.2-11.162,16.701c-2.351,5.578-3.662,11.651-4.706,17.646c-0.503,2.886-0.983,5.81-2.059,8.51
					c-1.272,3.193-3.249,6.034-5.565,8.517c-2.576,2.773-5.617,5.182-9.181,6.56c-0.285,0.11-0.573,0.212-0.865,0.307
					c-3.92,1.266-8.47,1.023-11.979-1.049c-2.401-1.409-4.236-3.588-5.483-6.141c-1.033-2.103-1.6-4.403-2.005-6.708
					c-0.472-2.658-0.768-5.42-0.796-8.223c-0.07-7.11,1.611-14.37,2.19-21.717c0.283-3.587,0.293-7.191-0.404-10.812
					c-1.411-7.383-5.5-13.92-5.237-21.371c0.143-3.987,1.505-7.901,1.361-11.741c-0.162-4.322-1.965-7.718-2.386-11.607
					c-0.182-1.682-0.088-3.429,0.137-5.173c0.157-1.209,0.379-2.417,0.625-3.602C348.862,33.343,350.02,29.371,353.263,27.924z"/>
				<path style="fill:none;stroke:#FFA799;stroke-miterlimit:10;" d="M369.651,99.729c0.137,1.333,0.29,2.702,0.912,3.889
					c1.711,3.264,6.55,3.817,9.66,1.839c3.109-1.978,4.696-5.685,5.355-9.311c0.658-3.626,0.569-7.358,1.248-10.981
					c0.427-2.284,2.469-7.254,4.795-13.25s4.938-13.016,6.505-19.399c1.567-6.383,2.091-12.129,0.241-15.577
					c-0.925-1.724-2.443-2.873-4.72-3.239c-2.277-0.366-5.314,0.05-9.277,1.456c-3.207,1.138-5.875,2.685-8.084,4.56
					c-2.209,1.875-3.959,4.077-5.332,6.528c-2.745,4.901-3.977,10.792-4.343,17.03c-0.366,6.238,0.135,12.824,0.857,19.114
					C368.189,88.679,369.132,94.674,369.651,99.729z"/>
			</g>
			<path style="fill:none;stroke:#FFA799;stroke-miterlimit:10;" d="M526.489-8.779c0.208,11.22,8.327,20.656,16.845,27.963
				c8.517,7.307,18.176,13.913,23.51,23.786c4.142,7.668,5.333,16.769,10.162,24.024c7.331,11.012,21.26,15.348,34.265,17.769
				c13.006,2.421,26.846,3.957,37.495,11.807c18.287,13.481,21.498,41.354,40.274,54.147c6.121,4.171,13.855,6.721,17.678,13.065
				c3.993,6.626,2.363,15.268,5.206,22.463c0.978,2.475,2.474,4.74,3.246,7.287c2.978,9.825-5.269,19.014-10.917,27.587
				c-15.202,23.072-12.161,56.501,6.955,76.451c7.761,8.099,17.553,13.906,27.212,19.609c10.003,5.906,20.007,11.813,30.01,17.719"
				/>
			<path style="fill:none;stroke:#FFA799;stroke-miterlimit:10;" d="M577.479-11.428c19.732,9.997,26.419,36.218,45.459,47.478
				c17.721,10.48,42.7,5.854,57.687,19.97c6.113,5.758,9.465,13.765,13.829,20.941c5.11,8.401,11.778,15.851,19.563,21.857
				c7.977,6.154,17.744,10.915,27.774,9.963c10.03-0.951,19.765-9.249,19.501-19.32"/>
			<path style="fill:none;stroke:#FFA799;stroke-miterlimit:10;" d="M611.873-4.499c3.346,10.362,12.656,17.796,22.589,22.256
				c9.934,4.459,20.749,6.533,31.074,9.994c7.415,2.485,14.587,5.693,21.383,9.563c5.036,2.868,9.925,6.15,13.759,10.495
				c7.255,8.222,10.714,20.134,20.268,25.515c8.024,4.519,18.599,2.818,25.971-2.701c7.371-5.52,11.824-14.247,13.895-23.22"/>
			<path style="fill:none;stroke:#FFA799;stroke-miterlimit:10;" d="M648.27-3.802c10.83,14.412,32.689,13.731,47.982,23.277
				c6.868,4.287,12.252,10.569,18.764,15.38c6.511,4.811,15.087,8.144,22.668,5.302c5.079-1.904,8.799-6.224,12.289-10.377
				c3.147-3.744,6.294-7.489,9.441-11.233c1.93-2.297,3.925-4.721,4.551-7.655c0.627-2.934-0.63-6.506-3.482-7.437"/>
			<path style="fill:none;stroke:#FFA799;stroke-miterlimit:10;" d="M698.499-3.488c5.208,4.479,10.916,8.375,16.984,11.593
				c3.541,1.878,7.479,3.568,11.437,2.935c4.192-0.67,7.617-3.903,9.611-7.651c1.993-3.748,2.783-7.999,3.547-12.175"/>
			<g>
				<path style="fill:none;stroke:#FFA799;stroke-miterlimit:10;" d="M523.352,462.043c7.641-17.998,21.954-32.618,32.453-48.922
					c9.353-14.524,13.976-31.056,13.752-48.311c-0.206-15.853-7.354-33.932,2.13-48.408c12.873-19.649,46.331-23.643,67.497-22.515
					c25.633,1.366,51.046,10.281,72.439,24.362c24.508,16.131,42.687,39.702,54.84,66.199c12.925,28.18,23.321,62.742,20.843,93.957
					c-2.136,26.901-15.833,52.171-39.328,66.127c-32.351,19.216-75.942,18.562-111.753,11.521
					c-29.778-5.855-59.741-17.325-86.466-31.699c-12.896-6.936-24.972-17.299-29.102-31.348
					C517.484,482.21,519.145,471.952,523.352,462.043z"/>
				<path style="fill:none;stroke:#FFA799;stroke-miterlimit:10;" d="M646.337,327.478c20.39,0.382,41.168,5.293,58.755,15.824
					c20.462,12.252,34.301,30.93,42.953,52.105c9.108,22.291,16.08,49.491,13.102,74.034c-2.595,21.389-14.047,41.286-32,52.192
					c-24.464,14.861-56.802,16.045-84.517,11.468c-0.986-0.164-1.966-0.334-2.939-0.512c-23.514-4.29-47.165-13.579-67.867-25.3
					c-9.861-5.583-19.073-13.705-22.233-24.64c-2.425-8.385-1.186-16.373,1.999-24.095c5.788-14.036,16.708-25.525,24.895-38.193
					c7.364-11.385,11.303-24.198,11.67-37.505c0.332-12.223-4.49-26.077,3.166-37.213
					C603.816,330.472,629.761,327.167,646.337,327.478z"/>
				<path style="fill:none;stroke:#FFA799;stroke-miterlimit:10;" d="M653.49,361.067c15.16-0.62,31.311,0.288,45.071,7.285
					c16.439,8.36,25.924,22.136,31.066,38.011c5.305,16.379,8.815,36.249,5.362,54.11c-3.071,15.886-12.256,30.411-24.672,38.256
					c-17.689,11.177-40.65,13.506-61.007,10.71c-0.722-0.1-1.44-0.207-2.153-0.32c-17.251-2.725-34.589-9.821-49.268-18.901
					c-6.827-4.223-13.175-10.111-15.365-17.932c-1.677-5.974-0.861-11.691,1.304-17.225c3.934-10.074,11.462-18.43,17.337-27.465
					c5.374-8.247,8.63-17.339,9.587-26.699c0.87-8.593-1.656-18.244,4.203-26.019C623.031,364.16,641.514,361.556,653.49,361.067z"
					/>
				<path style="fill:none;stroke:#FFA799;stroke-miterlimit:10;" d="M660.643,394.656c9.952-1.674,21.494-4.762,31.386-1.253
					c12.461,4.419,17.59,13.29,19.179,23.917c1.558,10.414,1.487,23.016-2.378,34.187c-3.597,10.393-10.451,19.567-17.345,24.321
					c-10.906,7.521-24.499,10.967-37.497,9.953c-0.458-0.037-0.913-0.08-1.367-0.128c-10.988-1.16-22.016-6.026-30.669-12.503
					c-3.798-2.843-7.277-6.517-8.497-11.223c-0.929-3.562-0.535-7.009,0.608-10.356c2.08-6.112,6.216-11.336,9.779-16.736
					c3.385-5.108,5.957-10.481,7.505-15.893c1.408-4.964,1.204-10.396,5.239-14.824
					C642.281,397.867,653.282,395.895,660.643,394.656z"/>
				<path style="fill:none;stroke:#FFA799;stroke-miterlimit:10;" d="M646.521,442.073c-2.86,4.035-3.067,9.779-0.504,14.009
					c2.563,4.23,7.75,6.707,12.651,6.04c5.64-0.768,10.036-5.099,13.987-9.196c4.564-4.732,35.804-33.766,12.844-34.472
					c-5.986-0.184-13.034,6.792-17.702,9.792C661.205,432.481,651.151,435.542,646.521,442.073z"/>
			</g>
			<path style="fill:none;stroke:#FFA799;stroke-miterlimit:10;" d="M514.158,91.977c-3.162,3.928-7.926,6.135-12.018,9.081
				c-4.092,2.946-7.846,7.442-7.245,12.449c0.569,4.741,4.836,8.157,9.134,10.236c4.298,2.079,9.069,3.449,12.62,6.641
				c3.806,3.422,5.736,8.813,4.967,13.873c-0.432,2.844-1.613,5.93-0.198,8.435c0.802,1.42,2.3,2.309,3.823,2.889
				c5.328,2.028,11.256,0.975,16.956,1.049c5.701,0.074,12.224,1.984,14.405,7.251c1.201,2.901,0.81,6.265,1.973,9.181
				c2.684,6.728,11.493,7.76,18.592,9.198c25.176,5.098,44.675,30.221,43.369,55.874c-0.422,8.298-2.479,17.614,2.629,24.167
				c3.764,4.83,10.248,6.432,16.231,7.731c8.393,1.823,18.222,3.306,24.66-2.38c3.671-3.243,5.328-8.138,6.835-12.799
				c4.261-13.18,8.523-26.361,12.784-39.541c1.237-3.826,2.478-7.67,3.107-11.641c0.996-6.289,0.421-12.777-1.278-18.914
				c-1.608-5.805-4.244-11.369-8.066-16.025c-6.416-7.814-15.777-12.678-22.658-20.086c-11.156-12.009-15.339-30.147-28.921-39.323
				c-10.251-6.926-22.995-6.902-34.601-9.832c-12.528-3.163-22.16-9.954-29.57-20.501c-7.929-11.285-15.684-36.821-33.777-23.007
				C516.389,64.778,522.633,81.449,514.158,91.977z"/>
			<path style="fill:none;stroke:#FFA799;stroke-miterlimit:10;" d="M549.173,90.053c-2.685-1.109-6.024-1.229-8.275,0.608
				c-2.967,2.421-2.94,7.126-5.557,9.922c-2.834,3.028-8.562,3.743-9.129,7.852c-0.313,2.266,1.324,4.351,3.149,5.732
				c1.825,1.381,3.963,2.407,5.427,4.165c2.141,2.571,2.426,6.181,2.382,9.527c-0.02,1.491-0.082,3.012,0.339,4.443
				c1.1,3.742,5.143,5.809,8.967,6.578c3.823,0.769,7.857,0.697,11.462,2.186c9.811,4.052,12.284,17.45,21.234,23.157
				c5.87,3.743,13.473,3.445,20.228,1.764c2.674-0.666,5.331-1.541,7.653-3.024c4.326-2.761,7.124-7.392,9.044-12.151
				c2.007-4.973,3.213-10.586,1.53-15.677c-1.776-5.374-6.5-9.293-11.562-11.824c-6.764-3.382-14.316-4.857-21.621-6.595
				c-4.411-1.05-9.608-1.499-13.664-3.671C561.193,107.908,559.386,94.451,549.173,90.053z"/>
			<path style="fill:none;stroke:#FFA799;stroke-miterlimit:10;" d="M632.062,164.57c-4.23,0.402-8.701,2.123-10.769,5.835
				c-1.139,2.043-1.418,4.47-1.262,6.804c0.927,13.9,15.559,23.334,18.485,36.954c1.065,4.955,0.483,10.091,0.211,15.152
				c-0.272,5.061-0.183,10.348,2.069,14.889c2.252,4.541,7.232,8.088,12.215,7.164c5.732-1.062,8.975-7.151,10.602-12.749
				c4.201-14.45,3.129-29.734,0.74-44.399c-1.572-9.651-2.897-17.359-11.43-22.967C646.595,167.095,639.846,163.831,632.062,164.57z
				"/>
			<path style="fill:none;stroke:#FFA799;stroke-miterlimit:10;" d="M583.42,142.661c0.966,1.64,0.93,3.74,1.971,5.333
				c1.274,1.949,3.822,2.628,6.15,2.69c10.388,0.279,15.722-12.053,7.028-18.536c-4.355-3.248-21.024-5.535-22.884,0.962
				C574.232,138.19,581.398,139.229,583.42,142.661z"/>
			<path style="fill:none;stroke:#FFA799;stroke-miterlimit:10;" d="M315.042,422.163c-5.827-5.957-13.4-10.081-18.777-16.447
				c-13.864-16.416-8.184-42.864,6.539-58.515c14.723-15.65,35.877-23.189,56.153-30.3c20.277-7.111,41.395-14.897,55.796-30.844
				c18.085-20.027,21.949-48.599,28.419-74.796c1.538-6.226,3.391-12.645,7.653-17.437c4.262-4.792,11.621-7.431,17.283-4.419
				c5.481,2.916,7.416,9.64,10.852,14.811c7.605,11.445,22.682,15.115,36.402,15.873c13.72,0.759,28.038-0.354,40.638,5.127
				c3.452,1.502,6.977,3.831,7.947,7.469c1.407,5.28-3.098,10.13-7.194,13.746c-14.525,12.823-29.051,25.647-43.576,38.47
				c-4.811,4.247-9.71,8.601-12.89,14.174c-6.355,11.135-4.219,26.44,4.941,35.41c2.756,2.698,6.025,4.834,8.741,7.572
				c9.844,9.922,10.609,26.037,6.35,39.349c-4.258,13.312-12.641,24.835-19.44,37.046c-14.119,25.36-21.551,54.404-21.348,83.428
				c0.02,2.876,0.07,5.926-1.402,8.397c-1.461,2.453-4.149,3.866-6.738,5.071c-29.39,13.679-63.806,15.666-94.799,6.443
				c-10.328-3.074-26.963-7.561-34.121-16.366c-7.983-9.819-8.589-27.081-10.506-39.033
				C329.454,450.741,326.588,433.966,315.042,422.163z"/>
			<path style="fill:none;stroke:#FFA799;stroke-miterlimit:10;" d="M403.649,370.065c-5.817,1.66-12.08,2.813-16.672,6.751
				c-4.592,3.938-6.381,11.945-1.763,15.852c3.123,2.642,7.739,2.365,11.736,1.497c3.997-0.868,8.133-2.183,12.088-1.14
				c2.083,0.549,3.946,1.721,5.975,2.444c7,2.494,14.679-0.64,21.195-4.213c3.372-1.849,6.737-3.887,9.222-6.822
				c2.485-2.935,3.987-6.942,3.078-10.679c-1.719-7.067-12.628-12.274-19.331-12.865
				C420.717,360.144,411.747,367.754,403.649,370.065z"/>
		</g>
	</g>
</g>
</svg>
