<?xml version="1.0" encoding="UTF-8"?>
<svg id="Layer_1" data-name="Layer 1" xmlns="http://www.w3.org/2000/svg" xmlns:xlink="http://www.w3.org/1999/xlink" viewBox="0 0 812.32 606.41">
  <defs>
    <clipPath id="clippath">
      <rect x="24.15" y="45.33" width="750" height="500" style="fill: none;"/>
    </clipPath>
  </defs>
  <g id="OBJECTS">
    <g style="clip-path: url(#clippath);">
      <g>
        <path d="M337.73,439.61c4.09,4.65,9.94,7.31,14.82,11.11,9.21,7.19,14.66,18.28,17.61,29.58s3.7,23.05,5.3,34.62c1.2,8.69,3.06,17.69,8.5,24.58,5.09,6.45,12.83,10.34,20.75,12.51,14.24,3.91,29.36,2.84,44.01.99,11.05-1.39,22.93-3.68,30.45-11.9,8.05-8.81,8.78-21.78,10.64-33.56,1.55-9.82,4.16-19.46,7.78-28.72,4.68-11.96,11.01-23.24,15.39-35.32,4.38-12.08,6.73-25.43,3.11-37.76-3.14-10.71-10.5-19.72-14.24-30.24-8.32-23.4,3.51-50.56,23.18-65.73,3.63-2.8,7.85-5.85,8.33-10.41.63-5.99-5.73-10.44-11.64-11.6-5.91-1.16-12.29-.57-17.68-3.25-3.1-1.54-5.62-4.06-8.68-5.7-3.05-1.64-7.15-2.22-9.76.07-1.12.98-1.8,2.36-2.42,3.72-5.14,11.27-7.69,23.53-11.61,35.29-3.92,11.76-9.54,23.47-19.23,31.2-17.42,13.91-43.38,21.82-64.22,29.5-17.99,6.63-42.16,12.27-51.78,30.5-5.28,10.01-5.49,21.34,1.39,30.51Z" style="fill: none; stroke: #ffa799; stroke-miterlimit: 10;"/>
        <path d="M405.56,394.78c-9.43,3.04-19.29,6.36-26.04,13.6-10.76,11.54-9.53,32.07,2.52,42.25,6.2,5.24,14.31,7.67,22.34,8.87,19.12,2.85,38.55-.6,57.57-4.05,6.89-1.25,14.15-2.66,19.44-7.26,2.95-2.56,5.06-5.95,6.76-9.47,5.46-11.29,6.94-24.57,3.48-36.63-3.77-13.14-14.37-28.85-29.68-25.58-18.97,4.04-37.92,12.31-56.39,18.27Z" style="fill: none; stroke: #ffa799; stroke-miterlimit: 10;"/>
        <path d="M417.38,479.96c-6.83,2.36-13.52,6.55-16.49,13.14-3.31,7.33-1.33,15.98,2.02,23.29,2.4,5.23,5.64,10.33,10.52,13.38,4.39,2.74,9.69,3.56,14.85,3.9,8.19.53,16.65-.09,24.14-3.45s13.9-9.8,15.72-17.81c1.42-6.24,0-12.82,1.14-19.12,2.13-11.89-.07-19.64-13.8-18.26-12.54,1.26-26.03.76-38.1,4.94Z" style="fill: none; stroke: #ffa799; stroke-miterlimit: 10;"/>
        <path d="M426.26,502.49c-.57,1.33-.58,2.9-.02,4.24.42.99,1.11,1.84,1.51,2.84.49,1.25.5,2.71,1.31,3.78.66.88,1.73,1.33,2.77,1.71,2.26.83,4.77,1.52,7.05.73,1.8-.62,3.18-2.07,4.48-3.47.93-1,1.85-2,2.78-2.99.53-.57,1.06-1.15,1.45-1.83,2.67-4.71.96-13.48-5.59-12.34-4.42.77-13.79,2.85-15.72,7.34Z" style="fill: none; stroke: #ffa799; stroke-miterlimit: 10;"/>
        <path d="M289.7,35.52c-13.32,7.48-15.69,25.32-16.54,40.57-.16,2.82-.29,5.74.79,8.35,3.18,7.65,14.24,8.04,19.84,14.13,8.15,8.85.8,22.73.13,34.74-.9,16.18,10.59,29.25,16.57,43.35,5.37,12.66,7.62,34.52-2.82,45.15-5.27,5.36-12.16,9.52-15.28,16.35-2.55,5.59-2.89,13.19-8.46,15.78-6.42,2.98-13.44-3.7-20.51-3.31-4.35.24-8.03,3.11-11.87,5.18-3.84,2.07-8.96,3.25-12.28.42-1.67-1.42-2.5-3.57-3.27-5.62-2.74-7.32-5.49-14.63-8.23-21.95-18.59,4.68-37.8,6.92-56.97,6.65-2.53-.04-5.22-.07-7.36,1.26-4.11,2.56-4.03,8.39-4.79,13.18-1.48,9.33-8.33,17.61-17.22,20.82-4.37,1.58-9.35,2.11-12.79,5.23-4.81,4.37-4.67,11.84-7.01,17.9-4.65,12.05-19.7,19.7-19.52,32.61.09,6.65,4.44,12.42,8.9,17.35,6.8,7.52,14.36,14.35,22.52,20.37-2.46,6.11,1.74,13.3,7.6,16.31,5.86,3.01,12.8,2.85,19.36,2.3,6.56-.55,13.3-1.42,19.64.39,5.76,1.64,10.66,5.35,15.42,8.98,9.12,6.96,18.23,13.91,27.35,20.87,4.1,3.13,8.44,6.59,9.93,11.53.65,2.14.79,4.59,2.36,6.18,1.14,1.15,2.8,1.59,4.38,1.97,10.38,2.54,22.09,4.88,31.16-.77,4.81-3,8.11-7.85,11.27-12.56,10.08-15.03,17.83-35.77,29.6-49.07,10.85-12.26,29.58-22.2,44.73-27.73,22.77-8.32,49.5-10.39,66.2-27.97,11.5-12.1,15.28-28.67,18.83-44.45,1.83-8.11,4.55-16.33,6.03-24.47,1.38-7.62-.81-15.72,1.97-23.09,2.35-6.2,6.77-11.36,11.11-16.37,6.19-7.15,12.38-14.3,18.57-21.46,2.58-2.98,5.48-6.14,9.36-6.76,2.91-.47,5.82.6,8.58,1.65,7.64,2.91,15.27,5.82,22.91,8.74,2.37.9,4.96,2.01,6.04,4.31.96,2.07.4,4.49-.24,6.68-1.85,6.31-4.23,12.46-7.13,18.36,5.41,7.68,12.93,16.3,22.19,14.73,4.76-.81,8.6-4.24,13.03-6.17s10.79-1.61,12.68,2.84c.81,1.9.55,4.07.96,6.09.95,4.69,5.37,7.97,9.94,9.39s9.44,1.42,14.16,2.18c12.28,1.98,23.81,9.68,29.13,20.93,5.32,11.24,3.58,25.82-5.18,34.64-4.5,4.53-10.68,7.65-13.53,13.37-1.22,2.45-1.85,5.4-4.06,7.01-2.44,1.79-5.79,1.22-8.82,1.09-10.34-.45-20.17,5.32-27.07,13.03-6.91,7.71-11.37,17.24-15.74,26.63,6.53,3.35,13.21,6.82,18.14,12.25s7.81,13.35,5.34,20.26c-.54,1.5-1.32,2.97-1.37,4.56-.08,2.83,2.11,5.13,3.83,7.39,19.98,26.4-29.05,65.64-40.84,86.95-11.03,19.93-14.94,46.87-.08,64.13" style="fill: none; stroke: #ffa799; stroke-miterlimit: 10; stroke-width: 3px;"/>
        <path d="M575.67,33.41c-.09,12.45,9.17,23.13,18.94,29.83,8.81,6.05,20.68,8.24,19.22,22.14-.13,1.2-.37,2.45.03,3.6.22.63.62,1.18,1.06,1.68,4.86,5.55,13.99,5.31,19.25,10.49,1.48,1.45,2.57,3.26,4.09,4.67,4.78,4.41,12.26,3.71,18.58,2.15,17.63-4.33,34.12-.77,45.56,14.67,11.84,16,8.41,40.81,23.08,54.27,7.2,6.61,17.76,8.79,23.66,16.76,7.92,10.69-.13,20.92,3.61,32.04,2.04,6.07,8.09,9.87,11.22,15.45,3.99,7.1,2.31,16.9-3.82,22.26-4.72,4.13-12.17,6.7-12.85,12.93-.18,1.66.2,3.39-.27,5-.53,1.79-2.01,3.11-3.41,4.34-3.25,2.86-6.49,5.91-8.39,9.8s-2.21,8.84.3,12.37c1.41,1.98,3.53,3.32,5.42,4.84,7.3,5.87,8.06,14.4,13.88,21.08,7.94,9.1,21.14,10.98,33.14,12.27" style="fill: none; stroke: #ffa799; stroke-miterlimit: 10; stroke-width: 3px;"/>
        <path d="M.43,171.63c12.93,3.87,26.64,5.12,40.05,3.66,5.6-.61,11.34-1.76,15.95-4.99,4.62-3.22,7.86-8.96,6.7-14.47-.53-2.53-1.93-4.83-2.27-7.39-.71-5.38,3.28-10.12,7-14.07,2.74-2.91,5.66-5.93,9.47-7.12,6.52-2.02,13.26,1.87,18.98,5.6,2.94,1.92,6.07,4.07,7.22,7.39.73,2.1.56,4.46,1.47,6.49,2.94,6.57,12.82,4.22,18.93.42,9.38-5.83,18.38-12.98,23.51-22.76,5.13-9.77,5.58-22.65-1.33-31.26-4.64-5.79-12.68-10.8-11.4-18.1.85-4.86,5.74-8.04,7.33-12.7,3.32-9.76-8.97-19.98-5.34-29.63" style="fill: none; stroke: #ffa799; stroke-miterlimit: 10; stroke-width: 3px;"/>
        <path d="M92.66,484.66c-1.37,6.11-2.45,13.36,1.87,17.9,2.66,2.79,6.68,3.71,10.49,4.3,6.63,1.02,13.36,1.42,20.07,1.2,7.74-.26,15.74-1.32,23.05,1.25,4.6,1.62,8.61,4.58,13.13,6.4,8.31,3.34,17.62,2.59,26.53,1.78,4.08-.37,8.29-.78,11.88-2.75,3.59-1.97,6.41-5.95,5.73-9.99-.9-5.31-6.83-7.91-11.94-9.6-11.15-3.7-25.85-5.86-34.13-14.43-6.16-6.38-8.29-13.77-17.84-16.08-16.62-4.02-44.88,2.26-48.86,20.03Z" style="fill: none; stroke: #ffa799; stroke-miterlimit: 10; stroke-width: 3px;"/>
        <path d="M13.56,153.98c3.42,7.46,14.23,9.01,21.29,4.82,7.06-4.19,10.89-12.23,13.1-20.14,1.34-4.81,2.26-9.8,4.59-14.22,8.04-15.3,30.07-17.77,45.77-10.54,5.47,2.52,10.96,6.02,16.96,5.49,6.74-.6,12.4-7.12,12.04-13.88-.67-12.65-18.49-20.43-16.72-32.98.48-3.37,2.38-6.34,3.56-9.53,4.14-11.28-1.14-23.62-6.32-34.46" style="fill: none; stroke: #ffa799; stroke-miterlimit: 10;"/>
        <path d="M15.25,130.2c7.62,2.37,14.83-5.01,17.94-12.37,3.11-7.35,4.7-15.93,10.85-21.02,10.62-8.79,28.32-2.05,39.29-10.39,5.94-4.51,8.3-12.55,7.82-19.99-.47-7.44-3.36-14.48-6.2-21.37-1.86-4.5-5.3-9.88-10.05-8.81" style="fill: none; stroke: #ffa799; stroke-miterlimit: 10;"/>
        <path d="M13.24,92.31c.73-7.67,8.97-12.23,16.49-13.92,7.52-1.69,15.81-2.1,21.75-7.01,5.01-4.14,7.33-10.91,7.3-17.41-.03-6.5-2.16-12.82-4.76-18.78" style="fill: none; stroke: #ffa799; stroke-miterlimit: 10;"/>
        <path d="M161.56,38.84c4.9,3.14,5.65,10.09,4.43,15.78-1.22,5.69-3.89,11.14-3.94,16.96-.06,7.87,4.6,14.86,7.42,22.21,6.82,17.81,2.2,39.04-10.14,53.58-12.34,14.55-31.57,22.48-50.64,22.7-6.7.08-13.82-.64-19.73,2.52-5.35,2.86-8.66,8.35-12.45,13.09-16.55,20.64-47.32,28.41-71.68,18.1" style="fill: none; stroke: #ffa799; stroke-miterlimit: 10;"/>
        <path d="M184,36.16c5.58,13.39.21,28.69,1.46,43.15,1.47,16.99,12.05,32.17,13.54,49.16,1.35,15.37-4.8,31.54.78,45.92,6.88,17.73,28.19,24.77,40.43,39.33,4.6,5.48,8.44,12.44,15.26,14.59,8.87,2.79,17.95-4.21,22.9-12.08,4.04-6.42,6.68-14.17,5.12-21.6-2.18-10.41-11.81-17.57-16.08-27.3-4.4-10.01-2.68-21.54-.62-32.28.66-3.42,1.32-7.05.07-10.3-1.47-3.81-5.18-6.16-8.13-8.97-10.54-10.05-11.58-26.66-8.56-40.91,3.02-14.25,9.33-27.75,11.04-42.22" style="fill: none; stroke: #ffa799; stroke-miterlimit: 10;"/>
        <path d="M208.96,39.13c2.95,13.52,5.91,27.15,6.23,40.99.16,7.27-.4,14.58.45,21.8.85,7.22,3.31,14.56,8.55,19.6.95.91,2.06,1.78,3.37,1.91,2.95.31,4.89-2.98,5.67-5.84,2.01-7.39,1.6-15.19.98-22.82-.9-11.09-2.21-22.26-.8-33.3,1.4-11.04,5.87-22.16,14.55-29.12" style="fill: none; stroke: #ffa799; stroke-miterlimit: 10;"/>
        <path d="M230.83,174.06c2.76,2.01,6.1,3,9.13,4.57,6,3.1,10.71,8.6,12.87,15,.71,2.11,1.37,4.58,3.38,5.55,2.97,1.43,6.41-1.95,6.4-5.24s-2.12-6.16-4.04-8.83c-5.9-8.21-10.22-24.98-19.24-29.99-14.21-7.89-19.01,11.28-8.49,18.94Z" style="fill: none; stroke: #ffa799; stroke-miterlimit: 10;"/>
        <path d="M5.92,227.95c22.87,5.66,47.12-2.83,66.87-15.67,10.18-6.62,19.74-14.48,31.07-18.86,7.83-3.03,16.24-4.29,24.6-5.05,9.87-.89,19.81-1.12,29.71-.67,5.62.25,11.45.79,16.27,3.68s8.29,8.8,6.62,14.17c-2.34,7.55-11.96,9.17-19.2,12.33-6.74,2.95-12.4,8.3-15.72,14.86-3.22,6.37-4.33,13.87-8.79,19.45-7.28,9.13-21.42,10.64-28.37,20.03-3.67,4.96-4.71,11.32-6.6,17.2-5.59,17.38-19.43,31.4-35.77,39.54-16.34,8.14-34.99,10.81-53.23,10.23" style="fill: none; stroke: #ffa799; stroke-miterlimit: 10;"/>
        <path d="M11.72,248.34c15.87,3.71,32.68-.42,47.39-7.43,14.72-7.01,27.91-16.79,41.83-25.27,4.51-2.75,9.31-5.43,14.58-5.77,5.27-.34,11.11,2.38,12.68,7.43,1.51,4.85-1.35,10.11-5.22,13.39-3.87,3.28-8.69,5.22-12.95,7.99-17.54,11.38-22.98,34.37-36.26,50.51-15.75,19.14-42.05,27.31-66.79,25.88" style="fill: none; stroke: #ffa799; stroke-miterlimit: 10;"/>
        <path d="M6.19,267.84c9.23,3.02,19.31,1.62,28.73-.71s18.72-5.58,28.41-6.21c2.7,3.1,2.07,8.08-.31,11.43-2.39,3.35-6.11,5.45-9.7,7.44-14.11,7.82-29.38,15.88-45.43,14.26" style="fill: none; stroke: #ffa799; stroke-miterlimit: 10;"/>
        <path d="M232.73,274.04c-10.46-2.74-18.22-12.03-28.65-14.88-10.29-2.82-21.4,1.23-29.97,7.6-8.56,6.37-15.23,14.88-22.6,22.6-5.96,6.24-12.55,12.17-16.34,19.91-3.79,7.75-4.01,18.06,2.13,24.12,5.06,5,13.69,6.58,16.32,13.19,1.06,2.67.9,5.77,2.29,8.29,2.67,4.84,9.32,5.2,14.84,5.44,27.68,1.23,54.47,15.7,70.68,38.16,3.27,4.53,6.93,9.85,12.5,10.25,4.17.3,8-2.44,10.61-5.71,7.1-8.88,7.49-21.18,10.87-32.03,3.11-9.97,8.99-19.06,16.81-25.99,8.61-7.63,20.21-13.67,23.05-24.82,3.86-15.11-13.67-35.17-25.47-43.46-17.83-12.53-38.25,2.25-57.08-2.68Z" style="fill: none; stroke: #ffa799; stroke-miterlimit: 10;"/>
        <path d="M167.78,321.19c1.27,2.3,3.37,4,5.5,5.54,5.44,3.94,11.38,7.19,17.63,9.65,5.6,2.21,11.43,3.78,17,6.06,6.64,2.71,12.86,6.43,18.4,10.98,3.78,3.1,7.34,6.65,11.84,8.56s10.38,1.7,13.54-2.03c2.23-2.62,2.62-6.27,3.32-9.64,1.49-7.16,4.8-13.93,9.55-19.5,11.99-14.06,14.72-22.99-4.84-28.5-11.32-3.19-20.99-9.07-31.9-13.07-11.45-4.2-24.19-3.68-35.74.17-10.69,3.56-32.08,17.7-24.3,31.79Z" style="fill: none; stroke: #ffa799; stroke-miterlimit: 10;"/>
        <path d="M217.04,306.53c-1.81-.02-3.65.08-5.34.71-3.47,1.29-5.92,4.93-5.82,8.63.04,1.32.46,2.76,1.56,3.48,1.04.69,2.39.57,3.64.58,6.19.01,11.79,3.46,17.8,4.95,2.44.6,5.06.87,7.45.09,2.39-.78,4.5-2.8,4.8-5.3,1.19-10.24-17.62-13.05-24.1-13.13Z" style="fill: none; stroke: #ffa799; stroke-miterlimit: 10;"/>
        <path d="M14.74,362.73c19.34-6.14,39.93-12.33,59.6-7.33,12.55,3.19,23.67,10.8,32.53,20.24,6.72,7.15,12.49,15.56,21,20.46,16.75,9.65,39.01,3,56.35,11.55,13.61,6.71,21.34,21.33,33.18,30.81,15,12.01,35.1,14.79,53.99,18.29s39.08,9.09,50.76,24.34c5.77,7.53,8.86,16.72,11.86,25.72,4.87,14.63,9.74,29.25,14.61,43.88" style="fill: none; stroke: #ffa799; stroke-miterlimit: 10;"/>
        <path d="M10.7,384.46c9.54-3.43,19.19-6.89,29.26-8.1,10.07-1.2,20.75.03,29.34,5.42,13.56,8.51,19.82,25.78,33.6,33.92,18.86,11.14,44.25,1.24,64.18,10.33,14.37,6.55,22.85,21.55,35.58,30.89,21.51,15.8,51.98,13.51,74.6,27.66,13.1,8.2,22.49,21.36,28.74,35.49s9.62,29.34,12.95,44.43" style="fill: none; stroke: #ffa799; stroke-miterlimit: 10;"/>
        <path d="M73.06,489.65c-.85,7.67.07,15.78,4.13,22.35,6.29,10.17,18.84,14.75,30.75,15.89,11.91,1.14,23.96-.43,35.85.89,12.99,1.44,25.37,6.27,38.27,8.33s27.41.85,36.97-8.05c3.5-3.26,6.12-7.36,8.16-11.68,3.44-7.27,5.21-16.15,1.28-23.17-2.05-3.67-5.44-6.4-9.04-8.57-10.73-6.45-23.25-8.32-35-12.08-12.64-4.05-20.83-10.8-30.51-19.52-17.53-15.78-39.44-16.12-59.16-1.76-11.99,8.73-20.08,22.64-21.71,37.39Z" style="fill: none; stroke: #ffa799; stroke-miterlimit: 10;"/>
        <path d="M11.87,404.96c11.43-7.62,27.55-7.41,38.77.51,11.23,7.92,16.84,23.02,13.51,36.35-1.92,7.68-6.42,14.44-9.39,21.78-6.52,16.12-5.34,34.63.48,51.01,5.83,16.38,15.99,30.88,27.22,44.16" style="fill: none; stroke: #ffa799; stroke-miterlimit: 10;"/>
        <path d="M14.08,427.9c3.47-5.23,11.87-5.23,16.58-1.09,4.71,4.14,6.17,11,5.57,17.25-.6,6.25-2.95,12.17-4.69,18.2-9.84,33.99.87,73.08,26.66,97.3" style="fill: none; stroke: #ffa799; stroke-miterlimit: 10;"/>
        <path d="M232.99,561.75c5.31.03,9.46-4.58,12.04-9.22,2.21-3.97,3.85-8.25,4.84-12.68,1.29-5.73,1.53-11.73,3.59-17.23s6.6-10.67,12.47-11.06c4.61-.3,8.99,2.47,11.8,6.14,2.81,3.66,4.33,8.13,5.74,12.53,4.21,13.09,7.95,26.33,11.2,39.69" style="fill: none; stroke: #ffa799; stroke-miterlimit: 10;"/>
        <g>
          <path d="M506.6,28.09c9.5,11.4,14.09,26.3,15.11,41.11,1.03,14.81-1.27,29.64-4.25,44.18-1.63,7.96-3.56,16.08-8.12,22.79-7.34,10.81-20.15,16.22-30.98,23.53-29.94,20.2-45.5,56.07-52.98,91.4-1.69,7.98-3.09,16.17-6.87,23.4-4.03,7.72-10.53,13.87-17.45,19.14-8.27,6.31-17.53,11.67-27.72,13.75-10.19,2.08-21.45.55-29.7-5.79-5.56-4.27-9.42-10.39-12.38-16.74-4.94-10.59-7.72-22.34-6.81-33.99,1.96-25.19,20.67-49.18,13.88-73.52-4.61-16.55-20.52-29.61-20.21-46.79.16-8.93,4.87-17.71,3.01-26.44-2.05-9.63-11.31-15.89-15.9-24.6-3.32-6.29-4.05-13.58-4.72-20.66-.77-8.1.04-18.7,7.85-20.99,10.77-3.16,16.64-12.35,26.33-17.99,9.05-5.27,18.18-10.57,28.11-13.94,11.69-3.97,24.16-5.13,36.5-5.33,35.78-.58,84.4-.02,107.31,27.48Z" style="fill: none; stroke: #ffa799; stroke-miterlimit: 10;"/>
          <path d="M331.37,49.67c8.23-2.61,12.86-9.56,20.35-13.94,6.99-4.08,14.05-8.18,21.71-10.82,9.02-3.1,18.63-4.04,28.17-4.33,17.06-.53,37.34-.67,54.67,3.93,11.8,3.11,22.21,8.4,29.31,17.13,7.58,9.32,10.88,21.79,11.37,34.33.05,1.38.08,2.77.08,4.15-.03,10.83-1.95,21.72-4.3,32.4-1.45,6.6-3.11,13.32-6.78,18.92-5.65,8.61-15.51,13.04-23.76,18.98-12.34,8.88-21.49,21.02-28.08,34.31-5.91,11.93-9.85,25.05-12.53,38.07-1.29,6.28-2.39,12.71-5.27,18.44-3.11,6.21-8.1,11.26-13.49,15.6-5.97,4.82-12.65,8.97-20.04,11.01-.59.16-1.19.31-1.79.45-8.1,1.81-17.12.71-23.79-4.21-4.51-3.32-7.69-8.12-10.08-13.21-1.85-3.93-3.25-8.1-4.19-12.35-1.11-5-1.6-10.15-1.29-15.29.85-13.49,7.17-26.68,9.83-39.85,1.36-6.66,1.77-13.32.01-20.01-3.55-13.5-15.52-24.38-15.22-38.31.16-7.28,3.75-14.44,2.46-21.54-1.42-7.86-8.19-13.17-11.39-20.27-1.36-3.04-2.04-6.33-2.42-9.69-.26-2.33-.38-4.68-.48-7.01-.28-6.5.64-14.9,6.92-16.9Z" style="fill: none; stroke: #ffa799; stroke-miterlimit: 10;"/>
          <path d="M354.39,61.46c5.7-2.05,9.09-6.78,14.36-9.88,4.92-2.89,9.91-5.79,15.32-7.69,6.34-2.23,13.11-2.95,19.84-3.34,12.7-.72,27.23-1.05,39.54,2.13,8.63,2.2,16.1,6.08,21.11,12.5,5.65,7.24,7.68,17.28,7.62,27.56,0,1.1-.02,2.19-.07,3.29-.34,8.53-2.07,17.17-4.12,25.63-1.27,5.24-2.65,10.57-5.43,15.05-3.97,6.4-10.86,9.89-16.54,14.44-8.75,7.02-15.17,16.1-19.62,25.51-4.14,8.75-6.76,18.35-8.62,27.86-.9,4.58-1.69,9.26-3.66,13.47-2.2,4.7-5.67,8.64-9.53,12.06-4.27,3.79-9.13,7.08-14.61,8.78-.44.14-.88.26-1.33.38-6.01,1.54-12.8.87-17.89-2.63-3.45-2.36-5.96-5.85-7.78-9.67-1.44-3.02-2.42-6.25-3.1-9.53-.79-3.83-1.18-7.79-1.04-11.76.4-10.3,4.38-20.53,6.01-30.78.82-5.13,1.03-10.25-.2-15.41-2.48-10.44-10.51-19.15-10.23-29.84.15-5.63,2.63-11.17,1.91-16.64-.78-6.09-5.08-10.44-6.89-15.94-.78-2.36-1.06-4.88-1.14-7.43-.05-1.77,0-3.55.08-5.31.19-4.9,1.24-11.1,6-12.81Z" style="fill: none; stroke: #ffa799; stroke-miterlimit: 10;"/>
          <path d="M377.41,73.26c3.18-1.42,5.31-4,8.37-5.83,2.86-1.71,5.77-3.39,8.92-4.57,3.67-1.36,7.58-1.9,11.5-2.34,8.35-.94,17.11-1.41,24.41.34,5.45,1.3,9.98,3.78,12.92,7.87,3.72,5.17,4.5,12.76,3.87,20.78-.06.81-.13,1.62-.22,2.43-.65,6.22-2.2,12.62-3.94,18.86-1.09,3.88-2.21,7.8-4.09,11.18-2.32,4.18-6.2,6.75-9.31,9.9-5.15,5.2-8.84,11.2-11.16,16.7-2.35,5.58-3.66,11.65-4.71,17.65-.5,2.89-.98,5.81-2.06,8.51-1.27,3.19-3.25,6.03-5.57,8.52-2.58,2.77-5.62,5.18-9.18,6.56-.29.11-.57.21-.86.31-3.92,1.27-8.47,1.02-11.98-1.05-2.4-1.41-4.24-3.59-5.48-6.14-1.03-2.1-1.6-4.4-2.01-6.71-.47-2.66-.77-5.42-.8-8.22-.07-7.11,1.61-14.37,2.19-21.72.28-3.59.29-7.19-.4-10.81-1.41-7.38-5.5-13.92-5.24-21.37.14-3.99,1.51-7.9,1.36-11.74-.16-4.32-1.96-7.72-2.39-11.61-.18-1.68-.09-3.43.14-5.17.16-1.21.38-2.42.62-3.6.68-3.3,1.84-7.27,5.08-8.72Z" style="fill: none; stroke: #ffa799; stroke-miterlimit: 10;"/>
          <path d="M393.8,145.06c.14,1.33.29,2.7.91,3.89,1.71,3.26,6.55,3.82,9.66,1.84,3.11-1.98,4.7-5.68,5.36-9.31.66-3.63.57-7.36,1.25-10.98.43-2.28,2.47-7.25,4.8-13.25s4.94-13.02,6.51-19.4c1.57-6.38,2.09-12.13.24-15.58-.92-1.72-2.44-2.87-4.72-3.24-2.28-.37-5.31.05-9.28,1.46-3.21,1.14-5.88,2.69-8.08,4.56-2.21,1.88-3.96,4.08-5.33,6.53-2.74,4.9-3.98,10.79-4.34,17.03s.14,12.82.86,19.11c.72,6.29,1.66,12.29,2.18,17.34Z" style="fill: none; stroke: #ffa799; stroke-miterlimit: 10;"/>
        </g>
        <path d="M550.64,36.55c.21,11.22,8.33,20.66,16.84,27.96,8.52,7.31,18.18,13.91,23.51,23.79,4.14,7.67,5.33,16.77,10.16,24.02,7.33,11.01,21.26,15.35,34.27,17.77,13.01,2.42,26.85,3.96,37.49,11.81,18.29,13.48,21.5,41.35,40.27,54.15,6.12,4.17,13.85,6.72,17.68,13.07,3.99,6.63,2.36,15.27,5.21,22.46.98,2.48,2.47,4.74,3.25,7.29,2.98,9.82-5.27,19.01-10.92,27.59-15.2,23.07-12.16,56.5,6.96,76.45,7.76,8.1,17.55,13.91,27.21,19.61,10,5.91,20.01,11.81,30.01,17.72" style="fill: none; stroke: #ffa799; stroke-miterlimit: 10;"/>
        <path d="M601.63,33.9c19.73,10,26.42,36.22,45.46,47.48,17.72,10.48,42.7,5.85,57.69,19.97,6.11,5.76,9.47,13.76,13.83,20.94,5.11,8.4,11.78,15.85,19.56,21.86,7.98,6.15,17.74,10.92,27.77,9.96,10.03-.95,19.77-9.25,19.5-19.32" style="fill: none; stroke: #ffa799; stroke-miterlimit: 10;"/>
        <path d="M636.02,40.83c3.35,10.36,12.66,17.8,22.59,22.26,9.93,4.46,20.75,6.53,31.07,9.99,7.41,2.49,14.59,5.69,21.38,9.56,5.04,2.87,9.92,6.15,13.76,10.49,7.26,8.22,10.71,20.13,20.27,25.51,8.02,4.52,18.6,2.82,25.97-2.7,7.37-5.52,11.82-14.25,13.9-23.22" style="fill: none; stroke: #ffa799; stroke-miterlimit: 10;"/>
        <path d="M672.42,41.53c10.83,14.41,32.69,13.73,47.98,23.28,6.87,4.29,12.25,10.57,18.76,15.38,6.51,4.81,15.09,8.14,22.67,5.3,5.08-1.9,8.8-6.22,12.29-10.38,3.15-3.74,6.29-7.49,9.44-11.23,1.93-2.3,3.92-4.72,4.55-7.66.63-2.93-.63-6.51-3.48-7.44" style="fill: none; stroke: #ffa799; stroke-miterlimit: 10;"/>
        <path d="M722.65,41.84c5.21,4.48,10.92,8.38,16.98,11.59,3.54,1.88,7.48,3.57,11.44,2.94,4.19-.67,7.62-3.9,9.61-7.65,1.99-3.75,2.78-8,3.55-12.18" style="fill: none; stroke: #ffa799; stroke-miterlimit: 10;"/>
        <g>
          <path d="M547.5,507.38c7.64-18,21.95-32.62,32.45-48.92,9.35-14.52,13.98-31.06,13.75-48.31-.21-15.85-7.35-33.93,2.13-48.41,12.87-19.65,46.33-23.64,67.5-22.51,25.63,1.37,51.05,10.28,72.44,24.36,24.51,16.13,42.69,39.7,54.84,66.2,12.92,28.18,23.32,62.74,20.84,93.96-2.14,26.9-15.83,52.17-39.33,66.13-32.35,19.22-75.94,18.56-111.75,11.52-29.78-5.85-59.74-17.33-86.47-31.7-12.9-6.94-24.97-17.3-29.1-31.35-3.17-10.8-1.51-21.05,2.69-30.96Z" style="fill: none; stroke: #ffa799; stroke-miterlimit: 10;"/>
          <path d="M670.49,372.81c20.39.38,41.17,5.29,58.76,15.82,20.46,12.25,34.3,30.93,42.95,52.11,9.11,22.29,16.08,49.49,13.1,74.03-2.59,21.39-14.05,41.29-32,52.19-24.46,14.86-56.8,16.04-84.52,11.47-.99-.16-1.97-.33-2.94-.51-23.51-4.29-47.16-13.58-67.87-25.3-9.86-5.58-19.07-13.7-22.23-24.64-2.42-8.39-1.19-16.37,2-24.1,5.79-14.04,16.71-25.52,24.9-38.19,7.36-11.39,11.3-24.2,11.67-37.51.33-12.22-4.49-26.08,3.17-37.21,10.49-15.17,36.44-18.48,53.02-18.16Z" style="fill: none; stroke: #ffa799; stroke-miterlimit: 10;"/>
          <path d="M677.64,406.4c15.16-.62,31.31.29,45.07,7.29,16.44,8.36,25.92,22.14,31.07,38.01,5.3,16.38,8.82,36.25,5.36,54.11-3.07,15.89-12.26,30.41-24.67,38.26-17.69,11.18-40.65,13.51-61.01,10.71-.72-.1-1.44-.21-2.15-.32-17.25-2.73-34.59-9.82-49.27-18.9-6.83-4.22-13.17-10.11-15.36-17.93-1.68-5.97-.86-11.69,1.3-17.23,3.93-10.07,11.46-18.43,17.34-27.46,5.37-8.25,8.63-17.34,9.59-26.7.87-8.59-1.66-18.24,4.2-26.02,8.08-10.72,26.56-13.32,38.54-13.81Z" style="fill: none; stroke: #ffa799; stroke-miterlimit: 10;"/>
          <path d="M684.79,439.99c9.95-1.67,21.49-4.76,31.39-1.25,12.46,4.42,17.59,13.29,19.18,23.92,1.56,10.41,1.49,23.02-2.38,34.19-3.6,10.39-10.45,19.57-17.34,24.32-10.91,7.52-24.5,10.97-37.5,9.95-.46-.04-.91-.08-1.37-.13-10.99-1.16-22.02-6.03-30.67-12.5-3.8-2.84-7.28-6.52-8.5-11.22-.93-3.56-.53-7.01.61-10.36,2.08-6.11,6.22-11.34,9.78-16.74,3.39-5.11,5.96-10.48,7.51-15.89,1.41-4.96,1.2-10.4,5.24-14.82,5.7-6.25,16.7-8.22,24.06-9.46Z" style="fill: none; stroke: #ffa799; stroke-miterlimit: 10;"/>
          <path d="M670.67,487.41c-2.86,4.04-3.07,9.78-.5,14.01s7.75,6.71,12.65,6.04c5.64-.77,10.04-5.1,13.99-9.2,4.56-4.73,35.8-33.77,12.84-34.47-5.99-.18-13.03,6.79-17.7,9.79-6.59,4.24-16.65,7.3-21.28,13.83Z" style="fill: none; stroke: #ffa799; stroke-miterlimit: 10;"/>
        </g>
        <path d="M538.31,137.31c-3.16,3.93-7.93,6.14-12.02,9.08s-7.85,7.44-7.24,12.45c.57,4.74,4.84,8.16,9.13,10.24s9.07,3.45,12.62,6.64c3.81,3.42,5.74,8.81,4.97,13.87-.43,2.84-1.61,5.93-.2,8.43.8,1.42,2.3,2.31,3.82,2.89,5.33,2.03,11.26.98,16.96,1.05,5.7.07,12.22,1.98,14.41,7.25,1.2,2.9.81,6.26,1.97,9.18,2.68,6.73,11.49,7.76,18.59,9.2,25.18,5.1,44.67,30.22,43.37,55.87-.42,8.3-2.48,17.61,2.63,24.17,3.76,4.83,10.25,6.43,16.23,7.73,8.39,1.82,18.22,3.31,24.66-2.38,3.67-3.24,5.33-8.14,6.84-12.8,4.26-13.18,8.52-26.36,12.78-39.54,1.24-3.83,2.48-7.67,3.11-11.64,1-6.29.42-12.78-1.28-18.91-1.61-5.8-4.24-11.37-8.07-16.02-6.42-7.81-15.78-12.68-22.66-20.09-11.16-12.01-15.34-30.15-28.92-39.32-10.25-6.93-22.99-6.9-34.6-9.83-12.53-3.16-22.16-9.95-29.57-20.5-7.93-11.28-15.68-36.82-33.78-23.01-11.52,8.8-5.28,25.47-13.75,35.99Z" style="fill: none; stroke: #ffa799; stroke-miterlimit: 10;"/>
        <path d="M573.32,135.39c-2.68-1.11-6.02-1.23-8.28.61-2.97,2.42-2.94,7.13-5.56,9.92-2.83,3.03-8.56,3.74-9.13,7.85-.31,2.27,1.32,4.35,3.15,5.73,1.83,1.38,3.96,2.41,5.43,4.17,2.14,2.57,2.43,6.18,2.38,9.53-.02,1.49-.08,3.01.34,4.44,1.1,3.74,5.14,5.81,8.97,6.58,3.82.77,7.86.7,11.46,2.19,9.81,4.05,12.28,17.45,21.23,23.16,5.87,3.74,13.47,3.45,20.23,1.76,2.67-.67,5.33-1.54,7.65-3.02,4.33-2.76,7.12-7.39,9.04-12.15,2.01-4.97,3.21-10.59,1.53-15.68-1.78-5.37-6.5-9.29-11.56-11.82-6.76-3.38-14.32-4.86-21.62-6.6-4.41-1.05-9.61-1.5-13.66-3.67-9.59-5.14-11.39-18.59-21.61-22.99Z" style="fill: none; stroke: #ffa799; stroke-miterlimit: 10;"/>
        <path d="M656.21,209.9c-4.23.4-8.7,2.12-10.77,5.84-1.14,2.04-1.42,4.47-1.26,6.8.93,13.9,15.56,23.33,18.48,36.95,1.07,4.96.48,10.09.21,15.15-.27,5.06-.18,10.35,2.07,14.89,2.25,4.54,7.23,8.09,12.22,7.16,5.73-1.06,8.97-7.15,10.6-12.75,4.2-14.45,3.13-29.73.74-44.4-1.57-9.65-2.9-17.36-11.43-22.97-6.33-4.16-13.08-7.42-20.86-6.68Z" style="fill: none; stroke: #ffa799; stroke-miterlimit: 10;"/>
        <path d="M607.57,187.99c.97,1.64.93,3.74,1.97,5.33,1.27,1.95,3.82,2.63,6.15,2.69,10.39.28,15.72-12.05,7.03-18.54-4.35-3.25-21.02-5.54-22.88.96-1.45,5.08,5.71,6.12,7.73,9.55Z" style="fill: none; stroke: #ffa799; stroke-miterlimit: 10;"/>
        <path d="M339.19,467.5c-5.83-5.96-13.4-10.08-18.78-16.45-13.86-16.42-8.18-42.86,6.54-58.52,14.72-15.65,35.88-23.19,56.15-30.3,20.28-7.11,41.39-14.9,55.8-30.84,18.08-20.03,21.95-48.6,28.42-74.8,1.54-6.23,3.39-12.65,7.65-17.44,4.26-4.79,11.62-7.43,17.28-4.42,5.48,2.92,7.42,9.64,10.85,14.81,7.61,11.44,22.68,15.12,36.4,15.87,13.72.76,28.04-.35,40.64,5.13,3.45,1.5,6.98,3.83,7.95,7.47,1.41,5.28-3.1,10.13-7.19,13.75-14.53,12.82-29.05,25.65-43.58,38.47-4.81,4.25-9.71,8.6-12.89,14.17-6.36,11.14-4.22,26.44,4.94,35.41,2.76,2.7,6.02,4.83,8.74,7.57,9.84,9.92,10.61,26.04,6.35,39.35-4.26,13.31-12.64,24.83-19.44,37.05-14.12,25.36-21.55,54.4-21.35,83.43.02,2.88.07,5.93-1.4,8.4-1.46,2.45-4.15,3.87-6.74,5.07-29.39,13.68-63.81,15.67-94.8,6.44-10.33-3.07-26.96-7.56-34.12-16.37-7.98-9.82-8.59-27.08-10.51-39.03-2.51-15.65-5.38-32.43-16.92-44.23Z" style="fill: none; stroke: #ffa799; stroke-miterlimit: 10;"/>
        <path d="M427.8,415.4c-5.82,1.66-12.08,2.81-16.67,6.75-4.59,3.94-6.38,11.95-1.76,15.85,3.12,2.64,7.74,2.36,11.74,1.5,4-.87,8.13-2.18,12.09-1.14,2.08.55,3.95,1.72,5.98,2.44,7,2.49,14.68-.64,21.2-4.21,3.37-1.85,6.74-3.89,9.22-6.82s3.99-6.94,3.08-10.68c-1.72-7.07-12.63-12.27-19.33-12.86-8.46-.75-17.43,6.86-25.53,9.17Z" style="fill: none; stroke: #ffa799; stroke-miterlimit: 10;"/>
      </g>
    </g>
  </g>
</svg>