<svg width="119" height="16" viewBox="0 0 119 16" fill="none" xmlns="http://www.w3.org/2000/svg">
<path d="M15.464 0.467999V15H13.553V4.164L8.723 15H7.379L2.528 4.143V15H0.617V0.467999H2.675L8.051 12.48L13.427 0.467999H15.464ZM20.6159 1.917V6.81H25.9499V8.385H20.6159V13.425H26.5799V15H18.7049V0.342H26.5799V1.917H20.6159ZM34.1125 15.147C33.1465 15.147 32.2785 14.979 31.5085 14.643C30.7525 14.293 30.1575 13.817 29.7235 13.215C29.2895 12.599 29.0655 11.892 29.0515 11.094H31.0885C31.1585 11.78 31.4385 12.361 31.9285 12.837C32.4325 13.299 33.1605 13.53 34.1125 13.53C35.0225 13.53 35.7365 13.306 36.2545 12.858C36.7865 12.396 37.0525 11.808 37.0525 11.094C37.0525 10.534 36.8985 10.079 36.5905 9.729C36.2825 9.379 35.8975 9.113 35.4355 8.931C34.9735 8.749 34.3505 8.553 33.5665 8.343C32.6005 8.091 31.8235 7.839 31.2355 7.587C30.6615 7.335 30.1645 6.943 29.7445 6.411C29.3385 5.865 29.1355 5.137 29.1355 4.227C29.1355 3.429 29.3385 2.722 29.7445 2.106C30.1505 1.49 30.7175 1.014 31.4455 0.677999C32.1875 0.341999 33.0345 0.173999 33.9865 0.173999C35.3585 0.173999 36.4785 0.517 37.3465 1.203C38.2285 1.889 38.7255 2.799 38.8375 3.933H36.7375C36.6675 3.373 36.3735 2.883 35.8555 2.463C35.3375 2.029 34.6515 1.812 33.7975 1.812C32.9995 1.812 32.3485 2.022 31.8445 2.442C31.3405 2.848 31.0885 3.422 31.0885 4.164C31.0885 4.696 31.2355 5.13 31.5295 5.466C31.8375 5.802 32.2085 6.061 32.6425 6.243C33.0905 6.411 33.7135 6.607 34.5115 6.831C35.4775 7.097 36.2545 7.363 36.8425 7.629C37.4305 7.881 37.9345 8.28 38.3545 8.826C38.7745 9.358 38.9845 10.086 38.9845 11.01C38.9845 11.724 38.7955 12.396 38.4175 13.026C38.0395 13.656 37.4795 14.167 36.7375 14.559C35.9955 14.951 35.1205 15.147 34.1125 15.147ZM53.0737 0.362999V15H51.1627V8.364H43.7077V15H41.7967V0.362999H43.7077V6.789H51.1627V0.362999H53.0737ZM64.2747 15L58.2477 8.322V15H56.3367V0.362999H58.2477V7.146L64.2957 0.362999H66.7107L60.0747 7.692L66.7737 15H64.2747ZM77.56 11.745H71.176L70 15H67.984L73.276 0.447H75.481L80.752 15H78.736L77.56 11.745ZM77.014 10.191L74.368 2.799L71.722 10.191H77.014ZM92.0674 0.362999V1.917H88.0774V15H86.1664V1.917H82.1554V0.362999H92.0674Z" fill="black"/>
<path d="M107.795 12.585H102.545L101.747 15H97.4209L102.818 0.194999H107.564L112.94 15H108.593L107.795 12.585ZM106.766 9.435L105.17 4.647L103.595 9.435H106.766ZM118.397 0.194999V15H114.281V0.194999H118.397Z" fill="#E43B3B"/>
</svg>
