<?xml version="1.0" encoding="UTF-8"?>
<svg id="Layer_1" data-name="Layer 1" xmlns="http://www.w3.org/2000/svg" viewBox="0 0 117.78 14.97">
  <path d="M14.85.29v14.53h-1.91V3.99l-4.83,10.84h-1.34L1.91,3.97v10.86H0V.29h2.06l5.38,12.01L12.81.29h2.04ZM20,1.74v4.89h5.33v1.58h-5.33v5.04h5.96v1.57h-7.88V.17h7.88v1.58h-5.96ZM33.5,14.97c-.97,0-1.83-.17-2.6-.5-.76-.35-1.35-.83-1.78-1.43-.43-.62-.66-1.32-.67-2.12h2.04c.07.69.35,1.27.84,1.74.5.46,1.23.69,2.18.69s1.62-.22,2.14-.67c.53-.46.8-1.05.8-1.76,0-.56-.15-1.01-.46-1.36s-.69-.62-1.15-.8c-.46-.18-1.09-.38-1.87-.59-.97-.25-1.74-.5-2.33-.76-.57-.25-1.07-.64-1.49-1.18-.41-.55-.61-1.27-.61-2.18,0-.8.2-1.51.61-2.12s.97-1.09,1.7-1.43c.74-.34,1.59-.5,2.54-.5,1.37,0,2.49.34,3.36,1.03.88.69,1.38,1.6,1.49,2.73h-2.1c-.07-.56-.36-1.05-.88-1.47-.52-.43-1.2-.65-2.06-.65-.8,0-1.45.21-1.95.63-.5.41-.76.98-.76,1.72,0,.53.15.97.44,1.3.31.34.68.59,1.11.78.45.17,1.07.36,1.87.59.97.27,1.74.53,2.33.8.59.25,1.09.65,1.51,1.2.42.53.63,1.26.63,2.18,0,.71-.19,1.39-.57,2.02-.38.63-.94,1.14-1.68,1.53s-1.62.59-2.62.59ZM52.46.19v14.64h-1.91v-6.64h-7.46v6.64h-1.91V.19h1.91v6.43h7.46V.19h1.91ZM63.66,14.83l-6.03-6.68v6.68h-1.91V.19h1.91v6.78L63.68.19h2.42l-6.64,7.33,6.7,7.31h-2.5ZM76.94,11.57h-6.38l-1.18,3.26h-2.02L72.66.27h2.21l5.27,14.55h-2.02l-1.18-3.26ZM76.4,10.02l-2.65-7.39-2.65,7.39h5.29ZM91.45.19v1.55h-3.99v13.08h-1.91V1.74h-4.01V.19h9.91Z" style="fill: #fff;"/>
  <path d="M107.18,12.41h-5.25l-.8,2.41h-4.33L102.2.02h4.75l5.38,14.81h-4.35l-.8-2.41ZM106.15,9.26l-1.6-4.79-1.57,4.79h3.17ZM117.78.02v14.81h-4.12V.02h4.12Z" style="fill: #e43b3b;"/>
</svg>