<?xml version="1.0" encoding="utf-8"?>
<!-- Generator: Adobe Illustrator 28.3.0, SVG Export Plug-In . SVG Version: 6.00 Build 0)  -->
<svg version="1.1" id="Layer_1" xmlns="http://www.w3.org/2000/svg" xmlns:xlink="http://www.w3.org/1999/xlink" x="0px" y="0px"
	 viewBox="0 0 598.9 435.9" style="enable-background:new 0 0 598.9 435.9;" xml:space="preserve">
<style type="text/css">
	.st0{fill:url(#SVGID_1_);}
</style>
<linearGradient id="SVGID_1_" gradientUnits="userSpaceOnUse" x1="-23.2705" y1="135.9102" x2="577.1295" y2="135.9102">
	<stop  offset="0" style="stop-color:#FFFFFF"/>
	<stop  offset="1" style="stop-color:#A6E5D1"/>
</linearGradient>
<path class="st0" d="M598.9,161v-1.2c-6.5,3.8-13.1,7.6-14.7,8.6c-10.6,6.6-18.6,12.6-24.7,19.1c-5.6,6-12.4,10.1-22.4,14.1
	c-1.5,0.6-3,1.2-4.8,1.9l-4.8,1.8c-9.8,3.8-14.8,6.3-19,10.1c-4.2,3.9-9.6,6.6-16.8,8.8c-2,0.6-4,1.2-6.5,1.8l-6.1,1.5
	c-5.3,1.4-8.3,2.4-10.5,3.8c-3.1,1.9-6.6,3.3-12.7,5c-1.6,0.5-3.2,0.9-4.8,1.4c-2,0.6-3.6,1-5.2,1.5c-3.8,1.1-7.5,2.5-11.2,4
	c-2.7,1.1-5.5,3.9-8.8,8.4c-2.2,3-4.2,6.1-6.1,9.2c-5.8,9.1-7.6,11.7-10.2,14.5c-1.4,1.5-3,2.9-4.6,4.2c-2.3,1.9-10.4,7.5-11.8,8.7
	c-1.5,1.1-2.7,2.5-3.7,4.1c-1.2,2.3-1.9,4.6-2.8,8.9c-2.2,10.6-3.5,14.8-8.2,22.1c-4.1,6.3-6.8,9.9-9.8,13c-0.5,0.5-1,1-1.5,1.5
	l-3.8,3.6c-1.7,1.6-3.2,3.1-4.9,4.9c-4.6,4.8-8,10.6-9.9,16.9c-2.5,8.1-2.7,15.5-1.8,27.2c0.5,5.8,0.5,6.4,0.5,8.2
	c0,10.5,0.1,17.5,0.6,25.8c0.2,4,0.6,7.8,1,11.2h0.9c-1.1-9.6-1.5-21.8-1.5-37c0-1.9,0-2.4-0.5-8.3c-0.9-11.6-0.7-18.9,1.7-26.8
	c1.9-6.2,5.2-11.9,9.6-16.5c1.7-1.8,3.2-3.3,4.8-4.9c0.6-0.6,3.1-3,3.8-3.6c0.5-0.5,1-1,1.5-1.5c3.1-3.2,5.9-6.8,10-13.1
	c4.8-7.4,6.1-11.7,8.3-22.4c0.9-4.2,1.5-6.4,2.7-8.6c0.7-1.2,1.8-2.5,3.4-3.9c1.4-1.1,9.4-6.8,11.8-8.7c1.7-1.4,3.3-2.8,4.7-4.3
	c2.7-2.9,4.6-5.5,10.4-14.7c1.9-3.1,4-6.2,6.1-9.1c3.2-4.3,5.9-7,8.4-8.1c3.5-1.5,7.1-2.8,11.1-4c2.5-0.8,5.1-1.5,7.6-2.2l2.4-0.7
	c6.2-1.8,9.8-3.2,13-5.1c2.1-1.3,5.1-2.3,10.3-3.6l6.1-1.5c2.5-0.6,4.5-1.2,6.5-1.8c7.2-2.3,12.8-5.1,17.1-9c4.1-3.7,9-6.2,18.7-9.9
	l4.8-1.8c1.9-0.7,3.4-1.3,4.8-1.9c10.1-4.1,17.1-8.3,22.8-14.4c6-6.5,14-12.4,24.5-18.9C586.3,168.4,592.6,164.7,598.9,161V96.4
	c-4,8.1-8.5,14.9-12.7,17.9c-2.5,1.8-5.4,4-9,6.9c-2.1,1.7-4.2,3.3-6.2,5l-1.3,1c-1.6,1.3-3.2,2.6-4.9,3.9c-7.5,6-12.9,10-17.6,13.2
	c-3.1,2.1-3.9,2.8-8.1,7.1c-5.8,6.1-11.7,8.6-29.1,11c-11.3,1.5-20,4.9-30.8,11.1c-1.6,0.9-7.3,4.3-7,4.1c-2.7,1.6-4.7,2.7-6.6,3.7
	c-5.6,2.8-10.5,4.2-15.7,4.2c-17.1,0-41.4,11.5-51.6,22.8c-12,13.4-31.4,27.7-45.2,31.2c-7.4,1.9-11.9,7-14,14.7
	c-1.3,4.4-1.6,8.3-1.6,13.8c0,0.8,0,1,0.2,3.6c0.5,5.2,0.4,8.7-0.8,13.3c-1.5,6.2-4.9,12.6-10.6,19.4
	c-13.9,16.6-22.9,46.6-22.9,71.7c0,2.4,0,4.3,0.1,8.8c0.1,10.8,0.1,15.8-0.2,22c-0.6,11.2-2.1,20.7-5,29.3h-1
	c2.9-8.6,4.5-18.1,5-29.3c0.3-6.1,0.3-11.1,0.2-21.9c0-4.5-0.1-6.4-0.1-8.8c0-25.3,9.1-55.5,23.1-72.3c5.6-6.7,8.9-13,10.4-19
	c1.1-4.4,1.2-7.9,0.7-12.9c-0.2-2.7-0.2-2.9-0.2-3.7c0-5.6,0.3-9.6,1.6-14.1c2.3-8,7-13.4,14.8-15.4c13.6-3.4,32.8-17.6,44.8-30.8
	c10.4-11.5,35-23.2,52.4-23.2c5.1,0,9.8-1.3,15.3-4.1c1.9-1,3.9-2,6.6-3.6c-0.3,0.2,5.3-3.2,7-4.1c10.8-6.2,19.7-9.7,31.1-11.2
	c17.2-2.3,22.9-4.8,28.6-10.6c4.2-4.4,5-5.2,8.2-7.3c4.7-3.1,10-7.1,17.5-13.1c1.6-1.3,3.2-2.6,4.9-3.9l1.3-1c2.1-1.7,4.2-3.3,6.2-5
	c3.7-2.9,6.5-5.1,9.1-7c4.4-3.2,9.2-10.6,13.3-19.4L598.9,161L598.9,161z M598.9,44.8c-0.6,0-1.3,0.1-2,0.1
	c-6.1,0.6-13.8,3.4-21.8,7.4c-3.6,1.8-8.5,2.7-14.2,2.7c-4.7,0-9.7-0.5-14.7-1.3c-1.7-0.3-3.3-0.6-4.7-0.9c-1.2-0.3-2.4-0.4-3.5-0.6
	c-5.5-0.5-11.1-0.8-16.7-0.9c-10.4-0.2-17.2,0.7-18,2.7c-0.4,1,0.6,2.6,3,4.9c1,1,2.2,2,4,3.6c1.6,1.3,3.2,2.7,4.8,4
	c1.4,1.2,3.1,1.9,5.5,2.5c0.7,0.2,0.9,0.2,2.6,0.5c3.5,0.7,5,1.2,6.2,2.6c1.4,1.8,1.4,4.5-0.2,8.9c-2.4,6.8-5.7,10.1-10.2,10.3
	c-3.6,0.2-7.6-1.3-14.5-5.1c-4.5-2.5-6.8-7.3-8.3-15.3c-0.2-0.9-0.3-1.8-0.5-2.9l-0.4-2.8c-1-6.6-1.9-9.2-3.7-10.1
	c-0.8-0.4-1.6-0.7-2.4-1c-2.3-0.8-4.6-1-8.1-0.9c-2.3,0.1-14.7,1-13.8,0.9c-20.5,1.4-28.8,5.1-37.1,15c-1.5,1.8-2.9,3.6-4.2,5.4
	l-2.3,3.1l-2.5,3.3c-4.1,5.4-7.1,8.5-10.4,11.1c-0.6,0.5-1.3,1-2.1,1.6l-4.1,2.9c-1.8,1.3-3.5,2.6-5.2,4c-4.5,3.7-9.7,8.6-16.2,15.4
	c-8.2,8.6-11.8,13.5-11.7,16c0.1,1.6,1.6,2.1,6.8,2.4c1.6,0.1,2.1,0.1,3,0.2c3,0.2,5.1,0.7,6.8,1.7c7.5,4.1,11.6,7.3,14,11.6
	c3.3,6.1,0.8,12.9-8.9,20.3c-8.3,6.3-11.1,10.4-11.3,15c-0.1,1.2,0,1.9,0.3,4.4c0.7,6.5,0.2,10.6-2.8,17.4c-1.1,2.6-2.5,5.2-4.2,7.5
	c-2.8,4-5.5,5.7-10.6,7.7c-0.4,0.2-3.3,1.2-4.3,1.6c-1.8,0.7-3.4,1.4-5,2.1c-4.2,2-8.4,4.6-13.1,8.2c-8.4,6.5-13.2,14.6-16,25.1
	c-1.1,4.2-1.5,6.8-2.8,15.2c-1.3,8.6-2.2,12.6-4.1,16.5c-2.1,4.3-11.9,26.6-13,28.9c-2,4.5-4.2,9-6.4,13.4
	c-4.1,8.1-7.6,14.1-10.7,17.8c-5.4,6.5-9,14.4-13.8,28.4c-0.6,1.9-1.3,3.7-1.9,5.6c-1.8,5.3-3,8.6-4.3,11.8
	c-6.1,15.3-25.4,26.3-46.5,26.3c-11.2,0-20.6-2.7-31-8.5c-5.6-3.1-4.6-2.4-22.3-14.5c-14.3-9.8-17.7-10.7-20.5-6.9
	c-0.4,0.5-1.8,2.7-1.8,2.8c-1.5,2.1-3.2,4.1-4.9,5.9c-0.7,0.8-5.5,5.9-7,7.5c-2.4,2.6-4.3,4.8-6,6.9c-1.9,2.4-3.6,4.9-5.1,7.7
	c-1.3,2.6-1.9,5.2-2.7,10.6c-0.2,1.1-0.3,2.1-0.5,3.2h-1l0.5-3.3c0.8-5.5,1.4-8.2,2.8-10.9c1.5-2.8,3.2-5.4,5.2-7.8
	c1.7-2.1,3.6-4.4,6-7c1.4-1.6,6.2-6.7,7-7.5c1.8-1.8,3.4-3.7,4.8-5.8c0,0,1.5-2.3,1.9-2.8c3.2-4.5,7.1-3.4,21.8,6.7
	c17.7,12.1,16.6,11.4,22.2,14.5c10.3,5.7,19.5,8.4,30.5,8.4c20.6,0,39.6-10.8,45.5-25.7c1.5-3.9,2.9-7.8,4.2-11.8
	c0.6-1.9,1.3-3.7,1.9-5.6c4.8-14.2,8.5-22.1,14-28.7c3-3.7,6.6-9.6,10.6-17.6c2-3.9,4-8.3,6.4-13.4c1-2.3,10.9-24.6,13-28.9
	c1.9-3.8,2.8-7.8,4-16.2c1.2-8.4,1.7-11.1,2.8-15.3c2.8-10.7,7.7-18.9,16.3-25.6c4.1-3.3,8.6-6.1,13.3-8.4c1.7-0.8,3.3-1.5,5.1-2.2
	c0.9-0.4,3.9-1.4,4.3-1.6c5-1.9,7.4-3.5,10.1-7.3c1.4-1.9,2.7-4.3,4.1-7.4c3-6.6,3.4-10.6,2.7-16.9c-0.2-1.5-0.3-3-0.3-4.6
	c0.2-4.9,3.2-9.2,11.7-15.7c9.3-7.1,11.7-13.3,8.6-19c-2.2-4.1-6.2-7.1-13.5-11.2c-1.6-0.9-3.6-1.3-6.4-1.6c-0.8-0.1-1.3-0.1-3-0.2
	c-5.8-0.3-7.6-0.9-7.7-3.3c-0.1-2.8,3.5-7.9,12-16.7c6.5-6.8,11.8-11.7,16.3-15.5c1.8-1.5,3.4-2.7,5.2-4l4.1-2.9
	c0.8-0.6,1.5-1.1,2.1-1.6c3.3-2.6,6.2-5.6,10.2-10.9c0.8-1.1,1.7-2.2,2.5-3.3L425,74c1.8-2.4,3-4,4.3-5.5c8.5-10.2,17-14,37.3-15.3
	c-0.4,0,12-0.9,14.3-1c3.6-0.1,6,0.2,8.5,1c0.8,0.3,1.6,0.6,2.5,1c2.3,1.1,3.2,3.9,4.3,10.9l0.4,2.8c0.2,1.1,0.3,2,0.5,2.8
	c1.4,7.7,3.6,12.3,7.8,14.6c6.8,3.7,10.6,5.1,14,4.9c4-0.2,7-3.2,9.3-9.7c1.5-4,1.5-6.5,0.3-7.9c-0.9-1.1-2.3-1.6-5.6-2.3
	c-0.9-0.2-1.8-0.3-2.7-0.6c-2.5-0.6-4.4-1.4-5.9-2.7c-1.6-1.4-3.2-2.7-4.8-4c-1.4-1.2-2.8-2.4-4.1-3.6c-2.7-2.6-3.9-4.4-3.3-5.9
	c1-2.6,7.8-3.5,18.9-3.4c5.6,0.1,11.2,0.4,16.7,0.9c2.8,0.4,3.2,0.5,3.7,0.6c1.4,0.3,3,0.6,4.6,0.9c4.8,0.9,9.7,1.3,14.6,1.3
	c5.6,0,10.2-0.9,13.7-2.6c8.1-4.1,15.9-6.9,22.2-7.6c0.7-0.1,1.4-0.1,2-0.1L598.9,44.8L598.9,44.8z M598.9-56.2v1.5
	c-8.6,16.1-17.3,29.6-23.7,35.9c-3.2,3.2-7.6,4.9-13.5,5.6c-4.5,0.5-8.3,0.4-19.2-0.2c-9.9-0.6-15.3-0.4-20.5,0.8
	c-4.9,1.2-9.9,1.9-15,2.1l-2.2,0.1c-12.5,0.8-19.4,1.8-32.7,5.7c-4.5,1.3-9.3,2.5-14.3,3.5c-10.8,2-21.7,3.4-32.6,4
	C417.6,3.2,412,3.4,405,3.4c-5.4,0-11.9,1.6-18,5.2c-8.3,4.9-15.1,12.9-19.5,24.5c-1.3,3.4-2.8,6.7-4.6,9.8
	c-3.6,6.2-6.9,9-13.4,12.2l-4,2c-5.5,2.7-10.6,6.1-15.2,10.2c-8.2,7.3-13.7,16.6-22.5,35.6l-2.1,4.5c-7.3,15.7-11.5,23.3-17.4,29.9
	c-7.7,8.7-20.2,14.4-40.3,20.1c-4.4,1.2-19,5.1-19.2,5.1c-6.9,1.9-11.7,3.3-15.6,4.9c-10.6,4.2-18.7,10.5-36.4,26.5l-1.7,1.5
	c-8.6,7.8-13.4,11.9-18.8,15.9c-3.9,2.9-8,5.7-13,8.9c-2.1,1.3-10.3,6.6-12.3,7.9c-11.5,7.5-18.5,13-24.6,20.1
	c-2.4,2.8-4.6,5.7-6.4,8.9c-4.1,6.9-6.3,13.1-9.2,25.1l-1.5,6.3c-0.6,2.5-1.2,4.5-1.7,6.6c-3,10.7-6.9,17.4-14.8,26.9l-4.1,5
	c-1.4,1.7-2.8,3.5-4.2,5.3c-1.5,1.9-2.6,4-3.4,6.3c-1.2,3.2-1.5,5.9-1.9,11.9c-0.6,10-1.4,15-4.6,22.7c-1.6,3.7-5.7,14-6.4,15.8
	c-1.1,2.5-2.2,5-3.6,7.4c-2.9,5.1-6.7,10.1-13.1,17c-6,6.4-8.9,10.9-10.6,16c-0.5,1.6-1,3.2-1.4,4.8L19,436h-1l0.5-2.1
	c0.5-2.1,0.9-3.5,1.4-4.9c1.8-5.2,4.8-9.9,10.8-16.4c6.4-6.8,10.1-11.7,13-16.8c1.3-2.4,2.5-4.8,3.5-7.3c0.8-1.8,4.8-12.1,6.4-15.8
	c3.2-7.5,4-12.4,4.6-22.3c0.3-6.1,0.7-8.9,1.9-12.2c0.9-2.3,2.1-4.6,3.6-6.5c1.3-1.7,2.6-3.4,4.2-5.3l4.1-5
	c7.8-9.5,11.7-16,14.6-26.5c0.6-2,1.1-4.1,1.7-6.6l1.5-6.3c3-12,5.1-18.4,9.3-25.4c1.8-3.1,4-6,6.5-9c6.2-7.1,13.2-12.7,24.8-20.3
	c2.1-1.3,10.3-6.6,12.3-7.9c5-3.2,9-6,12.9-8.9c5.4-4,10.2-8.1,18.7-15.8l1.7-1.5c17.8-16.1,26-22.4,36.7-26.7c4-1.6,8.8-3.1,15.8-5
	c0.2-0.1,14.9-3.9,19.2-5.1c19.9-5.6,32.3-11.3,39.8-19.8c5.8-6.5,9.9-14,17.2-29.6l2.1-4.5c8.9-19.1,14.4-28.5,22.8-35.9
	c4.6-4.2,9.8-7.7,15.4-10.4l4-2c6.3-3.1,9.5-5.8,13-11.8c1.7-3.1,3.2-6.3,4.5-9.7c4.6-11.8,11.5-20,20-25c6.2-3.7,12.9-5.3,18.5-5.3
	c7,0,12.6-0.1,20.2-0.6c10.9-0.6,21.7-1.9,32.5-4c5-1,9.8-2.1,14.2-3.4c13.4-4,20.4-5,32.9-5.8l2.2-0.1c5.8-0.4,9.8-0.9,14.8-2.1
	c5.3-1.2,10.8-1.4,22.6-0.7c9,0.5,12.8,0.6,17.2,0.1c5.7-0.6,9.9-2.3,13-5.3C581-25.9,589.9-39.8,598.9-56.2L598.9-56.2z M598.9,394
	c-1.3-4.6-2.2-10.5-3.3-20.2l-0.2-2l-0.2-2c-1.8-15.7-3.1-22-5.5-24.5c-2.5-2.5-3-5-2.5-8.6c0.1-0.6,0.2-1.1,0.4-2.1
	c0.7-3.5,0.8-5,0.1-6.8c-0.9-2.4-3.3-4.4-7.8-6.3c-5.1-2.1-6.5-4.8-4.9-8.4c0.7-1.5,1.8-3,3.5-5c1-1.2,5.5-6,5.1-5.5
	c6.2-6.7,9-11.3,9-16.5c-0.1-5.1,2.3-10,6.5-12.9v1.3c-3.6,2.8-5.6,7.1-5.5,11.6c0,5.5-2.9,10.3-9.2,17.2c0.4-0.4-4,4.3-5.1,5.5
	c-1.7,1.9-2.8,3.4-3.4,4.8c-1.4,3-0.2,5.2,4.4,7.1c4.7,2,7.3,4.2,8.3,6.8c0.8,2,0.7,3.7,0,7.4c-0.2,1-0.3,1.5-0.4,2.1
	c-0.5,3.3,0,5.6,2.2,7.8c2.7,2.7,4,9,5.8,25.1l0.2,2l0.2,2c0.8,7,1.5,12.1,2.3,16L598.9,394L598.9,394z M598.9,331.9
	c-1.4-3.1-4.4-9.9-5-11.2c-1-2.5-1.2-3.8-0.9-5.2c0.2-0.8,2-4.7,2.3-5.3c1.5-3.6,2.7-7.4,3.5-11.2v4c-0.7,2.6-1.6,5.1-2.6,7.6
	c-0.3,0.8-2.1,4.5-2.3,5.2c-0.3,1.1-0.1,2.2,0.9,4.6c0.4,1,2.5,5.7,4,9.1L598.9,331.9L598.9,331.9z M598.9,246.8
	c-1.7,1.7-3.7,2.9-6.4,4.1c-0.2,0.1-14,5.5-20.4,8.4c-9.3,4.3-16.7,5.9-23,5.2c-5.1-0.5-9-2.2-14.8-5.9l-3.2-2.1
	c-1.8-1.2-3.6-2.3-5.4-3.3c-4-2.2-3.2-5.8,1.5-10.5c3.7-3.7,9.6-7.9,18.7-13.8l4.5-2.8c18-11.3,18.2-11.5,22.3-14.7
	c11.2-9,19.7-14,26.3-15.1v1c-6.4,1.1-14.6,6-25.7,14.9c-4.1,3.3-4.3,3.4-22.4,14.8c-1.5,0.9-3,1.9-4.5,2.8
	c-9.1,5.8-14.9,10-18.6,13.7c-4.3,4.3-5,7.1-1.7,8.9c1.7,0.9,3.3,1.9,5.5,3.3l3.2,2.1c5.6,3.6,9.5,5.2,14.3,5.8
	c6.1,0.6,13.3-0.9,22.5-5.1c6.5-3,20.2-8.4,20.4-8.4c3-1.4,5.1-2.7,6.8-4.7L598.9,246.8L598.9,246.8z M598.9,205.4v1
	c-6.6,0.3-12.1,3.1-19.7,9.1l-4.6,3.7c-1.4,1.1-2.9,2.2-4.4,3.1c-0.8,0.5-5.5,3.3-6.2,3.8c-3.3,2-6.2,3.8-8.9,5.6
	c-2.8,1.9-5.5,3.8-8.2,5.9c-4.6,3.7-7.4,6.9-8,9.4c-0.6,2.7,1.5,4.5,7,5.5c10.7,1.8,20.9,0,30.5-4.6c6.4-3.1,12.1-7.2,17.1-12.2
	c2.1-2.3,3.9-4.8,5.4-7.4v1.9c-1.3,2.2-2.9,4.3-4.6,6.2c-5,5.1-10.9,9.3-17.4,12.4c-9.7,4.7-20.1,6.5-31,4.7c-6.1-1-8.7-3.3-7.8-6.7
	c0.6-2.7,3.5-6,8.3-9.9c2.3-1.9,5.1-3.9,8.2-6c2.7-1.8,5.6-3.6,8.9-5.6c0.7-0.4,5.4-3.2,6.2-3.8c1.3-0.8,2.6-1.8,4.3-3.1
	c0.8-0.6,3.9-3.1,4.6-3.7C586.3,208.6,592.1,205.7,598.9,205.4L598.9,205.4z M598.9,50.8v1c-1.8-0.2-4.3,0.2-7.8,1.6
	c-10,3.8-13.8,5.1-19.2,6.8c-1.8,0.6-2.6,0.8-3.9,1.2c-1.5,0.5-3.2,0.8-6.7,1.2c-0.9,0.1-1.8,0.2-2.6,0.3
	c-7.8,0.9-11.3,2.5-11.3,6.1c0,4.4,2.9,13.2,8,25.8c1,2.5,1.7,5,2.3,7.6c0.3,1.2,0.6,2.3,0.8,3.5c1.9,7.6,3.2,10.7,5.6,11.7
	c2.2,0.9,4.7,0.6,7.5-0.7c3.5-1.7,7.2-4.9,11.2-9.5c1.5-1.7,3-3.5,4.6-5.6l3.2-4.1c2.6-3.2,6.1-12.2,8.4-20.2v3.4
	c-2.3,7.2-5.3,14.5-7.6,17.4c-0.4,0.5-2.7,3.5-3.2,4.1c-1.6,2.1-3.1,3.9-4.6,5.6c-4.1,4.6-7.9,7.9-11.5,9.7c-3,1.4-5.8,1.8-8.3,0.7
	c-2.8-1.1-4.2-4.3-6.2-12.4c-0.3-1.2-0.6-2.3-0.8-3.5c-0.8-3.2-1.5-5.5-2.3-7.5c-5.1-12.8-8-21.6-8-26.2c0-4.4,3.8-6.1,12.2-7.1
	c0.9-0.1,1.8-0.2,2.7-0.3c3.5-0.4,5.2-0.6,6.5-1.1c1.3-0.4,2.1-0.7,3.9-1.3c5.3-1.7,9.1-3,19.1-6.7
	C594.2,51.1,596.9,50.6,598.9,50.8L598.9,50.8z M-1.1,127.9C9,116.6,17,104.7,22,92.5c3.3-8.1,6.1-16.1,10.8-30.6l1.6-4.8
	c6.5-19.9,10.1-29.8,14.8-39.6C55.3,4.8,61.7-3.7,69.5-8c6.7-3.8,10.2-7.9,12.2-13.1c0.8-2.1,1.4-4.3,1.9-6.6
	c1.2-5.2,2.1-7.6,3.9-10.4c2.4-3.6,6.3-6.5,12.1-9c15.8-6.6,16.7-7,18-9c0.7-1,0.8-2.2,0.7-4.5c0-0.7-0.2-3.8-0.2-4
	c-0.1-1.8-0.2-3.7-0.2-5.5c0-10,0.2-11.4,2.4-13.2c0.5-0.4,1.1-0.8,2.1-1.3c0.3-0.1,2.2-1.1,2.8-1.5c3.2-1.7,6.2-3.7,9.1-5.9
	c2.1-1.5,2.6-2.1,8-7.9c3.8-4.1,6.2-6.4,9-8.1c3.6-2.3,7.2-3.1,10.9-2.1c4.4,1.2,10.8,2,18.8,2.5c6.9,0.4,12.9,0.5,21.9,0.5
	c4.9,0,9,0.5,15.4,1.6c7.8,1.3,9.3,1.5,12.4,1.5c4.1,0,7.4-0.9,10.7-3c5.1-3.2,8.1-4.7,11.2-5.2c3.6-0.6,4.8-0.5,16.6,2.1
	c17.3,3.7,30.9,1.4,41.1-9.7c5.1-5.5,5.5-8.9,3.5-14.8c-0.8-2.4-1-3.1-1.2-4.3c-0.3-2.5,0.5-4.7,2.7-6.9c2.6-2.6,4.7-9.2,6.2-18.3h2
	c-1.6,9.7-3.8,16.6-6.8,19.7c-1.8,1.8-2.4,3.4-2.1,5.3c0.1,1,0.3,1.6,1.1,3.9c2.2,6.5,1.8,10.7-3.9,16.8
	c-10.8,11.7-25.1,14.1-43,10.3c-11.4-2.5-12.5-2.6-15.8-2.1c-2.8,0.5-5.6,1.8-10.5,4.9c-3.5,2.2-7.6,3.4-11.8,3.3
	c-3.2,0-4.8-0.2-12.7-1.6c-6.3-1.1-10.3-1.5-15-1.5c-9.1,0-15.1-0.1-22.1-0.5c-8.1-0.5-14.6-1.3-19.2-2.5
	c-5.6-1.5-10.2,1.4-17.9,9.7c-5.5,5.9-6.1,6.5-8.3,8.2c-3,2.3-6.1,4.3-9.4,6c-0.7,0.4-2.6,1.3-2.8,1.5c-0.8,0.4-1.3,0.8-1.8,1.1
	c-1.5,1.2-1.6,2.4-1.6,11.6c0,1.8,0.1,3.5,0.2,5.4c0,0.2,0.2,3.3,0.2,4c0.1,2.8-0.1,4.3-1.1,5.7c-1.7,2.5-2.3,2.8-19,9.7
	c-5.5,2.3-9,5-11.2,8.2c-1.7,2.5-2.5,4.7-3.6,9.7c-0.8,3.5-1.2,4.9-1.9,6.8c-2.2,5.7-6.1,10.2-13.1,14.2C63.1-2.2,56.9,6,50.9,18.4
	c-4.6,9.6-8.2,19.5-14.7,39.3l-1.6,4.8C29.8,77,27.1,85,23.7,93.2c-5.2,13.1-13.8,25.7-24.8,37.7V127.9L-1.1,127.9z M-1.1,205.9
	v-0.5h1c6.3,0,7.5,5.2,4.6,13.4c-1.5,4-3.3,7.7-5.6,11.3v-1.9c1.8-3.1,3.4-6.3,4.7-9.7c2.7-7.6,1.7-12-3.7-12c-0.3,0-0.7,0-1,0
	v-46.6c4.6-2.7,9.2-5.5,13.7-8.3C26.3,142.1,42.4,114,42.4,98c0-18.1,21.6-72.6,32.2-79.4c12.7-8.1,32.2-28,35.8-37.8
	c1.9-5.3,5.5-7.3,14.4-9.4c6.1-1.4,8.6-2.4,10.7-4.8c1.5-1.7,2.7-4.8,4.3-10.3c0.2-0.8,1.9-6.7,2.4-8.5c3.6-12.1,7.3-18.5,13.5-20.4
	c2.5-0.8,3-1,9.7-3.7c7.5-3,12-4.4,17.1-4.9c6.8-0.7,13.1,0.8,19.6,4.7c5.4,3.3,12.2,4.7,20.2,4.6c6-0.1,12.2-1.1,19.8-2.8
	c1.8-0.4,7.4-1.7,8.3-1.9c2.7-0.6,4.3-0.9,5.5-0.9c5,0,8.9-0.1,14.2-0.3c7.9-0.3,15.6-0.9,22.8-1.9c8.5-1.1,15.9-2.7,21.9-4.8
	c18.9-6.6,32.6-18.3,33.7-27.6c0.3-2.6,0.4-3,2.8-11.1c2.3-8,3.2-12.9,2.7-18.2c-0.2-2.2-0.7-4.4-1.5-6.4c-1.5-3.9-2.6-9.4-3.4-16.2
	h0.9c0.8,6.5,1.9,11.7,3.5,15.8c0.8,2.1,1.3,4.4,1.5,6.7c0.5,5.5-0.4,10.5-2.8,18.6s-2.5,8.5-2.7,11c-1.1,9.8-15.1,21.7-34.3,28.4
	c-6.1,2.1-13.5,3.7-22.1,4.9c-7.2,1-14.9,1.6-22.8,1.9c-5.3,0.2-9.3,0.3-14.2,0.3c-1,0-2.6,0.3-5.3,0.9c-0.9,0.2-6.4,1.5-8.3,1.9
	c-7.7,1.7-13.9,2.7-20,2.8c-8.1,0.2-15.1-1.3-20.7-4.7c-6.2-3.8-12.4-5.2-18.9-4.5c-5,0.5-9.4,1.9-16.8,4.9
	c-6.8,2.7-7.3,2.9-9.8,3.7c-5.7,1.8-9.3,8-12.8,19.7c-0.5,1.8-2.2,7.7-2.4,8.5c-1.7,5.7-2.9,8.8-4.5,10.7c-2.2,2.6-4.8,3.6-12,5.3
	c-7.8,1.8-11.1,3.7-12.9,8.5c-3.7,10-23.3,30.1-36.2,38.2c-10.7,6.4-32.1,60.6-32.1,78.4c0,16.3-16.3,44.8-30.2,54.4
	c-2.1,1.5-8.2,5.1-14.3,8.7v-1.2L-1.1,205.9L-1.1,205.9z M-1.1,32.2v-1.1c7.4-3.8,14.6-10.2,21.8-19C24.5,7.5,34.9-6.7,36.5-8.5
	c1.8-2,4.1-4,7.4-6.4c1.1-0.8,4.9-3.6,5.5-4c9.4-6.9,14-12,16-19.4c0.8-3,1.5-6.8,2.5-12.3c0.2-1.4,2-12.5,2.6-15.8
	c2.8-16.7,5.7-26.7,10-32c10.8-13.2,19.9-27.5,19.9-32.7c0-2.5,0.3-3.4,6.1-15.7c0.7-1.5,1.2-2.7,1.8-3.9c2.5-5.8,3.9-10,4.1-13.4h1
	c-0.2,3.5-1.7,7.9-4.2,13.8c-0.5,1.2-1.1,2.4-1.8,3.9c-5.5,12-5.9,13-5.9,15.3c0,5.5-9.1,19.8-20.1,33.3c-4.2,5.1-7,15.1-9.9,31.6
	c-0.6,3.3-2.3,14.3-2.6,15.8C68-44.8,67.2-41,66.4-38c-2.1,7.7-6.8,12.9-16.3,19.9l-5.5,4c-3.3,2.4-5.5,4.3-7.3,6.3
	C35.8-6.1,25.4,8.1,21.5,12.7C14,21.8,6.6,28.4-1.1,32.2L-1.1,32.2z M-1.1,394v-4.3c0.5,2.4,1,4.3,1.6,6.2c2,6,4.6,8.3,8.2,6.6
	c19-8.9,33.7-24.1,33.7-39.5c0-16.2,6.4-32,17.1-46.3c1.9-2.5,3.7-4.4,5.5-6c0.7-0.6,1.4-1.2,2.3-1.8l2-1.4
	c3.7-2.7,5.3-5.3,7.1-12.6c0.8-3.1,1.4-5,4.2-13.3l0.6-1.9c3.2-9.6,4.6-15,4.2-18.6c-0.5-4.4-3.8-5.2-11.3-1.6c-3,1.4-6,2.7-9.2,3.7
	c-13.9,4.7-27,5.8-42.7,5.4h-2h-1.5c-5.2,0-10.3,1-15.1,3c-1.8,0.7-3.4,1.7-4.9,2.9v-1.3c1.4-1,2.9-1.9,4.6-2.6
	c5.4-2.2,11.1-3.2,16.9-3h2c15.6,0.4,28.6-0.8,42.3-5.4c3.1-1,6.1-2.3,9-3.6c8-3.8,12.2-2.9,12.7,2.4c0.4,3.9-0.9,9.3-4.2,19.1
	l-0.6,1.9c-2.8,8.2-3.4,10.1-4.2,13.2c-1.8,7.5-3.6,10.3-7.5,13.2l-2,1.4c-0.8,0.6-1.5,1.1-2.2,1.8c-2,1.7-3.8,3.7-5.4,5.8
	c-10.4,13.9-16.7,29.5-16.7,45.5c0,15.9-15,31.5-34.3,40.5c-4.3,2-7.4-0.7-9.6-7.2C-0.7,395.5-0.9,394.8-1.1,394L-1.1,394z
	 M-1.1,331.9v-2.5l1.5,3.3c2.1,4.8,3.5,10.3,4.3,16.8c0.7,5.3,0.8,9.3,1,18.5c0.2,9.3,0.5,12.8,1.6,15c1.3,2.6,3.7,2.3,8.3-1.5
	c17.1-14.3,21.8-22.9,21.8-38.6c0-7.2,1.1-12.4,3.7-17.7c2.3-4.7,3.7-6.6,13.4-19.6c2.3-3.1,4.8-6.1,7.6-8.8
	c1.1-1.1,2.3-2.1,3.5-3.1c0.4-0.3,0.6-0.5,0.9-0.7c1.1-0.9,2-2,2.6-3.3c0.9-1.9,1.7-3.9,2.3-5.9l0.4-1.2l0.4-1.1
	c0.3-0.9,0.5-1.5,0.7-2.2c0.4-1.5,0.7-2.7,0.9-3.7c0.4-2.2,0.1-3.5-0.8-4.1c-2.3-1.6-9.3-0.2-23.8,4.9c-9.5,3.4-16.1,4.2-27.9,4.3
	c-7.7,0.1-10.4,0.4-13.2,2.1c-3.5,2.1-5.8,6.4-7.6,14.3c-0.5,2.2-1,4.2-1.5,6v-4l0.5-2.2c1.8-8.1,4.3-12.6,8-14.9
	c3-1.9,5.9-2.2,13.8-2.3c11.6-0.1,18.1-0.8,27.5-4.2c14.9-5.3,22-6.7,24.7-4.8c1.4,0.9,1.7,2.6,1.3,5.1c-0.2,1.3-0.6,2.5-0.9,3.8
	l-0.7,2.2l-0.4,1.1l-0.4,1.2c-0.6,2.1-1.4,4.1-2.3,6.1c-0.8,1.5-1.6,2.5-2.9,3.6l-0.9,0.8l-1,0.8c-0.9,0.7-1.7,1.4-2.5,2.2
	c-2.7,2.7-5.2,5.6-7.5,8.7c-9.7,12.9-11.1,14.9-13.3,19.5c-2.5,5.1-3.6,10.2-3.6,17.2c0,16-4.8,24.9-22.2,39.4
	c-5,4.2-8.2,4.5-9.8,1.2c-1.2-2.5-1.5-5.9-1.7-15.5c-0.2-9.2-0.4-13.2-1-18.4c-0.8-6.3-2.1-11.8-4.2-16.5L-1.1,331.9L-1.1,331.9z
	 M378.2-164.1h1l1.5,5.3c3.3,11.6,4.9,19.3,5.3,27.8c0.5,11-1.5,21.3-6.6,31.2c-7.8,15.1-20.5,26.5-36.2,34.1
	c-12.4,6-26.1,9.2-36.2,9.2c-6.8,0-17.2,1.4-37.3,4.6l-2.3,0.4c-24.5,4-31.6,5-37.5,5c-3.5,0-4.1-0.1-19.5-2.8
	c-3.6-0.6-6.3-1.1-9-1.5c-20.2-3-31-1.2-32,7.9c-0.1,0.8-0.2,1.7-0.3,2.8l-0.3,2.7c-1.1,10.9-2,15.7-4.3,20
	c-2.9,5.3-7.8,7.9-15.6,7.9c-10.2,0-12.9,0.6-15.5,3.2c0.5-0.5-5,5.9-8.2,8.7c-2.8,2.5-14.3,12.6-15.8,13.8
	c-2.2,1.9-4.4,3.9-6.5,5.9c-7,6.5-11.8,11.8-14.6,16.1c-5.9,9.3-10.5,18-11.7,24.1c-1.7,8.3,3.7,9.5,19,1.2
	c14.6-7.9,29.4-15.2,44.5-21.9c3.5-1.6,14-6.2,15.7-6.9c5.1-2.2,8.3-3.8,10.8-5.1l1.9-1.1l2.2-1.2c1.8-0.9,3.4-1.8,5-2.6
	c18.1-8.7,34.5-10.5,50.3-1.2c22.9,13.3,38.3,37,38.3,56.4c0,19.1-0.7,25.1-5.2,33.2c-1.4,2.5-3.1,4.9-4.9,7.1
	c-6.5,7.8-11.8,16.2-12.8,21.3c-1.2,6.3,4.7,7,20.2,0c13.3-6.1,22.4-15,28.5-26.3c2.5-4.8,4.6-9.9,6.1-15.1c0.9-3,3.2-11.6,3.4-12.5
	c0.4-1.7,1-3.3,1.8-4.8c7.5-14.9,21.1-30.5,36.2-37.2c7.6-3.4,13-9.6,19.4-20.8c0.8-1.5,4.3-7.6,5.1-9.2c3.5-6.1,6.2-9.7,9.4-12
	c10.1-7.4,28.7-11.1,50.3-11.1c7.5,0,16.5-1.2,27.5-3.6c5-1.1,10-2.3,15-3.5c-1.3,0.3,15.5-4,19.4-4.9c14.1-3.3,41.1-5,64.1-5
	c17.4,0,27.8-9.2,38.5-38.7c6.6-18.2,6.6-26.4,2.7-34.3l-1.2-2.4c-1-1.9-1.5-4-1.5-6.1c0-4,0-4,2.5-24.6c0.5-3.7,0.8-6.7,1.1-9.6
	c0.9-8.4,1.4-15.2,1.4-20.8c0-0.9,0-1.9,0-3h1c0,1.1,0,2.1,0,3c0,5.6-0.5,12.4-1.4,20.9c-0.3,2.9-0.7,5.9-1.1,9.7
	c-2.4,20.3-2.4,20.3-2.4,24.3c0,2,0.5,3.6,1.5,5.7c0.2,0.5,1.2,2.3,1.2,2.4c4.1,8.2,4.1,16.7-2.7,35.1
	c-10.8,29.8-21.6,39.3-39.5,39.3c-23,0-49.8,1.7-63.9,5c-3.9,0.9-20.7,5.2-19.4,4.9c-5,1.3-10,2.4-15,3.5c-11,2.4-20.1,3.6-27.7,3.6
	c-21.4,0-39.8,3.7-49.7,10.9c-3,2.2-5.6,5.7-9.1,11.7c-0.9,1.5-4.3,7.7-5.1,9.2c-6.5,11.3-12,17.7-19.9,21.2
	c-14.9,6.6-28.4,22-35.8,36.8c-0.7,1.5-1.3,3.1-1.7,4.7c-0.2,0.8-2.5,9.5-3.4,12.5c-1.5,5.3-3.6,10.4-6.2,15.3
	c-6.2,11.6-15.4,20.6-29,26.8c-16.1,7.4-23,6.5-21.6-1c1-5.3,6.4-13.8,13-21.7c1.8-2.2,3.4-4.5,4.8-7c4.4-7.9,5.1-13.8,5.1-32.7
	c0-19-15.2-42.4-37.7-55.6c-15.6-9.1-31.6-7.4-49.4,1.2c-2.4,1.2-4.8,2.4-7.1,3.7l-1.9,1.1c-3.5,1.9-7.2,3.6-10.9,5.2
	c-1.6,0.7-12.2,5.4-15.7,6.9c-15.1,6.7-29.9,14-44.5,21.9c-15.9,8.7-22.4,7.2-20.5-2.3c1.2-6.2,5.8-15,11.8-24.4
	c2.8-4.5,7.7-9.8,14.8-16.3c2-1.9,4.1-3.8,6.6-5.9c1.5-1.3,13-11.3,15.8-13.8c3.1-2.8,8.6-9.1,8.1-8.7c2.8-2.8,5.8-3.5,16.2-3.5
	c7.5,0,12-2.4,14.8-7.4c2.2-4.1,3.1-8.8,4.2-19.6l0.3-2.7l0.3-2.8c0.6-5.4,4.5-8.5,11.2-9.6c5.4-0.9,12.5-0.5,21.9,0.9
	c2.7,0.4,5.5,0.9,9,1.5c15.3,2.7,16,2.8,19.4,2.8c5.7,0,12.9-1,37.3-5l2.3-0.4c20.1-3.3,30.5-4.6,37.4-4.6c10,0,23.5-3.2,35.8-9.1
	c15.6-7.5,28.1-18.7,35.8-33.7c5-9.8,7-19.8,6.5-30.7c-0.4-8.4-2-16.1-5.2-27.6L378.2-164.1z M391.8-164.1h1
	c0.8,3.9,1.9,8.7,3.5,14.9c3.6,14.1,3.1,27-0.8,38.8c-2.4,7.6-6.3,14.6-11.4,20.7c-5.8,6.9-12.3,13.2-19.3,18.8
	c-11.3,9-23.4,15.5-36,18.4c-7.5,1.7-15,3-22.6,4.1c-3.2,0.4-6.4,0.8-10.3,1.3l-9.4,1.1c-11.5,1.4-17.5,2.6-21.6,4.5
	c-9.3,4.2-28.4,6-49.2,6c-1.4,0-2.8-0.1-4.3-0.4c-2.6-0.4-5-1-9.1-2.3c-7.3-2.2-9.6-2.8-12.6-2.6c-3.9,0.2-6.6,2.3-8.5,6.9
	c-1.9,4.7-2.4,7.5-3.3,15c-1.1,9-2.9,12.1-10,14.3c-2.3,0.7-4.6,1.6-6.8,2.7c-0.6,0.3-1.2,0.6-1.8,1L158,0c-1.9,1.1-3.9,1.5-9.2,1.5
	c-3.2,0-8.8-0.6-9.5-0.4c-1.2,0.3-0.8-0.1-7.1,6.2c-1.5,1.5-3.5,3.2-6.3,5.4c-1.5,1.2-7.2,5.4-7.9,6c-5,3.8-8.3,6.6-11.1,9.4
	c-4.9,5-6.8,9.1-5.6,12.7c1.3,3.7,4.1,4.4,8.9,2.8c2.7-1,5.3-2.1,7.8-3.5c1.5-0.8,7.8-4.1,9.4-5c4-2.1,8.1-4,12.3-5.7
	c3.7-1.5,7.4-3.1,11-4.8c2-1,10.7-5.2,13-6.2c4.4-2.1,8.1-3.8,11.6-5.3c17.1-7.3,29.3-9.9,37.7-6.6l5.4,2.1c2.3,0.9,4.2,1.6,6,2.4
	c4.4,1.8,8.8,3.8,13.1,6c18.3,9.6,30.4,22.1,34.8,39.9c7,27.9,3.6,45.5-8.1,62.4c-4,5.8-3.5,9.2,0.1,9c4.1-0.3,10.2-5,15.1-12.5
	c3.1-4.8,5.1-10.5,8-21.5l1.7-6.4c0.7-2.5,1.2-4.5,1.8-6.5c4.9-16.6,11-27.3,21.6-34.8c7.1-5.1,23.7-15.5,25.5-16.8
	c6.7-4.8,10.5-9.4,14.3-18c7.7-17.4,21.1-24.3,44.5-24.3c9.4,0,17.9-1.1,29.5-3.5c2.1-0.4,4.1-0.8,6.2-1.3c2.4-0.5,4.1-0.8,5.7-1.1
	c4-0.7,7-1.1,9.6-1.1c4.4,0,9.4-1,31.4-6l3-0.7c16.3-3.7,25.6-5.4,31.7-5.4c1.5,0,2.4,0,6.4,0.1c7.8,0.1,12.3,0.1,17.3-0.2
	c16.4-1.1,26.7-5.4,29.8-14.6c1-3,2.2-6,3.5-8.8c-0.2,0.3,2.3-5,2.9-6.4c5.4-12.3,5.6-21.9-1.4-39.4c-2.6-6.7-4.4-13.6-5.3-20.7
	c-1.6-12-1.4-23.1,0.1-40.3l0.2-2.1h1l-0.2,2.2c-1.5,17.1-1.7,28.2-0.1,40.1c0.9,7,2.6,13.9,5.2,20.5c7.1,17.8,6.9,27.7,1.4,40.2
	c-0.6,1.4-3.1,6.7-2.9,6.4c-1.3,2.8-2.5,5.8-3.5,8.7c-3.2,9.7-13.9,14.1-30.7,15.2c-5.1,0.3-9.6,0.4-17.4,0.2
	c-4-0.1-4.8-0.1-6.4-0.1c-5.9,0-15.2,1.7-31.4,5.3l-3,0.7c-22.2,5-27,6-31.6,6c-2.5,0-5.5,0.4-9.4,1.1c-1.6,0.3-3.2,0.6-5.6,1.1
	c-2.1,0.4-4.1,0.9-6.2,1.3c-11.7,2.4-20.3,3.5-29.7,3.5c-23,0-36,6.7-43.5,23.7c-3.9,8.8-7.8,13.6-14.7,18.5
	c-1.8,1.3-18.4,11.7-25.5,16.8c-10.3,7.3-16.3,17.9-21.2,34.2c-0.6,2-1.1,4-1.8,6.5l-1.7,6.4c-3,11.2-5,16.9-8.2,21.8
	c-5,7.8-11.4,12.7-15.9,13c-4.7,0.3-5.3-4.2-0.9-10.5c11.5-16.6,14.8-34,7.9-61.6C267,39.8,255.2,27.5,237.1,18c-4-2.1-8.2-4-13-6
	c-1.8-0.8-3.7-1.5-6-2.4l-5.4-2.1c-8-3.1-20-0.6-36.9,6.6c-3.5,1.5-7.2,3.2-11.6,5.3l-13,6.2c-4.7,2.2-8.2,3.8-11.1,4.9
	c-4.2,1.6-8.3,3.5-12.2,5.6c-1.6,0.8-7.9,4.2-9.4,5c-2.5,1.4-5.2,2.6-7.9,3.5c-5.3,1.8-8.6,0.9-10.2-3.4c-1.5-4,0.7-8.5,5.8-13.7
	c2.8-2.8,6.2-5.7,11.2-9.5c0.8-0.6,6.4-4.9,7.9-6c2.2-1.6,4.3-3.4,6.2-5.3c6.7-6.7,6.1-6.2,7.6-6.5c0.9-0.2,6.7,0.4,9.7,0.4
	c5.2,0,7-0.3,8.7-1.4l1.3-0.8c0.6-0.4,1.2-0.7,1.8-1.1c2.2-1.1,4.6-2,7-2.7c6.6-2,8.2-4.8,9.3-13.5c0.9-7.5,1.5-10.5,3.4-15.2
	c2-4.9,5-7.3,9.3-7.5c3.2-0.2,5.5,0.3,13,2.6c2.9,1,6,1.7,9,2.3c1.4,0.2,2.8,0.3,4.1,0.3c20.7,0,39.7-1.8,48.8-6
	c4.3-2,10.3-3.1,21.9-4.5l9.4-1.1c3.9-0.5,7.1-0.9,10.3-1.3c8.2-1.1,15.4-2.4,22.5-4.1c12.4-2.9,24.3-9.3,35.5-18.2
	c7-5.6,13.4-11.8,19.2-18.6c5-6,8.8-12.9,11.1-20.3c3.8-11.6,4.3-24.4,0.8-38.2C394.1-154,392.9-159,391.8-164.1L391.8-164.1z
	 M505.6-164.1h1.3c-0.5,0.7-0.9,1.2-1.2,1.5c-4,5-6.9,7.9-9.8,9.6c-1.5,0.9-3.2,1.4-5,1.4c-2.4,0-4.2,0.7-6.7,2.2l-2.6,1.7
	c-4.4,2.8-8,4.1-13.6,4.1s-10-1.3-16.1-4c-0.8-0.3-1.5-0.7-2.3-1.1l-2.2-1c-1.6-0.7-2.9-1.2-4.2-1.5c-1.1-0.3-2.2-0.4-3.3-0.4
	c-2.3,0-4.3-0.7-11-3.4l-1.6-0.6c-5-2-8.1-2.8-10.5-2.7c-2.9,0.2-4.4,2-4.4,6.1c0,20.8-5.2,50.4-12.1,57.3
	c-7.6,7.6-26.5,23.7-34.1,29.1C353-56.4,335-45.6,322.1-40.7c-4.3,1.6-8.8,3-13.3,4c-3.3,0.8-6.6,1.4-11.2,2.2
	c-0.5,0.1-8.8,1.5-11.5,2c-4.9,0.9-9.3,1.7-14,2.8c-20.6,4.5-25.1,5-38.1,5c-2.5,0-2.9-0.1-14.1-2c-2.4-0.4-4.3-0.7-6.1-1
	c-8.1-1.2-13.8-1.4-17.6-0.2c-4.5,1.4-5.9,4.6-3.7,10.5c2,5.3,4.8,8.6,8.8,10.7c3.3,1.7,6.8,2.6,13.8,3.7c9.4,1.5,10.9,1.8,15.5,2.9
	c6.5,1.6,12.8,4.1,18.6,7.4c8.3,4.6,14.6,11.5,20,20.9c2.7,4.7,9.5,19.3,10.5,21.2c3.4,5.9,6.3,6.6,10.9,2c5-4.9,10.4-8.4,21.1-14.1
	c0.5-0.2,2.1-1.1,2.1-1.1c8-4.2,11.9-6.5,15.9-9.5c5.1-3.9,8.7-8.1,10.8-13.1C349-6.6,361.3-19.7,373-19.7h5.5
	c10.5,0.1,17.4,0,24.9-0.3c13.7-0.6,23.8-2.1,29.4-4.7c5.9-2.7,13.4-5.5,24.2-9c3.5-1.1,6.3-2.1,12.7-4.1c7.7-2.4,11.1-3.5,15.2-4.9
	c3.8-1.3,7.5-2.5,11.3-3.7c3.7-1.2,6-2,8-2.8c2.3-0.8,4.5-1.8,6.7-2.9c1.9-1,3.8-2.1,5.9-3.5c3.5-2.3,6.2-3.1,12-4.1l1.2-0.2
	c5.7-1,9-2.3,12.8-5.6c7.8-7,8.6-23.2,3.8-44.5c-1.7-7.7-2.1-19.3-1.6-35.5c0.2-6.2,0.5-12.4,0.8-18.6h1l-0.2,3.1
	c-0.3,6.4-0.5,11-0.7,15.6c-0.5,16.1-0.1,27.7,1.6,35.2c4.8,21.7,4,38.2-4.2,45.5c-3.9,3.5-7.4,4.8-13.2,5.9l-1.2,0.2
	c-5.8,1-8.3,1.8-11.7,4c-1.9,1.3-3.9,2.5-6,3.6c-2.2,1.1-4.5,2.1-6.8,3c-2.1,0.8-4.4,1.6-8.1,2.8c-3.8,1.2-7.5,2.5-11.3,3.7
	c-4.1,1.4-7.5,2.5-15.2,4.9c-6.4,2-9.2,3-12.7,4.1c-10.7,3.5-18.3,6.3-24.1,9c-5.8,2.7-16,4.1-29.8,4.8c-7.6,0.3-14.4,0.4-25,0.3
	h-5.5c-11.2,0-23.2,12.8-31.5,32.7c-2.2,5.2-5.8,9.5-11.1,13.5c-4,3.1-8,5.4-16,9.6l-2.1,1.1c-10.7,5.6-16,9-20.9,13.9
	c-5.1,5.1-8.8,4.1-12.5-2.2c-1.1-1.9-7.9-16.5-10.5-21.2c-5.3-9.2-11.5-16-19.6-20.5c-5.8-3.2-12-5.7-18.4-7.3
	c-4.5-1.2-6-1.4-15.4-2.9c-7.2-1.1-10.7-2-14.1-3.8c-4.2-2.2-7.2-5.8-9.3-11.3c-2.4-6.4-0.8-10.3,4.3-11.8c4-1.2,9.8-1.1,18.1,0.2
	c1.8,0.3,3.7,0.6,6.2,1c11,1.9,11.5,2,13.9,2c13,0,17.4-0.5,37.9-5c4.7-1,9.2-1.9,14-2.8c2.7-0.5,11-1.9,11.5-2
	c4.6-0.8,8-1.5,11.2-2.2c4.5-1.1,8.8-2.3,13.2-4c12.8-4.8,30.8-15.6,43.9-24.9c7.5-5.3,26.4-21.4,33.9-28.9
	c6.6-6.7,11.8-36.2,11.8-56.6c0-4.6,1.9-6.9,5.4-7.2c2.6-0.2,5.8,0.7,11,2.7l1.6,0.6c6.5,2.6,8.5,3.3,10.6,3.3
	c1.1,0,2.3,0.2,3.5,0.5c1.3,0.3,2.7,0.8,4.3,1.5c1.1,0.5,2.2,1,3.3,1.5l1.1,0.5c6,2.7,10.2,3.9,15.7,3.9c5.4,0,8.9-1.2,13.1-3.9
	c0.2-0.1,2.1-1.4,2.7-1.7c2.6-1.6,4.6-2.4,7.2-2.4c1.5,0,2.9-0.4,4.5-1.3c2.8-1.6,5.7-4.4,9.5-9.3L505.6-164.1L505.6-164.1z
	 M323.4,435.9h-2c0.5-3,0.9-6.2,1.3-9.7c0.4-4.1,0.8-8.2,1-12.2c0.1-1.4,0.1-2.7-0.4-7.3c-0.5-1.9-0.9-4.1-1.4-6.5
	c-2-11.3-2.7-22.9-1.1-33.8c0.8-6.2,2.5-12.3,5.2-18c3.2-6.7,7.5-12.8,12.6-18.2c3.4-3.6,5.5-5.5,11.8-10.8c4.5-3.8,6.4-5.6,7.5-7.5
	c0.6-1.1,1-2.1,1-3.1c0-1.8,0-1.7-0.8-9.2c-0.4-3.7-0.6-6.3-0.7-9c-0.5-12.1,1.6-19.6,8.1-21.8c15.9-5.3,25.9-12.1,33.5-25.5
	c9.5-16.9,25.7-31.5,35.9-31.5c12.4,0,20-2,29.4-8.8c6.8-4.9,9.5-6.6,12.5-7.5c2.2-0.6,3.8-0.7,9.1-0.7c1.9,0,3.5-0.8,5.6-2.6
	c1.1-1,5.1-5.1,5.6-5.6c6-5.9,12-8.8,20.8-8.8c2.5,0,4.5,0,7.3,0.1c7.5,0.2,8.9,0.2,11.3-0.7c3-1.1,5.5-3,14.8-11.2
	c8-7.1,10.7-8.9,22.9-16.5c1.4-0.9,2.6-1.6,3.7-2.4c3.4-2.2,6.5-4.7,9.5-7.5c4.1-3.9,8-7.9,11.6-11.9v3c-3.3,3.6-6.7,7-10.3,10.4
	c-3.2,3-6.2,5.4-9.7,7.7c-1.1,0.8-2.3,1.5-3.8,2.4c-12,7.5-14.7,9.3-22.6,16.3c-9.5,8.4-12,10.3-15.4,11.5c-2.7,1-4.2,1.1-12,0.8
	c-2.8-0.1-4.8-0.1-7.3-0.1c-8.3,0-13.8,2.7-19.4,8.2c-0.4,0.4-4.5,4.6-5.7,5.7c-2.4,2.1-4.5,3.1-6.9,3.1c-5.1,0-6.6,0.1-8.6,0.7
	c-2.7,0.8-5.3,2.4-11.9,7.1c-9.8,7.1-17.9,9.2-30.6,9.2c-9.2,0-25,14.2-34.1,30.5c-7.8,13.9-18.2,21-34.5,26.5
	c-5.3,1.8-7.2,8.5-6.8,19.8c0.1,2.6,0.3,5.2,0.7,8.8c0.8,7.6,0.8,7.6,0.8,9.4c0,1.4-0.4,2.7-1.2,4.1c-1.3,2.2-3.3,4.1-7.9,8
	c-6.2,5.2-8.4,7.1-11.7,10.6c-5,5.2-9.1,11.2-12.2,17.7c-2.6,5.5-4.2,11.4-5,17.4c-1.5,10.7-0.9,22.1,1.1,33.2
	c0.4,2.4,0.9,4.5,1.3,6.4c0.2,0.7,0.3,1.2,0.6,4.1c-0.2,5.4-0.6,10.8-1.2,16.1C324.3,429.8,323.9,433,323.4,435.9L323.4,435.9z
	 M310,435.9h-1l0.1-0.3c3.1-7.2,4.3-11.8,4.3-18.7c0-3.6-0.1-4.9-0.8-15.7c-0.8-12-1-19.6-0.5-28.3c0.6-11.5,2.4-22.1,5.8-32.2
	c1.3-3.8,2.8-7.5,4.5-11.1c3.5-7.1,6.8-12.4,10.4-16.6c1.4-1.6,2.8-3.1,4.4-4.6c0.4-0.4,3-2.8,3.7-3.5c5.7-5.6,7.5-11.5,7.5-29.2
	c0-18.8,2.9-23.8,15.8-28.2c1.1-0.4,1.9-0.7,2.8-1c2.1-0.8,4.1-1.7,6.1-2.7c5-2.6,9.6-6.2,14.4-11.4c25.5-27.6,37.1-35.2,56.4-35.2
	c8.3,0,14.5-2,22-6.3c1.8-1,13.8-8.8,18.2-11.3c2.8-1.6,5.7-3,8.6-4.4c7.9-3.6,14-4.5,26.6-4.8c7.5-0.2,10.7-0.5,14.3-1.6
	c4.5-1.4,8.1-4,10.9-8.4c2.2-3.4,6.8-7.1,14.7-12.1c1.6-1,3.3-2,5.7-3.5c9.5-5.9,11.6-7.1,14.8-9.6c5.3-4,9.3-8.4,13.7-14.8
	c1.9-2.9,3.8-5.8,5.6-8.8v1.9c-2,3.2-3.4,5.4-4.8,7.4c-4.4,6.5-8.5,10.9-13.9,15c-3.3,2.5-5.3,3.8-14.9,9.6
	c-1.9,1.2-3.8,2.3-5.6,3.5c-7.7,4.9-12.3,8.5-14.4,11.8c-3,4.6-6.7,7.4-11.5,8.9c-3.7,1.1-6.9,1.4-14.5,1.6
	c-12.5,0.3-18.4,1.2-26.2,4.7c-2.9,1.3-5.8,2.8-8.6,4.4c-4.3,2.4-16.3,10.2-18.1,11.3c-7.6,4.4-14,6.4-22.5,6.4
	c-18.9,0-30.3,7.4-55.6,34.8c-4.9,5.3-9.7,9-14.7,11.6c-2,1-4,1.9-6.2,2.8c-0.9,0.3-1.7,0.6-5.4,1.9c-5.1,1.8-7.4,3.2-9.3,6.4
	c-2.2,3.8-3.3,9.9-3.3,20c0,17.9-1.9,24.1-7.8,29.9c-0.7,0.7-3.3,3.1-3.7,3.5c-1.5,1.4-2.9,2.9-4.3,4.5c-3.5,4.1-6.9,9.3-10.3,16.4
	c-1.7,3.6-3.2,7.2-4.5,11c-3.4,10-5.2,20.5-5.8,31.9c-0.4,8.6-0.2,16.2,0.5,28.2c0.7,10.8,0.8,12.1,0.8,15.7
	C314.4,423.2,313.4,427.8,310,435.9L310,435.9z M335.1,435.9h-1c0-4.7,0.1-9.4,0.3-15c0.3-6.4-0.4-11.8-2.5-24.4l-0.3-1.9
	c-2.1-12.5-2.8-19.3-2-26.5c1-9.2,4.8-16.7,12-22.7c22-18.2,29.8-30.2,29.8-44.6c0-2.6-0.3-4.8-1-8.2c-1-4.8-1.1-5.7-1-7.6
	c0.2-2.6,1.3-4.7,3.6-6.7c2.7-2.4,7-4.6,13.7-7c9.7-3.5,15.5-9.2,24.3-21.6l1.8-2.5c4.5-6.3,7.1-9.6,10.4-12.8
	c4.3-4.1,9-6.8,14.5-8.2c13.3-3.3,20.4-5.5,25.3-7.6c1.8-0.8,3.6-1.7,5.3-2.7c1.1-0.6,1.8-1,4.2-2.6c2.7-1.7,5.2-2.1,11.4-2.3
	c5.4-0.2,7.9-0.4,11-1.4c3.7-1.2,7-3.3,9.5-6.2c4.9-5.3,10-7.6,17.8-8.9c1.1-0.2,1.9-0.3,3.9-0.6c6.9-1,9.9-1.7,13.5-3.6
	c4.5-2.5,6.8-4.4,23.5-19.7l3.1-2.9c9.7-8.7,16.1-13.8,21.4-16.5c4.2-2.1,7.6-4.7,11.2-8.6v1.5c-3.4,3.6-6.7,6-10.8,8
	c-5.2,2.6-11.6,7.7-21.2,16.3l-3.1,2.9c-16.8,15.4-19,17.3-23.7,19.8c-3.7,2-6.8,2.8-13.8,3.7c-2,0.3-2.8,0.4-3.8,0.6
	c-7.6,1.3-12.5,3.5-17.2,8.6c-2.7,3-6.1,5.3-10,6.5c-3.2,1-5.7,1.3-11.2,1.5c-6,0.2-8.4,0.6-10.9,2.1c-1.4,0.9-2.8,1.8-4.2,2.6
	c-1.7,1-3.5,1.9-5.4,2.8c-5,2.2-12.1,4.4-25.5,7.7c-9.7,2.4-15.3,7.6-24.4,20.6l-1.8,2.5c-8.9,12.5-14.8,18.3-24.8,21.9
	c-6.6,2.4-10.9,4.6-13.4,6.8c-2.1,1.9-3,3.7-3.2,6c-0.1,1.8,0,2.6,1,7.3c0.7,3.4,1,5.7,1,8.4c0,14.8-7.9,27-30.2,45.4
	c-7,5.8-10.6,13-11.6,22c-0.8,7-0.1,13.7,2,26.2l0.3,1.8c2.1,12.7,2.8,18.1,2.5,24.6C335.2,426.5,335.1,431.1,335.1,435.9
	L335.1,435.9z M94.8,435.9h-2c0.7-3.8,1.1-8.8,1.6-16c0.2-3.1,0.3-4.1,0.4-5.6c1.3-17.5,4-27.1,11.5-33.2c4.7-3.8,7.2-8.9,8.7-16
	c0.5-2.5,0.7-3.9,1.3-9.2c0.7-5.5,1.2-8.1,2.2-10.4c1.4-3.1,3.8-4.7,7.4-4.7c14.3,0,38.5,9.1,53.6,20.2c8.7,6.3,21.3,13.3,31.7,17.1
	c13,4.7,21.9,4.4,24.8-1.7c1.7-3.6,1.9-4.1,2.6-5.8c2.9-6.7,4.7-12.2,5.2-17.5c0.2-2.2,0.2-4.2,0-6.2c-0.3-2.8-1.4-4.5-4.1-7.4
	l-1.3-1.4c-0.9-0.9-1.7-1.8-2.4-2.8c-0.9-1.3-1.8-2.6-2.5-4.1l-1.1-2.1c-1.6-3.1-2.7-4.6-4.1-5.6c-5.3-3.5-14.8-5.5-28.6-6.8
	c-3-0.3-6-0.5-9-0.7l-2.2-0.2c-9.6-0.7-15.1-1.6-19.1-3.2c-14-5.9-34.6-26.4-34.6-36.9c0-5.3,1.7-9.5,5.5-14.1
	c2-2.4,11.1-11.7,12.8-13.5c4.5-5,10.2-9.5,17.7-14.7c2.8-1.9,14.8-9.6,17.5-11.5c2.3-1.6,4.4-3.4,6.3-5.4c1.5-1.5,7-7.1,7.1-7.3
	c7.2-7.3,12.7-11.6,19.7-14.4c3.4-1.3,8.1-2.8,17.4-5.4c3.9-1.1,7.9-2.2,11.8-3.3c4.2-1.2,8.5-2.4,12.7-3.7
	c20.4-6.2,34-12.1,40.8-18.4c8.7-8.2,11.8-13.8,15.7-26c2-6.2,3.1-9,5.1-12.7c9.5-17.7,28.7-39.4,43.5-45.4
	c14.1-5.8,19.4-11.7,19.4-18.1c0-2.9,2.7-8.4,6.8-13.7c4.8-6.2,10.6-11.4,16.8-14.2c12.5-5.8,33.5-10.1,47.4-10.1
	c5.3,0,9.8-1.5,16.4-4.9c9.2-4.7,10.1-5.1,13.6-5.1c10.4,0,32.1-2.6,45.8-6l3.9-1l3.5-0.9c2.6-0.7,4.3-1.1,5.9-1.4
	c3.9-0.9,6.8-1.2,9.6-1.2c2.7,0.1,5.5,0.5,8.7,1.5c4.6,1.4,13.7-0.9,22.9-5.7c3.5-1.8,6.7-3.9,9.8-6.2v2.4
	C587.8,3.4,573.1,9,565.6,6.7c-2.6-0.8-5.4-1.3-8.1-1.4c-2.6-0.1-5.4,0.3-9.1,1.1c-3.1,0.7-6.2,1.5-9.3,2.3l-3.9,1
	c-13.9,3.5-35.7,6-46.2,6c-3,0-3.9,0.4-12.7,4.9c-6.9,3.5-11.6,5.1-17.3,5.1c-13.6,0-34.4,4.3-46.6,9.9c-5.8,2.7-11.4,7.6-16,13.6
	c-3.9,5-6.4,10.2-6.4,12.5c0,7.3-5.8,13.8-20.6,19.9c-14.3,5.9-33.2,27.2-42.5,44.6c-1.9,3.5-3,6.3-4.9,12.4
	c-4,12.5-7.2,18.4-16.3,26.9c-7.1,6.6-20.9,12.6-41.6,18.9c-4.2,1.3-8.5,2.5-12.7,3.7c-3.9,1.1-7.9,2.2-11.8,3.3
	c-9.2,2.6-14,4-17.2,5.3c-6.7,2.7-12.1,6.8-19.1,13.9c-0.1,0.1-5.6,5.8-7.1,7.3c-2,2.1-4.2,4-6.6,5.6c-2.7,1.9-14.8,9.6-17.5,11.5
	c-7.4,5-12.9,9.5-17.3,14.4c-1.7,1.9-10.8,11.1-12.7,13.5c-3.5,4.3-5,8-5,12.9c0,9.5,20,29.5,33.4,35.1c3.7,1.5,9.1,2.3,18.4,3
	c1.4,0.1,2.9,0.2,4.3,0.3c3.2,0.2,5.1,0.4,6.9,0.5c14.1,1.4,23.8,3.4,29.4,7.2c1.8,1.2,3,2.9,4.8,6.3l1.1,2.1
	c0.7,1.3,1.5,2.6,2.3,3.8c0.6,0.8,1.3,1.6,2.3,2.6c0.2,0.2,1.1,1.2,1.3,1.4c2.9,3.1,4.2,5.2,4.6,8.5c0.2,2.1,0.2,4.3,0,6.6
	c-0.6,5.5-2.4,11.2-5.4,18.1c-0.7,1.7-1,2.2-2.7,5.8c-3.5,7.5-13.3,7.8-27.2,2.8c-10.7-3.9-23.4-10.9-32.2-17.4
	c-14.9-10.6-38.7-19.6-52.5-19.6c-5,0-6.4,3-7.6,13.3c-0.3,3.1-0.8,6.2-1.4,9.3c-1.5,7.5-4.3,13-9.4,17.2
	c-6.9,5.6-9.5,14.8-10.8,31.8c-0.1,1.5-0.2,2.5-0.4,5.6C95.9,427.1,95.5,432,94.8,435.9L94.8,435.9z M102.9,435.9h-1
	c0.3-1.4,0.6-2.9,0.9-4.6l1.1-5.6c2.5-13.3,4.2-19.9,6.7-24c1.7-2.8,3.7-5.5,8.1-11c8.2-10.4,10.9-14.5,10.9-18.7v-1.7
	c0-1.8,0-2.7,0-3.8c0.2-5,1.5-8.2,4.6-9.4c3.9-1.5,10.4,0.4,20.1,6.4c9.6,5.9,17.5,10.7,25.9,15.7c1.3,0.8,14.3,8.4,17.7,10.5
	c2.1,1.3,4.3,2.6,6.4,3.9c13.8,8.5,38.9,5,46.3-7.8c3.6-6.3,4.5-8.5,7.8-17.3c0.4-1,0.8-2.1,1.2-3.1c1.1-2.7,2.4-5.2,4.1-7.6
	c9.3-14,14.9-26.1,14.9-36.7c0-3.7,0.8-6.6,3.4-14.9c0.5-1.6,0.8-2.7,1.1-3.7c3.6-12.2,3-19.1-4.3-24c-3-2-6.4-3.3-10-3.8
	c-7.2-0.9-14.5,1.2-23.9,5.9c-1.6,0.8-6.6,3.4-7.6,3.9c-1.4,0.7-2.8,1.5-4.1,2.3l-4.4,2.7c-11.6,6.9-20.4,9.2-32.8,6.1
	c-3.3-0.8-6.2-1.4-13.1-2.6c-13.2-2.4-18.7-3.8-23.3-6.5c-6.2-3.7-7.5-9-2.9-16.6c4-6.7,8.9-12.8,14.4-18.3c2.7-2.7,5.5-5.2,8.3-7.7
	c-0.1,0,6.2-5.3,7.8-6.8c2.3-2,4.4-4.1,6.5-6.3c7.7-8.5,12.8-13.4,20.1-18.6c9.9-7.1,21.4-12.4,35.2-15.6c37-8.6,51-12.7,58.8-17.9
	c8.6-5.7,21.3-24.8,36.8-54.8c5.2-10.1,12.3-18.4,21.1-25.7c5.1-4.2,9.6-7.2,17.5-12.2c7.4-4.6,9.6-6.1,11.4-8.2
	c1.2-1.5,2.2-3.1,3-4.9c0.6-1.3,2.9-6.5,3-6.8c1.4-3,2.6-5.4,4-7.7c6.5-11,16-18,31.4-20.8c12.7-2.3,19.9-2.7,29.7-2.3
	c3.2,0.1,4.1,0.2,5.6,0.1c5.1-0.1,9.7-1,16.6-3.8c20.7-8.3,38.8-12,59.2-12c3,0,6,0.1,10.5,0.5l2.1,0.2c12.5,1,18.1,1,25.3-0.6
	c4.9-1.1,9.7-2.9,14.1-5.4v1.1c-4.3,2.4-9,4.2-13.9,5.3c-7.4,1.6-13.1,1.6-25.6,0.6l-2.1-0.2c-4.4-0.3-7.4-0.5-10.4-0.5
	c-20.3,0-38.2,3.7-58.8,12c-7,2.8-11.7,3.8-17,3.9c-1.5,0-2.4,0-5.7-0.1c-9.8-0.4-16.8,0-29.5,2.3c-15.1,2.7-24.3,9.6-30.7,20.3
	c-1.4,2.5-2.8,5-3.9,7.6c-0.1,0.3-2.4,5.5-3,6.8c-0.8,1.8-1.8,3.5-3.1,5.1c-1.9,2.1-4.1,3.7-11.6,8.4c-8,5-12.4,7.9-17.4,12.2
	c-8.8,7.2-15.7,15.4-20.9,25.4c-15.6,30.2-28.4,49.3-37.2,55.2c-8,5.3-22,9.4-59.2,18.1c-13.6,3.2-25,8.4-34.8,15.4
	c-7.2,5.2-12.3,10-19.9,18.4c-2.1,2.2-4.3,4.4-6.6,6.4c-1.7,1.5-7.9,6.8-7.8,6.8c-3.3,2.8-5.8,5.2-8.3,7.6
	c-5.5,5.4-10.3,11.5-14.3,18.1c-4.3,7.2-3.2,11.9,2.5,15.3c4.5,2.6,9.9,4,23.2,6.4c4.3,0.7,8.6,1.6,12.9,2.6c12.1,3,20.6,0.8,32.1-6
	l4.4-2.6c1.7-1,3-1.7,4.2-2.4c0.9-0.5,6-3.1,7.6-3.9c9.6-4.8,17-6.9,24.5-6c3.7,0.5,7.3,1.8,10.4,3.9c7.8,5.2,8.5,12.5,4.7,25.1
	c-0.3,1.1-0.6,2.1-1.2,3.7c-2.6,8.1-3.3,11-3.3,14.5c0,10.9-5.7,23.1-15.1,37.3c-1.6,2.3-2.9,4.8-4,7.5c-0.4,0.9-0.7,1.8-1.2,3
	c-3.2,8.8-4.2,11.1-7.8,17.5c-7.7,13.4-33.4,17-47.7,8.2c-2.1-1.3-4.3-2.6-6.4-3.9c-3.4-2-16.4-9.7-17.7-10.5
	c-8.4-5-16.4-9.8-25.9-15.7c-9.5-5.8-15.7-7.7-19.2-6.4c-2.7,1-3.8,3.8-4,8.5c0,1.2-0.1,2.5,0,3.7v1.7c0,4.5-2.7,8.7-11.5,19.9
	c-3.9,5-5.9,7.6-7.6,10.4c-2.4,4-4.1,10.6-6.6,23.7l-1.1,5.6L102.9,435.9L102.9,435.9z M113.4,435.9h-1c0-0.3,0-0.7,0-1
	c0-12.4,8.5-33.6,19.2-43.4c1.4-1.3,2.6-2.7,3.7-4.2c1.1-1.6,2.1-3.2,2.9-4.9c0.4-0.7,1.8-3.7,2.1-4.4c3.2-6.3,6.8-6.5,17,0.4
	c1.3,0.9,6.1,4.2,6.4,4.4c2.6,1.8,4.7,3.2,6.7,4.6c5,3.4,9.4,6.2,13.5,8.7c14.3,8.7,25.5,13.3,34.1,13.3c16.9,0,32.7-6,39.6-14.8
	c1.6-2,3.2-5.2,5.1-9.6c0.8-1.9,1.6-4.1,2.7-6.8l2.7-7.3c4.7-12.4,7.8-19.1,11.6-23.3c7.9-8.8,14.9-36,14.9-52.7
	c0-1.9,0.2-3.1,1-8.3c0.4-2.2,0.6-3.6,0.7-5.1c0.6-5.5,0.2-9.5-1.7-12.4c-4.6-7.1-19.7-9.2-38.5-4.8c-6.5,1.5-12.9,3.6-18.9,6.3
	c-5.2,2.4-17.1,9.7-16.5,9.4c-6.7,3.6-13,4.1-24.8,1.3c-29.6-7.1-30.4-8.6-15.3-26.8c17.4-20.9,47.1-46.2,56.4-46.2
	c9.9,0,53.8-12,65.8-18c9.5-4.7,24.3-21.2,36.8-37.9c0.7-1,13.5-21.6,19.2-29.6c9.4-13.1,18.2-22.5,27-27.5
	c7.3-4.2,13.2-10.3,18.8-18.7c1.9-2.9,10.5-17.6,12.7-20.4c1.5-1.9,3-3.2,4.5-3.9c14.1-6.2,24.2-9,39.2-9h29c4,0,7.4-0.4,22.9-2.5
	l4.3-0.6c9.9-1.3,16.6-1.9,21.8-1.9c1.7,0,3,0,6,0c18.6,0.2,28.5-0.5,44.9-4c3.1-0.7,6.1-1.8,9.1-3.3v1.1c-2.8,1.4-5.8,2.5-8.9,3.2
	c-16.4,3.6-26.4,4.2-45.1,4.1c-3.1,0-4.4,0-6,0c-5.2,0-11.8,0.6-21.6,1.9l-4.5,0.6c-15.6,2.1-18.9,2.5-23.1,2.5h-29
	c-14.8,0-24.8,2.8-38.8,9c-1.3,0.6-2.7,1.8-4.1,3.6c-2.2,2.7-10.7,17.4-12.7,20.3c-5.7,8.6-11.7,14.8-19.1,19
	c-8.6,4.9-17.4,14.2-26.6,27.2c-5.7,8-18.5,28.6-19.2,29.6c-12.6,16.8-27.5,33.3-37.2,38.1c-12.1,6-56.1,18-66.2,18
	c-8.8,0-38.4,25.1-55.6,45.8c-14.6,17.5-14.2,18.2,14.7,25.2c11.6,2.8,17.6,2.3,24.1-1.2c-0.7,0.4,11.3-7,16.6-9.4
	c5.4-2.5,11.6-4.6,19.1-6.4c19.1-4.5,34.6-2.4,39.5,5.2c2,3.2,2.5,7.3,1.8,13c-0.2,1.7-0.5,3.4-0.8,5.1c-0.8,5.1-1,6.3-1,8.1
	c0,16.9-7,44.3-15.1,53.3c-3.7,4.1-6.8,10.7-11.4,23c-0.4,0.9-2.2,5.9-2.7,7.3c-1,2.8-1.9,4.9-2.7,6.8c-1.9,4.5-3.5,7.7-5.2,9.8
	c-7.1,9.1-23.2,15.2-40.4,15.2c-8.9,0-20.1-4.7-34.6-13.4c-4.1-2.5-8.5-5.3-13.6-8.7c-2.2-1.5-4.5-3-6.7-4.6l-6.4-4.4
	c-9.7-6.6-12.6-6.4-15.5-0.8c-0.4,0.7-1.7,3.6-2.1,4.3c-0.9,1.8-1.8,3.4-3,5c-1.1,1.6-2.4,3-3.8,4.3c-10.5,9.6-18.8,30.5-18.8,42.6
	L113.4,435.9L113.4,435.9z M83.7,435.9h-1.1c1.2-2.5,1.8-5.2,1.8-8c0-20,4.8-42,12.2-49.3c5.2-5.2,7.8-8.4,9.9-12.7
	c2.6-5.4,3.9-12,3.9-20.9c0-6.8,1.1-11.6,3.4-15.1c1.7-2.7,3.6-4.2,8.9-7.5c1.4-0.8,2.7-1.8,3.9-2.8c4.6-4,6.6-6.2,7.7-9.4
	c1.4-4,0.9-9-1.9-16c-1.2-2.8-2.5-5.5-4-8.1l-0.9-1.7c-0.9-1.6-1.8-3.3-2.6-5c-5.2-10.7-3.8-18.9,7.7-29.8
	c8.3-7.9,17.3-15.1,26.8-21.5c4-2.7,16.8-10.8,19.2-12.5c2-1.4,4.3-3.3,7.8-6.3c0,0,7.2-6.4,9.5-8.3c5-4.3,9.1-7.5,13.1-10.1
	c4.7-3.1,9-5.3,12.9-6.3c12.8-3.4,15.6-4.2,21.8-6c12.5-3.6,22-6.9,28.1-10c2.4-1.1,4.9-2.1,7.5-2.8c8.7-2.7,12-4.1,17-8.1
	c6.8-5.5,13.1-14.2,19.3-27.9c16-34.8,19.1-39.4,32.1-49.2c3.1-2.4,6.4-4.1,11.4-6.4l2.3-1c11.9-5.4,16.9-8.9,21.1-17.4
	c1.9-3.8,2.5-6.3,3.4-12.3c0.8-5.2,1.5-7.6,3.5-10.2c2.6-3.4,7-6.3,14.4-9c3.4-1.3,7.4-2.5,12-3.7c16.3-4.3,25.3-5.4,39.6-5.8
	c6.9-0.2,9.5-0.6,12.7-2c1.2-0.5,2.4-1.2,3.6-2.1c3.7-2.7,8.1-4.5,13.2-5.7c5.7-1.3,10.7-1.5,18.7-1.4h2.4c2.8,0,6.8-1,19.7-4.7
	c10.8-3.1,16-4.3,19.3-4.3c0.8,0,1.9,0.1,3.5,0.4l5,0.9c9.8,1.7,17.4,1.9,25.2-0.2c8-2.2,14.8-6.8,20.3-14.2v1.6
	c-5.5,7-12.2,11.4-20,13.6c-7.9,2.1-15.6,1.9-25.6,0.2l-5-0.9c-1.6-0.3-2.6-0.4-3.4-0.4c-3.2,0-8.3,1.2-19.7,4.5
	C513,3.6,509,4.6,506,4.6h-2.4c-7.9-0.1-12.9,0.2-18.5,1.4c-5,1.1-9.3,2.9-12.9,5.5c-1.2,0.9-2.4,1.6-3.8,2.2c-3.3,1.5-6,1.9-13,2.1
	c-14.2,0.4-23.1,1.5-39.4,5.8c-4,1-8,2.3-12,3.7c-7.2,2.7-11.5,5.5-13.9,8.7c-1.9,2.5-2.6,4.8-3.3,9.8c-0.9,6.1-1.5,8.7-3.5,12.6
	c-2.2,4.6-5.5,8.5-9.7,11.4c-3.1,2.3-6,3.7-11.9,6.4l-2.3,1c-5,2.3-8.2,4-11.2,6.3c-12.9,9.7-15.9,14.2-31.9,48.8
	c-6.3,13.8-12.7,22.7-19.6,28.2c-5.1,4.1-8.5,5.6-17.3,8.3c-2.5,0.7-5,1.6-7.3,2.7c-6.2,3.1-15.7,6.4-28.3,10.1
	c-7.2,2.1-14.5,4.1-21.8,6c-3.8,1-7.9,3.1-12.6,6.2c-4.5,3.1-8.8,6.5-12.9,10.1c-2.2,1.9-9.5,8.3-9.5,8.3c-2.5,2.3-5.1,4.4-7.8,6.4
	c-2.5,1.7-15.3,9.8-19.3,12.5c-9.5,6.4-18.4,13.6-26.7,21.5c-11.1,10.6-12.4,18.3-7.5,28.6c0.8,1.7,1.7,3.3,2.6,5l0.9,1.7
	c1.5,2.6,2.9,5.4,4,8.2c2.9,7.2,3.4,12.5,1.9,16.7c-1.2,3.4-3.3,5.8-8,9.8c-1.1,1-2.3,1.8-5.3,3.7c-3.9,2.5-5.7,3.9-7.3,6.4
	c-2.1,3.3-3.2,7.9-3.2,14.5c0,9-1.3,15.8-4.1,21.3c-2.2,4.5-4.8,7.8-10.1,13c-7.1,7.1-11.8,28.9-11.8,48.7
	C85.4,430.7,84.8,433.4,83.7,435.9L83.7,435.9z M366.2,435.9h-1l-1.1-5.8c-3.1-16.3-4-26.2-2.7-37.3c0.7-5.8,0.8-9.7,0.5-15.3
	c-0.2-4.5-0.2-5.7,0.2-7.6c0.8-4.3,3.4-8.5,10.4-16.3c9.1-10.2,12.3-15.4,19.8-30.1c1.4-2.6,2.3-4.5,3.4-6.3
	c0.9-1.6,1.8-3.1,2.8-4.5c3.1-4.7,7-8.4,16.8-16.8c11.2-9.6,15.5-13.9,18.1-19.1c0.7-1.4,1.3-2.8,1.9-4.4c0.5-1.3,1-2.7,1.5-4
	c3.6-9.9,8-13.9,22.9-17.8c5-1.3,20.5-5.1,21.4-5.3c16.2-4.1,25.3-7.4,33.5-12.6c5.9-3.8,5.8-3.8,27.7-16.5l2.6-1.5
	c10.2-6,17.1-10.2,22.7-14c3-2,5.9-4.1,8.8-6.3c2.1-1.7,4.3-3.4,6.4-5.1c5-4,10.4-7.4,16.1-10.3v1.1c-5.5,2.7-10.7,6.1-15.5,9.9
	c0.2-0.1-4.8,3.8-6.4,5.1c-2.9,2.2-5.8,4.3-8.8,6.4c-5.7,3.8-12.5,8-22.8,14l-2.6,1.5c-21.8,12.8-21.8,12.7-27.6,16.5
	c-8.3,5.3-17.5,8.6-33.8,12.7c-0.8,0.2-16.4,4-21.4,5.3c-8,2.1-13.1,4.5-16.5,7.5c-2.7,2.4-4,4.9-5.8,9.7l-1.5,4.1
	c-0.6,1.5-1.2,3-2,4.5c-2.7,5.5-7,9.8-18.4,19.5c-9.7,8.3-13.6,12-16.6,16.6c-1,1.5-1.9,2.9-2.7,4.5c-1,1.8-2,3.6-3.4,6.2
	c-7.6,14.8-10.8,20.1-20,30.4c-6.8,7.7-9.4,11.8-10.1,15.9c-0.3,1.8-0.3,3-0.2,7.4c0.2,5.7,0.1,9.6-0.5,15.5
	c-1.3,10.9-0.3,20.8,2.7,37L366.2,435.9L366.2,435.9z M289.7,435.9h-2.1l1.4-4.3c1-3.3,1.9-6.8,2.7-10.4c2.6-12.7,3.3-23.6,3.3-41.3
	c0-5.7-1.9-9.8-4.1-9.8c-2.9,0-7,5.6-10.9,17.1c-9.8,28.3-22.6,41.7-42.9,41.7c-22.4,0-29.3-1.3-48.4-10.1c-3.2-1.5-6.4-3.2-9.4-5
	c-2.9-1.8-12.8-8.6-14.8-9.7c-4.2-2.4-7-2.7-9.7-1c-0.6,0.4-1.3,0.9-1.9,1.5c-1.4,1.4-2.8,2.6-4.3,3.9c-1,0.8-2,1.6-3.1,2.4l-1,0.8
	c-8.6,6.6-11.6,11.4-11.6,21.2c0,1,0,2-0.1,3h-2c0.1-1,0.1-2,0.1-3c0-10.5,3.3-15.8,12.1-22.8c0.7-0.5,1.3-1.1,2-1.6
	c0.8-0.6,1.4-1.1,2-1.6c1.5-1.2,2.8-2.4,4.2-3.7c0.7-0.7,1.5-1.3,2.2-1.8c3.5-2.2,7-1.8,11.8,0.9c2.1,1.2,12,8,14.9,9.8
	c3,1.8,6,3.5,9.2,4.9c18.9,8.6,25.4,9.9,47.6,9.9c19.2,0,31.5-12.7,41.1-40.3c4.2-12.2,8.7-18.4,12.8-18.4c3.8,0,6.1,5.1,6.1,11.8
	c0,17.8-0.6,28.8-3.3,41.7c-0.8,3.7-1.7,7.2-2.8,10.6C290.5,433.5,290.1,434.7,289.7,435.9L289.7,435.9z M140.4,435.9l0.5-0.9
	c2.4-4.3,4.6-8.7,6.5-13.3c2.7-6.3,5.8-9.6,9.2-10.5c3.7-1,7.1,0.7,12.6,5.1c5.4,4.4,6.1,4.9,7.7,5.1c1.6,0.2,4.3,1.1,8.9,3
	c1.3,0.5,10.8,4.3,13.9,5.5s5.9,2.2,8.5,3.2c3.1,1.1,6,2,8.6,2.8h-3.4c-1.8-0.6-3.6-1.2-5.5-1.9c-2.9-1-5.7-2.1-8.5-3.2
	c-3.1-1.2-12.6-5-13.9-5.5c-4.5-1.8-7.1-2.7-8.6-2.9c-1.9-0.3-2.5-0.7-8.2-5.3c-5.2-4.2-8.4-5.8-11.7-4.9c-3.1,0.8-5.9,3.9-8.6,10
	c-2.1,4.7-4.3,9.3-6.8,13.8L140.4,435.9L140.4,435.9z M253.3,435.9c4.2-1.3,8-3.4,11.3-6.3c1.5-1.4,3.3-3.5,5.3-6.3
	c1-1.5,2.1-3.1,3.4-5c0.8-1.3,1.7-2.6,2.5-3.9l0.5-0.8l0.9-1.5c1-1.7,2.1-3.3,3.2-4.9c1-1.4,1.8-2.2,2.4-2.5c1-0.4,1.5,0.5,1.5,2
	v2.1c0,6.9-0.1,11.3-0.7,16.3c-0.4,3.6-1.2,7.1-2.4,10.6h-1.1c1.2-3.5,2.1-7,2.5-10.7c0.6-5,0.8-9.3,0.7-16.2v-2.1
	c0-1-0.1-1.1-0.1-1.1c-0.4,0.1-1,0.8-2,2.1c-1.1,1.6-2.2,3.2-3.2,4.8l-0.9,1.5l-0.5,0.8c-0.8,1.3-1.7,2.6-2.5,3.9
	c-1.3,2-2.4,3.6-3.4,5.1c-2.1,2.9-3.9,5-5.5,6.5c-2.6,2.3-5.7,4.2-8.9,5.5L253.3,435.9L253.3,435.9z M69.6,435.9h-1.4
	c3.4-3.4,5.2-8.3,5.2-15c0-18.6,0-17.3,1-20.8c0.6-1.9,1.5-3.7,3.3-6.6c0.4-0.7,4.9-7.8,6.8-10.9c3-5,11-16.5,12.2-18.6
	c3.5-6.1,4.7-12.1,4.7-24.2c0-7.9,2.5-14.2,8.1-23.4l2.8-4.6c0.9-1.4,1.7-2.9,2.5-4.4c1.6-3.1,2.5-5.8,2.6-8.3
	c0.2-3.8-1.3-7.3-4.9-10.9c-5.1-5.1-8.6-5.4-11.2-1.9c-2.1,2.9-3.5,7.7-5.1,16.5c-0.2,1-0.8,4.6-0.8,4.6c-0.8,4.7-1.4,7.3-2.1,9.6
	c-1.3,4.4-3.7,7.6-8.4,12.3l-3.3,3.2c-6.4,6.4-9.7,11.5-11.4,19.5l-1.2,5.5c-0.9,4.1-1.6,7-2.3,9.9c-3.7,13.7-9.7,26-22.6,44.7
	c-7.7,11.1-11,18.9-10.9,23.7h-1c-0.1-5.2,3.3-13,11.1-24.3c13-18.6,19-30.7,22.6-44.3c0.8-2.9,1.4-5.8,2.3-9.9l1.2-5.5
	c1.7-8.2,5.1-13.5,11.6-20c0.6-0.6,2.8-2.8,3.2-3.2c4.6-4.5,6.8-7.6,8.1-11.8c0.9-3.1,1.6-6.3,2.1-9.5l0.8-4.6
	c1.6-8.9,3-13.8,5.2-16.9c3-4.1,7.2-3.8,12.7,1.7c3.8,3.8,5.4,7.6,5.2,11.7c-0.2,2.7-1.1,5.4-2.7,8.7c-0.8,1.5-1.6,3-2.5,4.5
	l-2.8,4.6c-5.5,9.1-8,15.3-8,22.9c0,12.3-1.3,18.4-4.8,24.7c-1.2,2.1-9.2,13.7-12.2,18.6c-1.9,3.1-6.4,10.2-6.8,10.9
	c-1.7,2.8-2.6,4.6-3.2,6.4c-1,3.3-1,2.1-1,20.5C74.4,427.4,72.7,432.3,69.6,435.9L69.6,435.9z M309-164.1h1.1
	c-0.4,0.9-0.8,1.8-1.2,2.8c-3.9,9.1-5.5,15.1-5.5,25.2c0,7.6-2.1,11.6-6.6,13c-3.5,1.1-5.7,1-17.6-0.4c-11.5-1.4-19.2-1.6-28.2-0.1
	c-6.2,2.5-25.9,7-32.1,7c-11.1,0-36.8-2.9-54.1-7c-5.8-1.5-11.9-0.6-16.9,2.5c-4.1,2.3-7.1,5-13.9,12c-6.3,6.4-9.5,9.2-13.8,11.5
	c-7.1,3.8-11.2,7.7-13.4,12.3c-1.8,3.8-2.3,7.8-2.3,15.3c0,4.4-2.7,6.7-9.4,9.7c0.1-0.1-3,1.3-3.8,1.7c-8.8,4.1-12.7,8.3-12.7,16.5
	c0,12.5-4.9,19.2-17.3,28L56.7-11c-1.9,1.3-3.3,2.3-4.7,3.3c-0.9,0.7-1.8,1.3-2.6,2c-7.2,5.6-11,14.5-15.6,33.3
	c-0.6,2.6-3.3,14-4.1,17.1c-1.5,6.5-3.3,12.9-5.2,19.3c-1.4,4.5-4.5,15.1-5,16.5c-1,3.4-1.6,4.9-2.5,6.3c-0.8,1.4-6.9,9.1-12.6,18.3
	l-5.5,8.8V112l4.6-7.4c4-6.2,8.2-12.3,12.6-18.2c-0.3,0.5,1.4-2.8,2.4-6.1c0.5-1.4,3.6-12,5-16.5c1.8-6,3.4-12.1,5.2-19.3
	c0.8-3.1,3.4-14.6,4.1-17.1c4.6-18.9,8.5-28,15.9-33.8c0.8-0.7,1.7-1.3,2.7-2c1.4-1,2.8-2,4.7-3.3l4.5-3.1
	c12.2-8.6,16.9-15,16.9-27.1c0-8.7,4.2-13.3,13.3-17.4c0.9-0.4,4-1.8,3.8-1.7c6.5-2.9,8.9-5,8.9-8.8c0-7.6,0.5-11.7,2.4-15.7
	c2.3-4.8,6.6-8.8,13.8-12.7c4.2-2.2,7.4-5,14.1-11.9c6.3-6.4,9.4-9.1,13.5-11.5c5.3-3.2,11.7-4.1,17.7-2.6c17.3,4.1,42.8,7,53.9,7
	c6.1,0,25.7-4.5,31.9-7c9.1-1.5,16.8-1.2,28.5,0.1c11.6,1.4,13.9,1.5,17.1,0.5c4.1-1.3,5.9-4.8,5.9-12.1
	C302.4-146.2,304-152.4,309-164.1L309-164.1z M334.1-164.1h1c0,5.6,0.3,11.5,0.6,19.4c0.5,9.7,0.6,14.6,0.6,21.6
	c0,9.8-4.7,17.5-13.1,23.2c-6.5,4.4-14.9,7.5-24.3,9.3c-3.7,0.5-9.4,0.6-22.7,0.2c-6.7-0.2-9.4-0.2-12.4-0.2c-2.8,0-5,0.4-7.6,1.4
	c-0.9,0.3-4.6,1.7-5.6,2.1c-6.6,2.3-13.6,3.5-24.8,3.5c-8.1,0-13.6-1.4-22.5-4.9l-3.2-1.2c-12.6-4.9-21.3-5.2-37.2,1.1
	c-11.1,4.4-18.1,9.2-22.3,14.8c-3.1,4.3-4.3,7.8-5.9,15.8c-1.2,6.1-1.9,8.7-3.5,12.1c-1.6,3.5-4,5.8-7.1,7.2
	c-2.3,1.1-4.3,1.5-9.3,2.2c-9,1.3-12.8,3.1-15.6,9.6C95.5-18.4,91.5-13,85-7.1c-2.4,2.2-13.1,11-15.9,13.4
	c-8.2,7.1-13.8,17.4-18.7,32c-1.2,3.5-2.3,7.1-3.3,10.7c0,0.1-2.3,8-2.9,10.1c-8.3,28.8-17.7,52.9-25.9,61.2
	c-2.8,2.8-5.1,5.6-10.4,13c-3.4,4.7-6.2,8.2-8.9,11.1v-1.5c2.7-3,5.7-6.8,9.5-12c4-5.5,6.3-8.4,9.2-11.2
	c8.1-8.1,17.4-32.1,25.9-60.8c0.6-2.1,2.9-10,2.9-10.1c1.2-4.2,2.2-7.5,3.3-10.7c4.9-14.8,10.6-25.2,19-32.4
	C71.6,3.3,82.3-5.5,84.7-7.7c6.4-5.8,10.3-11.1,14-19.4c1.7-3.8,4.1-6.3,7.2-7.9c2.4-1.2,4.6-1.7,9.5-2.4c4.5-0.6,6.5-1.1,8.7-2.1
	c2.9-1.3,5-3.4,6.6-6.7c1.5-3.3,2.2-5.9,3.4-11.9c1.6-8.1,2.9-11.8,6.1-16.2c4.3-5.8,11.4-10.7,22.7-15.2
	c16.1-6.4,25.1-6.1,37.9-1.1l3.2,1.3c8.8,3.5,14.1,4.8,22.1,4.8c11.1,0,18-1.2,24.5-3.5c1-0.4,4.7-1.8,5.6-2.1c2.5-1,5.2-1.4,8-1.4
	c3,0,5.7,0.1,14.1,0.3c11.5,0.3,17.2,0.3,20.8-0.2c9.2-1.8,17.5-4.8,23.9-9.2c8.2-5.5,12.7-12.9,12.7-22.3c0-7-0.2-11.9-0.7-22.7
	C334.3-153.1,334.1-158.6,334.1-164.1z M92.8-164.1h2c-0.7,4-1.6,6.8-3,9.5c-2.3,4.4-2.8,5.8-5.3,13c-0.5,1.7-1.2,3.4-1.9,5
	c-2.2,4.7-5.9,8.8-13.1,14.3c-8,6.1-14.3,16.5-20,31.5c-2.4,6.2-8.8,25.6-9.6,28c-2.7,7.2-6.6,12.7-15.6,23.7l-2.7,3.2
	c-6,7.3-9.4,12.1-11.7,17.1C9.6-13.9,4.8-8.9-1-4.7v-2.4c5.1-3.9,9.1-8.3,11.1-12.6c2.5-5.3,5.9-10.1,12-17.6l2.7-3.3
	c8.9-10.8,12.7-16.2,15.3-23.1c0.9-2.3,7.2-21.7,9.6-28c5.9-15.3,12.3-26,20.7-32.4c6.9-5.3,10.4-9.2,12.5-13.5
	c0.7-1.4,1.2-2.7,1.8-4.8c2.4-7.4,3-8.8,5.4-13.3C91.4-158.2,92.3-161.1,92.8-164.1z M101.8-164.1h1c-1.7,8.3-2.9,12.7-4.5,15.3
	c-1.6,2.6-2.9,5.4-4.1,8.2c-1.3,3-2.4,6.2-3.5,9.4c-0.4,1.1-0.7,2.2-2.4,5.4c-4.4,4.2-8.7,8.7-12.8,13.3c-3.5,4-5.9,7.3-7.2,9.7
	c-0.9,1.9-2.1,6-3.6,13c-0.6,2.9-3.7,17.2-4.5,21.1c-3.6,16.5-6.6,26.7-9.9,32C42.6-24.2,39.7-21,13.2,4.4
	C8.9,8.6,4.1,12.3-1.1,15.3v-1.1c5-2.9,9.5-6.4,13.6-10.4c26.4-25.6,29.4-28.8,37-41.2c3.2-5.2,6.2-15.4,9.8-31.7
	c0.9-3.9,3.9-18.2,4.5-21.1c1.6-7.1,2.7-11.2,3.7-13.2c1.2-2.5,3.8-5.9,7.3-9.9c0.9-1,1.9-2.1,2.9-3.2c2.4-2.6,5-5.2,7.5-7.8
	c0.9-0.9,1.7-1.7,3.4-3.4c1.3-4.6,2.9-9.1,4.8-13.5c1.2-2.9,2.6-5.7,4.2-8.4C99-151.8,100.2-156.1,101.8-164.1L101.8-164.1z
	 M82.6-164.1h1.1c-2.1,4.7-6,8.9-11.4,12.3c-7.2,4.5-16.5,7.2-24.4,7.2c-8.9,0-11.8,7-11.7,21.5c0,1.7,0,3.2,0.1,6
	c0.1,3.3,0.1,4.5,0.1,6c0,5.7-0.8,11.3-2,16.5c-0.6,2.4-1.3,4.7-2.2,7c-2.3,5.3-4.6,10.6-7,15.9C18.6-57,12-42.4,5.3-27.8
	c-1.7,3.7-3.8,7.4-6.4,10.7v-1.6c2.2-3,4-6.2,5.6-9.6C13-46.8,21.4-65.4,29.7-84.1c0.5-1.2,1-2.2,2.4-5.9c2.2-6.8,3.3-13.9,3.4-21.1
	c0-1.5,0-2.7-0.1-6c-0.1-2.8-0.1-4.3-0.1-6c0-6.8,0.5-11.6,2.1-15.3c1.9-4.7,5.4-7.2,10.7-7.2c7.7,0,16.8-2.6,23.9-7.1
	C76.8-155.8,80.6-159.7,82.6-164.1L82.6-164.1z M365.2-164.1h1c1.9,10,2.2,12.7,2.3,18.3c1.2,9.2,1.3,18.6,0.4,27.8
	c-1,8.8-3.1,16-6.6,21.2c-11.3,16.5-39.8,29.2-66.4,29.2c-5.1,0-10.5,0.3-16.3,0.8c-8.2,0.8-16.3,1.9-24.4,3.2
	c-21.6,3.3-27.7,4-36.3,4c-6.9,0-12.2-1.1-21.7-3.9l-2.8-0.8c-1.4-0.4-2.5-0.7-3.6-1c-8-2.1-14.2-2-21.7,0.7c-4,1.4-7.3,4.4-9.2,8.2
	c-1.6,3.1-2.5,6.1-4,12.8c-1.5,6.6-2.3,9.5-4,12.6c-2,4-5.5,7.1-9.9,8.4c-3.2,1-6.4,2.1-9.5,3.4c-6.6,2.8-10.1,5.6-13.8,10.5
	c-1.3,1.8-1,1.3-5.4,7.9c-2,3-4.7,5.8-8.5,9.1c-2,1.8-10.7,8.8-12.9,10.7c-7.4,6.4-12.6,12.1-16.6,19.1c-4.2,7.3-7.8,18.3-11.3,33.3
	c-0.9,3.7-1.7,7.6-2.6,12.1l-1.2,5.8l-1.1,5.4c-1.8,9-2.8,13.3-3.8,16.3c-6.8,20.4-17.3,42.2-27.1,51.2c-5.1,4.7-8.1,7.1-11.1,8.9
	c-0.9,0.5-1.8,1-2.9,1.6c-0.4,0.2-9.6,4.4-14.1,6.7l-1.2,0.6v-1.1l0.8-0.4c4.5-2.3,13.7-6.4,14.1-6.6c1-0.5,1.9-1,2.8-1.5
	c2.9-1.8,5.9-4.1,10.9-8.7c9.7-8.9,20.1-30.5,26.9-50.8c1-2.9,1.9-7.2,3.7-16.1l1.1-5.5c1.2-6,2.4-12,3.8-18
	c3.5-15.1,7.1-26.1,11.4-33.5c4.1-7.1,9.4-13,16.8-19.4c2.2-1.9,10.9-8.9,12.9-10.7c3.8-3.3,6.4-6.1,8.3-8.9c4.4-6.6,4.1-6.2,5.5-8
	c3.8-5,7.5-7.9,14.2-10.8c2.6-1.1,5.7-2.2,9.6-3.5c4.1-1.2,7.4-4.1,9.3-7.9c1.6-3,2.4-5.8,4-13c1.4-6.3,2.3-9.3,4-12.5
	c2-4,5.5-7.1,9.7-8.7c7.7-2.8,14.1-2.8,22.3-0.8c1.1,0.3,2.3,0.6,3.7,1l3.7,1.1c8.5,2.5,13.7,3.6,20.5,3.6c8.6,0,14.7-0.8,36.2-4
	c8.1-1.3,16.2-2.4,24.4-3.2c5.9-0.5,11.3-0.8,16.4-0.8c26.3,0,54.5-12.6,65.6-28.8c3.4-5,5.5-12.1,6.5-20.7c0.8-7.7,0.7-16,0-23.9
	c-0.2-1.7-0.3-3.4-0.6-5.1C367.4-151.6,367.1-154,365.2-164.1L365.2-164.1z M17.8-164.1h1c-1.9,7.6-2.8,10.2-5.4,16.2
	c-1.9,4.4-2.7,9.2-2.4,14.9c0.2,4.3,0.7,7.7,2.3,16.1c1.1,5.9,1.6,8.8,1.9,12.2c1,8.9,0.2,16.1-2.8,22.8C8.2-72.7,3.7-63.6-1.1-54.7
	v-2.1c4.4-8.4,8.6-16.9,12.5-25.5c3-6.5,3.7-13.5,2.7-22.3c-0.4-3.4-0.8-6.3-1.9-12.1c-1.6-8.5-2.1-11.9-2.3-16.3
	c-0.3-5.8,0.5-10.8,2.5-15.3C15.1-154.2,15.9-156.8,17.8-164.1z M298.3-164.1c-1.3,3.9-3,7.6-4.9,11.2c-2.6,4.7-4,8.4-4.9,12
	l-0.4,1.8l-0.3,1.5c-0.1,0.7-0.4,1.4-0.7,2.1c-0.7,1-1.9,1.3-5.1,1.2c0.9,0-9.9-0.3-15-0.3c-10.2,0-18.4,0.8-29.5,2.6
	c-16.9,2.7-17.7,2.8-23.7,2.5c-2.7-0.1-5.4-0.5-8-1.1c-17.7-4.2-46.2-5.9-54.7-3c-2.7,0.9-5.9,2.8-9.5,5.6c-2.2,1.7-4.4,3.6-6.5,5.5
	c-1.4,1.2-9.2,8.5-10.8,9.8c-1.4,1.2-8.2,7.4-8.8,8c-1.5,1.3-3,2.6-4.6,3.9c-5,4-8.9,6.2-11.9,6.2c-3.5,0.1-4.3,0-5.1-0.4
	c-1.1-0.6-1.5-1.7-1.1-3.6c0.7-3.6,4.5-10.8,12.8-24.8c5.7-9.5,9.4-18,11.8-26.2c1.4-5,1.9-7.4,3-14.5h1c-1.1,7.3-1.5,9.7-3,14.8
	c-2.4,8.3-6.2,16.9-11.9,26.4c-8.3,13.8-12,21-12.7,24.5c-0.3,1.4-0.1,2.1,0.6,2.5c0.6,0.3,1.3,0.3,3.5,0.3c3.9,0,7.7-2.1,12.5-6
	c1.4-1.1,2.9-2.4,4.5-3.9c0.7-0.6,7.4-6.8,8.9-8c1.6-1.3,9.3-8.5,10.8-9.8c2.4-2.2,4.6-4,6.6-5.5c3.7-2.8,7-4.8,9.8-5.7
	c8.8-2.9,37.4-1.2,55.3,3c2.6,0.6,5.1,1,7.8,1.1c5.8,0.2,6.7,0.1,23.5-2.5c11.1-1.8,19.4-2.6,29.6-2.6c5.2,0,16,0.3,15,0.3
	c2.9,0,3.8-0.2,4.3-0.8c0.2-0.3,0.4-0.8,0.6-1.7l0.3-1.4l0.4-1.9c0.9-3.6,2.4-7.4,5-12.2c1.9-3.4,3.4-7,4.7-10.8L298.3-164.1
	L298.3-164.1z M289.7-164.1c-5.9,17.9-9.5,22-19.8,22c-4.5,0-10.2,0.3-28.7,1.5l-1.5,0.1c-15.6,1-23.5,1.4-28.8,1.4
	c-5.4,0-13.2-1-28.9-3.3l-1.5-0.2c-18.4-2.7-24.1-3.5-28.6-3.5c-4.4,0-7.3,1-11,3.3c-0.1,0.1-1.8,1.2-2.3,1.5
	c-2.4,1.5-4.3,2.2-6.7,2.2c-2.8,0-4.1-1.5-4.1-4.2c0-1,0.2-2.3,0.5-4.1c0.2-0.8,0.9-4.4,1.1-5.3c0.8-4.1,1.3-7.7,1.5-11.4h2
	c-0.2,3.8-0.7,7.5-1.5,11.8c-0.2,0.9-0.9,4.5-1.1,5.3c-0.3,1.2-0.4,2.5-0.5,3.7c0,1.7,0.5,2.2,2.1,2.2c2,0,3.6-0.6,5.7-1.9
	c0.5-0.3,2.1-1.4,2.3-1.4c4-2.5,7.2-3.7,12-3.7c4.6,0,10.3,0.7,28.9,3.5l1.5,0.2c15.5,2.3,23.4,3.3,28.6,3.3s13.1-0.4,28.6-1.4
	l1.5-0.1c18.5-1.2,24.2-1.5,28.8-1.5c9,0,12.1-3.4,17.7-20H289.7z M140.4-164.1h1.1c-2.1,3.9-2.6,5.1-2.8,6.2
	c-0.1,1.1,0.4,1.6,2.3,2c1.9,0.2,3.9,0.3,10.9,0.3c6,0,13,0.6,21.4,1.6c3.9,0.5,8,1.1,13.1,1.9c24,3.7,22.5,3.5,26.8,3.5
	c24,0,51.8-2.2,60.4-6.9c2.9-1.6,5-4.5,6.6-8.6h1.1c-1.6,4.5-4,7.7-7.2,9.4c-8.8,4.8-36.7,7.1-60.9,7.1c-4.4,0-2.8,0.2-27-3.5
	c-5.1-0.8-9.2-1.4-13.1-1.9c-8.3-1.1-15.3-1.6-21.2-1.6c-7,0-9.1-0.1-11-0.4c-2.4-0.4-3.4-1.3-3.1-3.1
	C137.9-159.3,138.5-160.5,140.4-164.1L140.4-164.1z M216.8-164.1c5.7,1.6,10.4,2.5,14.1,2.5c9.6,0,16.7-0.7,22.4-2.5h3
	c-6.3,2.5-14.2,3.5-25.4,3.5c-4.5,0-10.3-1.2-17.5-3.5H216.8L216.8-164.1z M69.6-164.1c-2.9,3.3-7,5.4-12,6.5c-4,0.9-7.5,1.1-12.9,1
	c-0.6,0-1.2,0-1.8,0c-5.4,0-8.9-1.2-10.1-5c-0.3-0.8-0.4-1.7-0.4-2.5h1c0,0.8,0.1,1.6,0.4,2.2c1,3.2,4.1,4.3,9.1,4.3h1.8
	c5.3,0.1,8.8-0.1,12.7-1c4.5-1,8.2-2.8,10.9-5.6h1.3V-164.1z M-1.1,43.8c7.3-0.2,11.5,3.3,11.5,11.1c0,11.4-5.1,28.4-11.5,41.5v-2.3
	C4.8,81.4,9.4,65.6,9.4,54.9c0-7.2-3.7-10.3-10.5-10.1V43.8L-1.1,43.8z M-1.1,50.8c1.2,0.1,2.2,0.6,2.9,1.3c1.4,1.5,1.6,3.7,1.2,7.6
	L2.8,61c-0.2,1.3-0.3,2.6-0.4,3.9c0,3.2-1.5,9.5-3.5,15.9v-3.4c1.5-5.1,2.5-9.9,2.5-12.4c0-1,0.1-1.8,0.4-4L2,59.7
	c0.4-3.6,0.2-5.6-0.9-6.8c-0.5-0.5-1.2-0.9-2.2-1C-1.1,51.9-1.1,50.8-1.1,50.8z M-1.1,246.8v-1.5c1.2-1.4,2.2-3,3-4.7
	c1.3-2.7,2.7-6.3,4.6-11.9c7.8-23.5,7.8-26.6,0.2-30.4c-2.3-1.1-4.8-1.4-7.8-0.9v-1c2.8-0.6,5.7-0.2,8.2,1c8.2,4.1,8.3,7.6,0.2,31.6
	c-1.9,5.7-3.2,9.3-4.6,12C1.8,243.2,0.5,245.1-1.1,246.8z M32.5,287.9c1.7,0,3-0.2,8.3-1.3l2.4-0.5c8.3-1.6,12.7-1.3,14.5,2.3
	c1.4,2.8-0.5,5.9-4.8,9.7c-1.6,1.4-3.3,2.8-5.1,4.1c-0.9,0.7-4.9,3.6-5.8,4.3c-1.9,1.4-3,2.4-3.5,3c-1.3,1.7-2.2,3.5-2.9,5.5
	c0.1-0.2-4,13.6-7,22.2c-2.7,7.9-5.6,10.7-8.8,8.6c-2.1-1.4-3.7-4.2-6.6-11c-2-4.6-2.5-5.8-3.4-7.4c-4.6-8.2-3.9-23.9-0.1-32.9
	c1.2-3,3.8-5.3,7-6c2.6-0.7,4.9-0.8,11.8-0.7L32.5,287.9L32.5,287.9z M32.5,289.9c-1.1,0-2.1,0-3.8,0c-12.1-0.1-14.8,0.6-16.9,5.4
	c-3.6,8.5-4.3,23.5-0.1,31.1c1,1.7,1.5,2.9,3.5,7.6c2.7,6.3,4.2,9.1,5.9,10.1c1.6,1.1,3.5-0.8,5.8-7.5c2.4-7.4,4.8-14.8,7-22.2
	c0.7-2.2,1.8-4.2,3.2-6c0.7-0.9,1.8-1.9,3.9-3.4c0.9-0.7,4.9-3.6,5.8-4.3c2-1.5,3.6-2.8,5-4c3.6-3.2,5.1-5.7,4.3-7.3
	c-1.2-2.4-5.1-2.6-12.4-1.3l-2.3,0.5C35.8,289.7,34.4,289.9,32.5,289.9L32.5,289.9z M378.2,435.9c-3.5-12.3-3.8-14.1-3.8-19
	c0-3.3-0.1-6.3-0.4-11.3c-0.6-10.3-0.6-13.5,0.3-17.1c1.2-4.7,4.2-7.1,9.7-7.1h26c4.1,0,5.2,1.8,5.9,7.1c0.1,0.8,0.1,1,0.2,1.3
	c0.8,5.3,2.8,7.6,8.9,7.6c3.6,0,5.5,0.4,6.4,1.4c0.8,0.8,0.8,1.4,0.4,3.9c-0.9,5.3,0.5,8.8,7.5,13.8c6.3,4.5,11.6,5.4,16.5,3.4
	c3.8-1.5,6.7-4.2,11.9-10l1.1-1.2l1.1-1.2c0.9-1,1.8-1.9,2.7-2.9c2.8-2.8,6-5,9.6-6.7c1.5-0.8,1.7-0.9,5.7-2.6
	c6.1-2.7,9-4.5,11.7-7.6c2.6-3,4.7-4.8,6.7-6c3.2-1.8,5.5-2.1,13.7-2.1c6,0,10.6-4.3,18-15l2.8-4c1.1-1.5,1.9-2.7,2.8-3.8
	c7.9-10.1,19.4-10.4,30.7,1c5.5,5.5,10.2,19.4,13.6,38.5c2.5,13.8,4.2,29.5,4.5,39.8h-1c-0.3-10.3-2-26-4.5-39.7
	c-3.4-18.9-8-32.7-13.4-38c-11-11-21.8-10.7-29.3-1c-0.8,1.1-1.7,2.3-2.8,3.8l-2.8,4c-7.7,11-12.4,15.4-18.8,15.4
	c-8,0-10.2,0.3-13.2,2c-1.9,1.1-3.9,2.9-6.5,5.8c-2.9,3.3-5.9,5.1-12.1,7.9c-1.9,0.8-3.8,1.7-5.6,2.6c-3.4,1.7-6.6,3.9-9.3,6.5
	c-1.3,1.3-2.6,2.7-3.8,4l-1.1,1.2c-5.3,6-8.3,8.6-12.3,10.2c-5.3,2.1-10.9,1.2-17.5-3.5c-7.3-5.2-8.8-9.2-7.9-14.8
	c0.3-2.1,0.3-2.6-0.1-3.1c-0.6-0.7-2.3-1-5.7-1c-6.6,0-9-2.6-9.9-8.4l-0.2-1.3c-0.7-4.8-1.5-6.2-4.9-6.2h-26c-5,0-7.6,2-8.7,6.3
	c-0.9,3.4-0.9,6.6-0.2,16.8c0.3,3.8,0.4,7.6,0.4,11.4c0,4.8,0.3,6.6,3.8,19L378.2,435.9L378.2,435.9z M391.9,435.9
	c-1.3-6.6-1.6-10.7-1.4-14.8c0-0.7,0.1-1.4,0.2-2.4l0.2-2.6c0.3-3.8,0.5-7,0.5-11.2c0-4.9,1.5-7.8,4.2-8.4c2.4-0.6,5.6,0.5,9.2,3
	c6.6,4.5,14,13.1,16.5,19.2c4.8,11.4,14.1,15.7,33.5,15.7c8.6,0,14.3-2.3,20.7-7.9c1.5-1.3,15.1-15,21-20c7.2-6.1,11.8-7.6,20.6-8.3
	c5.5-0.5,8-0.9,11.4-2.4c4.6-2,9.4-5.5,14.9-11.3c7.4-7.8,13.2-8.9,17.5-4.3c3.3,3.6,5.5,10.6,6.8,20.2c0.7,5.2,0.9,7.7,1.6,17.4
	c0.2,3.8,0.2,5.3-0.9,18h-1c1.1-12.7,1.2-14.3,0.9-18c-0.6-9.6-0.8-12.2-1.6-17.3c-1.3-9.5-3.4-16.3-6.6-19.7
	c-3.8-4.1-8.9-3.1-16,4.3c-5.7,5.9-10.5,9.5-15.2,11.5c-3.6,1.5-6.1,2-11.6,2.4c-8.8,0.7-13.2,2.2-20.2,8.1c-5.9,5-19.5,18.7-21,20
	c-6.5,5.7-12.5,8.1-21.3,8.1c-19.8,0-29.5-4.4-34.5-16.3c-2.5-6-9.7-14.4-16.2-18.8c-3.4-2.3-6.4-3.3-8.4-2.9
	c-2.2,0.5-3.4,2.9-3.4,7.5c0,4.3-0.2,7.5-0.5,11.3l-0.2,2.6c-0.1,0.9-0.1,1.7-0.2,2.3c-0.2,4.1,0.1,8.2,1.4,14.8L391.9,435.9
	L391.9,435.9z M505.6,435.9c2.5-3.3,8.9-11.8,10.9-14.3c5.5-7,13-12.4,19.4-13.9c7-1.7,11.5,1.5,11.5,9.2c0,4,0,5.2-0.7,19h-1
	c0.7-13.8,0.7-15,0.7-19c0-7.1-3.9-9.8-10.3-8.3c-6.1,1.5-13.5,6.8-18.8,13.6c-1.9,2.4-7.6,10.1-10.4,13.7H505.6L505.6,435.9z
	 M495.7,96.9c3.4,2.7,7,5.1,11.4,7.8c1.1,0.6,8.4,4.9,10.3,6.1c11.3,7,15,13.4,12.3,25.3c-1.5,6.5-4.5,11.1-9.4,14.4
	c-3.8,2.6-8.1,4.3-16.1,6.6c-12,3.5-13.7,4-18.8,6.3c-2.7,1.2-5.3,2.6-7.8,4.2c-11.1,7.1-19.1,7.7-28,3.3c-3.6-1.8-17.2-11-17.2-11
	c-1.7-1.1-3.4-2.1-5.2-3.1c-16-8.8-34.3-24.2-34.5-31.9c-0.1-3.5,2-6.6,6.3-10.3c1-0.9,2.2-1.8,3.7-3c0.7-0.5,3.4-2.6,3.9-3
	c4.5-3.4,7.2-5.8,9.3-8.5c11.1-13.8,26.5-28.7,34.4-32.3c12.1-5.5,19.8-5.8,27.4,0.1c3.2,2.5,5.6,6.5,8.6,13.4
	c0.3,0.6,2.3,5.4,2.9,6.7c1.6,3.6,2.9,5.8,4.2,6.9C494.3,95.7,495,96.3,495.7,96.9L495.7,96.9z M492.3,96.7c-1.6-1.4-3-3.7-4.8-7.6
	c-0.6-1.3-2.6-6.1-2.9-6.8c-2.8-6.5-5.1-10.3-8-12.6c-6.8-5.4-13.9-5.1-25.3,0.1c-7.5,3.4-22.7,18.1-33.6,31.7
	c-2.3,2.8-5.1,5.3-9.7,8.8l-3.9,3c-1.2,0.9-2.4,1.9-3.6,2.9c-3.9,3.3-5.7,6-5.6,8.7c0.2,6.6,18.1,21.7,33.5,30.1
	c1.8,1,3.5,2,5.3,3.1c0.1,0.1,13.6,9.2,17,10.9c8.2,4.1,15.5,3.5,26-3.2c2.6-1.6,5.3-3.1,8.1-4.3c5.2-2.4,7-2.9,19.1-6.4
	c7.8-2.2,11.9-3.8,15.5-6.3c4.4-3,7.2-7.2,8.6-13.2c2.4-11-0.8-16.6-11.5-23.2c-1.9-1.2-9.2-5.4-10.3-6.1c-4.5-2.7-8.1-5.1-11.6-7.9
	C493.7,97.9,493,97.3,492.3,96.7L492.3,96.7z M86.6,77.5c4.3-3,7.9-5,12.1-6.9c0.8-0.4,1.7-0.8,2.8-1.2l4.4-1.9
	c6.1-2.6,12-5.6,17.7-9c9-5.3,18.3-10.1,27.9-14.5c4.2-1.9,21.9-9.8,21.2-9.5c19.2-8.6,28.1-6.9,49.5,8.1
	c7.9,5.5,13.2,13.2,16.4,22.7c3,8.8,3.8,16.5,3.8,27.8c0,8.3-0.7,13-3.7,19c-4.2,8.4-12.3,16.1-25.6,23.5
	c-24.4,13.5-38.8,27.5-52.8,47.8c-8.8,12.8-47.8,44.2-65.2,54.1c-21.2,11.9-47.3,21.9-65.2,21.9c-10,0-14.7-4.8-14.8-13.4
	c-0.1-6.3,2.1-13.7,6.3-24.3c3-7.4,2-12.9-2.2-22.3c-3.2-7.2-3.9-9.1-3.9-12.5s1.9-6.9,5.5-11.1c2.6-3,3.5-3.8,11.9-11.5
	c5.1-4.7,8.1-7.6,10.7-10.8c9.5-11.4,12.6-19.5,17.9-44.8c3.1-15,6.6-20.3,15.1-25.2c0.8-0.5,3.9-2.2,4.7-2.7
	C83.1,79.8,84.9,78.7,86.6,77.5L86.6,77.5z M87.2,78.3c-1.8,1.2-3.6,2.4-5.4,3.4l-4.7,2.7c-8.2,4.8-11.6,9.8-14.7,24.6
	c-5.3,25.5-8.5,33.7-18.1,45.2c-2.7,3.2-5.7,6.2-10.8,10.8c-8.4,7.6-9.2,8.5-11.8,11.4c-3.5,4-5.3,7.4-5.3,10.4
	c0,3.2,0.7,5.1,3.8,12.1c4.3,9.6,5.2,15.4,2.2,23.1c-4.2,10.5-6.3,17.8-6.2,23.9c0.1,8.1,4.3,12.4,13.8,12.4
	c17.7,0,43.7-9.9,64.8-21.9c17.3-9.9,56.1-41.2,64.8-53.9c14.1-20.4,28.6-34.6,53.2-48.2c13.1-7.2,21.1-14.9,25.2-23
	c2.9-5.9,3.6-10.4,3.6-18.5c0-11.1-0.7-18.7-3.7-27.4c-3.1-9.2-8.4-16.8-16.1-22.2c-21.1-14.8-29.7-16.4-48.5-7.9
	c0.7-0.3-17,7.6-21.2,9.5c-1.7,0.8-3.3,1.6-4.9,2.3c-7.8,3.7-15.5,7.8-22.9,12.2c-5.8,3.4-11.7,6.4-17.8,9l-4.4,1.9
	c-1,0.4-1.9,0.8-2.8,1.2C95,73.4,91,75.7,87.2,78.3z M79.6,90.5c7.7-6.2,12.3-8.2,23.7-11.3c6.1-1.7,9.1-2.9,12.3-5.7
	c3.8-3.3,7.5-4.5,15.9-6.1c2.8-0.5,3.7-0.7,5.1-1c5.5-1.2,9.5-2.9,13.1-5.9c10.4-8.5,25.4-14.1,36.3-14.1c5.3,0,16.8,7.6,25.7,17.2
	c10.7,11.5,16,23.3,12.7,32.5c-3.2,9.1-11.4,18.6-23,27.9c-8.4,6.7-18.4,13-25.2,16.4c-3.7,1.9-6.6,4.9-9.8,10
	c-0.7,1.1-11.1,20.2-16,27.8c-5.6,8.6-15.4,17.4-30.2,28c-3,2.2-6.1,4.3-9.2,6.4c-0.1,0.1-6.8,4.6-8.6,5.9
	c-6.5,4.5-10.3,7.4-13.1,9.8c-11.6,10.7-37.1,15.5-43.7,9c-2-2-2.2-4.1-2-10.5c0.4-9.4-0.5-14.5-5-20.5c-2-2.6-4.4-5-7-6.9
	c-3.9-3-6.1-6.1-6.6-9.5c-1-6.6,3.9-13.1,14.2-21.7c1.6-1.3,6.7-5.4,7.1-5.8c1.9-1.5,3.6-3.1,5.2-4.8c4.1-4.6,5.8-9.5,7.8-20.1
	c0.3-1.5,0.5-2.9,0.8-4.4c0.3-1.9,0.6-3.3,0.9-4.7c0.7-3.8,1.5-7.2,2.4-10.6c1-3.8,1.4-5.5,2.4-10.4c0.6-3,0.9-4.2,1.6-5.5
	C68.6,99.5,68.6,99.4,79.6,90.5L79.6,90.5z M80.2,91.3c-10.8,8.7-10.9,8.8-12,11.1c-0.6,1.2-0.9,2.3-1.5,5.2
	c-1,4.9-1.4,6.6-2.4,10.4c-0.9,3.4-1.7,6.8-2.4,10.6c-0.5,2.3-0.9,4.6-1.3,7l-0.4,2.1c-2,10.7-3.8,15.7-8,20.5
	c-1.7,1.8-3.4,3.4-5.3,4.9c-0.4,0.3-5.5,4.5-7.1,5.8c-10,8.4-14.7,14.6-13.8,20.8c0.5,3.1,2.4,6,6.2,8.8c3,2.2,5.4,4.6,7.2,7.1
	c4.6,6.2,5.5,11.5,5.2,21.1c-0.2,6.1,0,8.1,1.7,9.8c6.1,6.1,31,1.3,42.3-9c2.8-2.5,6.7-5.4,13.2-9.9l8.6-5.9
	c3.6-2.5,6.4-4.4,9.2-6.4c14.7-10.5,24.4-19.2,30-27.7c4.9-7.5,15.3-26.7,16-27.8c3.3-5.3,6.3-8.4,10.2-10.4
	c6.8-3.4,16.6-9.6,25-16.3c11.5-9.2,19.6-18.5,22.7-27.4c3.1-8.8-2-20.3-12.5-31.5c-8.8-9.4-20-16.8-25-16.8
	c-10.7,0-25.4,5.5-35.7,13.9c-3.8,3.1-7.9,4.8-13.5,6.1c-1.4,0.3-2.4,0.5-5.1,1c-8.2,1.6-11.8,2.7-15.4,5.9
	c-3.3,2.9-6.4,4.2-12.7,5.9C92.3,83.3,87.8,85.1,80.2,91.3L80.2,91.3z M210.9,87.8c0,7.6-0.6,10.9-2.6,14.3
	c-1.1,1.8-7.7,10-8.6,11.3c-6,7.9-9.3,10.3-17.3,13.8c-1.3,0.6-2.2,1-3,1.5c-0.6,0.3-1.2,0.7-2,1c-0.7,0.3-4.5,1.9-5.5,2.4
	c-6.1,2.8-9,5.8-9,10.7c0,11-18.9,36.1-34.5,44.9c-8.2,4.6-21.3,9.4-32.8,11.9c-13.3,2.9-22.5,2.5-24.6-2.3c-1.3-3-4.4-4.3-12-5.8
	l-0.6-0.1c-4.8-1-6.9-1.5-9-2.6c-2.9-1.5-4.5-3.7-4.5-6.8c0-2.7,1.1-5.8,3.2-9.7c0.8-1.5,1.8-3.1,3.2-5.4c-0.2,0.2,2.8-4.4,3.7-5.8
	c6.7-10.7,9.8-18.5,9.8-27.2c0-18.4,11.2-33.4,27.5-42.9c5.2-3.1,9.2-3.3,15.2-2.1c5,1,6.1,0.9,7.4-1.5c4.5-7.9,7-9.5,15.9-9.5
	c3.9,0,7-1,10.5-3.2c1.6-1,8.7-6.2,11-7.7c9.2-6,11.3-7,25.2-11.9c6.9-2.5,15.2,1.3,22.3,9.1C206.4,71.3,210.9,80.7,210.9,87.8
	L210.9,87.8z M208.9,87.8c0-6.5-4.2-15.5-10.5-22.3c-6.7-7.3-14.2-10.7-20.2-8.6c-13.7,4.9-15.7,5.9-24.8,11.8
	c-2.2,1.5-9.4,6.7-11,7.7c-3.8,2.4-7.2,3.5-11.5,3.5c-8.1,0-10,1.2-14.1,8.5c-1.1,1.9-2.5,2.9-4.3,3.1c-1.3,0.1-1.9,0.1-5.2-0.6
	c-5.5-1.1-9.1-0.9-13.8,1.9c-15.8,9-26.6,23.4-26.6,40.9c0,9.2-3.3,17.3-10.2,28.3l-3.7,5.8c-1.4,2.2-2.3,3.8-3.2,5.2
	c-2,3.6-3,6.4-3,8.7c0,4.2,2.9,5.7,11.9,7.5l0.6,0.1c8.3,1.7,11.7,3.1,13.4,7c3.2,7.1,36,0,54.6-10.5c15-8.4,33.5-33,33.5-43.1
	c0-5.9,3.5-9.5,10.2-12.5c1.1-0.5,4.9-2.1,5.5-2.4c0.7-0.3,1.3-0.6,1.8-0.9c0.9-0.5,1.9-1,3.2-1.6c7.6-3.4,10.8-5.5,16.5-13.1
	c1-1.4,7.5-9.4,8.5-11.1C208.4,98,208.9,95,208.9,87.8L208.9,87.8z M171.7,65.4c0.1-0.1,2.4-1.5,2.9-1.8c1-0.6,1.7-0.9,2.4-1.2
	c2.6-0.8,5.1-0.1,11,3.1c14.9,8,19.4,22.9,9.2,38.7c-4,6.2-9.4,9-18.7,11.1c-0.9,0.2-1.2,0.3-3.1,0.7c-6,1.3-8.8,2.1-11.6,3.6
	c-3.6,2-6.1,5-7.5,9.4c-7.9,24.9-19.7,43.3-36.3,50.3c-16.4,6.9-21.1,8.5-28,8.9c-4.9,0.2-9.8-0.6-15.4-2.9
	c-1.9-0.7-3.8-1.6-5.6-2.6c-4-2.3-5.1-4.7-4.5-9.3c0.3-2.1,3.8-15.5,4.8-20.6c0.6-3,1.2-6.1,1.8-9.7c0.5-3,0.9-5.9,1.3-8.9
	c1.4-9.4,2.5-14.3,4.5-18.6c2.5-5.4,6.1-9,11.7-11.1c6.6-2.5,10.5-3.1,18-3.5c4.8-0.3,6.7-0.6,9-2c0.6-0.4,1.2-0.8,1.8-1.3
	c1.2-1,2.3-2.2,3.4-3.4c0.6-0.7,2.4-2.9,2.6-3.2c3.4-4,6.3-5.5,12.3-5.5c3.9,0,5.9-0.9,8.2-3.4c-0.2,0.2,2.8-3.1,3.9-4.2
	c2-2,4.3-3.7,6.8-5c1.5-0.8,3.1-1.6,5-2.4C165.2,69,168.5,67.3,171.7,65.4L171.7,65.4z M157.2,73.7c-2.4,1.3-4.6,2.9-6.6,4.8
	c-1.3,1.4-2.6,2.8-3.8,4.2c-2.5,2.6-4.7,3.7-8.9,3.7c-5.7,0-8.4,1.4-11.6,5.2c-0.2,0.3-2,2.5-2.6,3.2c-1.1,1.3-2.2,2.4-3.5,3.5
	c-0.7,0.5-1.3,1-2,1.4c-2.5,1.5-4.6,1.9-9.5,2.2c-7.4,0.4-11.2,1-17.7,3.5c-5.3,2-8.8,5.4-11.2,10.6c-1.9,4.3-3,9.1-4.4,18.4
	l-0.7,4.3l-0.7,4.6c-0.6,3.6-1.1,6.7-1.8,9.7c-1.1,5.2-4.5,18.5-4.8,20.6c-0.6,4.2,0.3,6.2,4,8.3c1.3,0.8,3.1,1.6,5.5,2.5
	c5.5,2.2,10.2,3,15,2.8c6.7-0.3,11.3-1.9,27.7-8.8c16.2-6.8,27.9-25,35.7-49.7c1.5-4.7,4.1-7.9,8-10c2.9-1.6,5.7-2.5,11.9-3.8
	c1.9-0.4,2.3-0.5,3.1-0.7c9.1-2.1,14.2-4.7,18.1-10.7c9.9-15.3,5.6-29.6-8.8-37.3c-5.8-3.1-8-3.8-10.2-3.1c-0.6,0.2-1.3,0.5-2.2,1.1
	c-0.6,0.3-2.8,1.7-2.9,1.8c-3.2,2-6.6,3.7-10.2,5.2C160.3,72.1,158.7,72.9,157.2,73.7L157.2,73.7z M114.8,106.4
	c16.1-2.9,26.4-1,32.5,6.2c5.1,5.9,1.1,21.4-5.9,35.5c-4.8,9.6-10.6,16.2-23.2,25.2c-14.2,10.1-35.5,12.2-40.7,3.9
	c-1.9-3-2.1-8.1-1.1-15.7c0.8-5.7,1.9-10.7,4.7-23l0.1-0.5c1.6-6.8,2.4-10.3,3.1-14.1c1.4-7.2,3.7-11.5,7.3-13.7
	c2.8-1.8,5.5-2.3,12.3-2.6C109.3,107.2,111.6,107,114.8,106.4L114.8,106.4z M115,107.4c-3.3,0.6-5.6,0.8-10.9,1
	c-6.6,0.3-9.2,0.8-11.8,2.5c-3.2,2.1-5.4,6.1-6.8,13.1c-0.8,3.8-1.6,7.4-3.2,14.2l-0.1,0.5c-2.9,12.2-3.9,17.3-4.7,22.9
	c-1,7.4-0.8,12.4,0.9,15.1c4.8,7.7,25.5,5.7,39.3-4.1c12.4-8.9,18.1-15.4,22.8-24.8c6.9-13.7,10.8-29,6.1-34.5
	C140.7,106.4,130.8,104.6,115,107.4z M130.9,112.4c7.1,0,10.7,3.1,11.2,8.7c0.4,4-0.4,8.1-2.8,15.9c-2.6,8.5-18.4,25.4-27.2,31.3
	c-7,4.7-20,5.7-26.6,1c-4-2.9-3.5-12.1,0-26.5c0.7-2.8,1.5-5.6,2.4-8.8c1-3.4,2-6.8,3.1-10.1l0.4-1.2c1.5-4.8,5.1-7.8,10.7-9.3
	c4.4-1.2,9.5-1.5,17.5-1.3l3.9,0.1C127.4,112.4,128.9,112.4,130.9,112.4z M130.9,113.4c-2,0-3.5,0-7.4-0.1l-3.9-0.1
	c-7.8-0.2-12.9,0.1-17.2,1.3c-5.3,1.4-8.7,4.2-10,8.6c-0.5,1.7-1.1,3.5-1.6,5.2c-0.7,2.2-1.3,4.2-1.8,6.1c-0.9,3.1-1.7,6-2.4,8.7
	c-3.4,13.9-3.9,22.9-0.4,25.4c6.2,4.4,18.7,3.5,25.4-1c8.7-5.8,24.3-22.5,26.8-30.7c2.3-7.7,3.1-11.7,2.7-15.6
	C140.6,116.1,137.5,113.4,130.9,113.4L130.9,113.4z M113.1,120.4c2.9,0.1,5.8,0.5,8.6,1.4c5.4,1.8,8.7,5,8.7,10.1
	c0,9.6-9.5,17.2-22.3,21.5c-9.8,3.3-13.6-1.8-11.7-16.5c0.8-6.3,3.8-10.7,8.2-13.5C107.2,121.8,110.1,120.7,113.1,120.4z
	 M112.5,121.5c-2.6,0.4-5.1,1.3-7.3,2.7c-4.2,2.6-7,6.8-7.8,12.8c-1.9,14.1,1.4,18.5,10.3,15.5c12.5-4.2,21.7-11.5,21.7-20.5
	c0-4.6-3-7.5-8-9.1c-2.7-0.9-5.4-1.3-8.2-1.4C113,121.4,112.8,121.4,112.5,121.5z M193.4,98c-2.7,9.8-14.9,9.9-26.7,3.3
	c-10.2-5.6-13.8-18-5-22.9c1.5-0.8,3-1.7,4.5-2.7l2-1.3c1.3-0.8,2.6-1.6,3.9-2.3c4.7-2.4,8.8-2.8,14-0.7
	C195.3,75.1,197.1,84.8,193.4,98L193.4,98z M172.6,73c-1.3,0.7-2.6,1.4-3.8,2.2l-2,1.3c-0.8,0.5-1.5,0.9-2.2,1.4
	c-0.8,0.5-1.6,1-2.4,1.4c-7.9,4.4-4.6,15.8,5,21.1c11.3,6.3,22.8,6.2,25.3-2.7c3.6-12.8,1.9-22-6.7-25.4
	C180.8,70.4,177,70.7,172.6,73L172.6,73z M190.4,85.2c0,5.7-2.4,9-6.6,10c-3.3,0.8-7.6,0-11.1-1.8l-1.9-0.9
	c-0.7-0.3-1.2-0.6-1.6-0.9c-4.1-2.4-4.1-5,0.3-10.9C176.3,71.5,190.4,73.4,190.4,85.2L190.4,85.2z M189.4,85.2
	c0-5.3-2.9-8.6-7.3-9.2c-4.2-0.6-9,1.4-11.8,5.2c-4.1,5.5-4.1,7.4-0.6,9.5c0.4,0.2,0.9,0.5,1.6,0.9l1.9,0.9
	c3.3,1.7,7.4,2.4,10.4,1.7C187.3,93.3,189.4,90.4,189.4,85.2L189.4,85.2z M385.9,366.2c0-12.8,2.4-16.7,18.5-29.8
	c2.4-1.9,4.9-3.7,7.6-5.2c2.6-1.5,5.3-2.8,8.5-4.2c1.2-0.5,2.5-1,4.1-1.7l3.9-1.6c9.4-3.8,13.7-6.7,16.6-12c1.2-2.2,2.2-4.4,3.2-6.8
	c0.5-1.3,1-2.6,1.5-3.8l0.3-0.7l0.6-1.4c3.2-8,6-12.1,12.7-16.5c1.8-1.2,3.4-2.5,5-4c1.4-1.3,2.7-2.8,3.9-4.3c0.3-0.3,2.5-3.2,3.2-4
	c3.5-4.1,6.5-5.9,11.5-5.9c3.1,0,5.6-0.6,9.6-2.1c5.4-2,6.5-2.3,9-2.2c2.5,0.1,4.9,1.3,7.2,3.6c1.3,1.3,5.5,5.8,6.5,6.8
	c5.1,5,9.4,6.9,17.8,6.9c4,0,8.1,0.2,12.1,0.5c15.9,0.9,21.9,0.6,25.3-2.2c6.9-5.8,11.6-2.7,11.6,7.8c0,10.7-8.6,20-19,20
	c-4.8,0-8.3,1.4-9.3,3.7c-1.1,2.5,0.7,6.1,6,10.6c13.6,11.3,11.2,20.8-7.6,20.8c-5.3-0.1-10.5,1.8-14.6,5.2
	c-3.3,2.7-5.8,5.9-9.8,11.8l-1.5,2.2c-3.1,4.6-5,7.1-7.3,9.4c-6.2,6.2-9.3,7.6-13,6.9l-1-0.2c-0.9-0.2-1.8-0.4-2.7-0.4
	c-1.6,0-2.4,0.7-8.2,6.2c-4.9,4.7-8.1,6.8-11.8,6.8c-1.3,0-3.5,1.2-6.5,3.5c-1.3,1-2.7,2.1-4.5,3.7l-4.9,4.3c-1.5,1.3-3,2.6-4.5,3.8
	c-9.3,7.6-15.6,10.2-20.2,6.5c-2.7-2.2-4.1-4.5-4.6-7.3c-0.4-2-0.3-3.6,0.3-7.3c0.9-5.8,0.6-8.4-1.8-11.6c-2.3-3-3-3.2-3.8-2.4
	c-0.2,0.3-1.4,1.6-1.6,1.9c-2.2,2.5-4.9,3.6-9,2.8c-4.6-0.8-5.6-4.1-4.7-10.1l0.2-1.6c0.6-3.7,0.7-4.9,0.2-5.8
	c-0.4-0.9-1.9-0.9-5.2,0.4l-0.7,0.3c-13.8,5.5-15.3,6.1-19.4,6.7C389.2,374.9,385.9,372.5,385.9,366.2L385.9,366.2z M387.9,366.2
	c0,5,2.1,6.6,7,5.9c3.9-0.5,5.4-1.1,19-6.5l0.8-0.3c4.2-1.7,6.7-1.5,7.8,0.6c0.7,1.4,0.6,2.8-0.1,7l-0.2,1.5c-0.7,5-0.1,7.3,3.1,7.8
	c3.4,0.6,5.4-0.2,7.1-2.2c0.2-0.2,1.3-1.7,1.7-2c1.9-2,3.8-1.2,6.8,2.5c2.9,3.7,3.2,6.8,2.2,13.1c-1,6.8-0.5,9.4,3.6,12.7
	c3.5,2.8,9.1,0.5,17.7-6.5c1.4-1.1,2.8-2.3,4.5-3.8l4.9-4.3c1.8-1.6,3.3-2.8,4.6-3.8c3.3-2.6,5.7-3.9,7.7-3.9c3,0,6-1.9,10.4-6.2
	l2.5-2.4c0.9-0.9,1.7-1.6,2.4-2.1c1.8-1.5,3.3-2.3,4.7-2.3c1,0,1.8,0.1,3.1,0.4c0.7,0.2,0.7,0.2,1,0.2c3,0.6,5.5-0.5,11.2-6.3
	c2.2-2.2,4.1-4.7,7.1-9.1l1.5-2.2c4.2-6.1,6.8-9.4,10.2-12.2c4.4-3.8,10.1-5.8,15.9-5.7c16.9,0,18.6-7,6.4-17.2
	c-5.9-4.9-8.1-9.4-6.5-12.9c1.4-3.1,5.7-4.8,11.2-4.8c9.2,0,17-8.3,17-18c0-8.9-2.9-10.8-8.4-6.2c-3.9,3.3-10,3.6-26.7,2.7l-1-0.1
	c-5.1-0.3-8-0.4-11-0.4c-8.9,0-13.8-2.1-19.2-7.5c-1-1-5.3-5.5-6.5-6.8c-2-2-3.9-2.9-5.9-3s-3.1,0.2-8.1,2.1
	c-4.1,1.5-6.9,2.2-10.3,2.2c-4.3,0-6.8,1.5-10,5.2c-0.6,0.7-2.9,3.6-3.2,4c-1.3,1.6-2.6,3.1-4,4.5c-1.6,1.6-3.4,3-5.2,4.2
	c-6.3,4.2-8.9,7.9-12,15.6l-0.6,1.4l-0.3,0.7c-0.5,1.3-1,2.6-1.6,3.9c-1,2.4-2.1,4.7-3.3,7c-3.2,5.9-7.8,9-17.6,13l-3.9,1.6
	c-1.6,0.6-2.8,1.1-4,1.7c-2.8,1.2-5.6,2.6-8.3,4.1c-2.6,1.5-5,3.2-7.4,5C390,350.7,387.9,354.1,387.9,366.2L387.9,366.2z
	 M521.1,286.4c3.1,1.5,6.5,2,10.7,1.7c2.5-0.2,4.9-0.6,8.8-1.5c5.4-1.2,6.3-1.4,8.3-1.5c2.8-0.2,4.8,0.2,6.3,1.4
	c1.6,1.3,2,2.7,1.3,4.2c-0.7,1.4-1,1.7-5,5.1c-3.5,2.9-5,4.8-5,7.1c0,7.3,1.3,10,7.8,15.6c3.9,3.3,5.9,6.8,5.3,9.6
	c-0.8,3.2-5,5-12.6,5c-7.2,0-12.7,4.6-20,14.7c-0.5,0.7-4,5.6-4.9,6.9c-1.4,2-3,3.8-4.7,5.5c-1.1,1-2.1,1.7-3.1,2.2
	c-2.8,1.3-5,1.6-9.8,1.7c-7.7,0.3-10.9,1.5-15,7.1c-1.6,2.2-3.1,4-4.7,5.6c-2.6,2.6-5.5,4.8-8.6,6.7c-0.1,0.1-10.7,6.2-14.8,8.8
	c-3.8,2.4-6.5,2-8.2-0.8c-1.3-2-1.9-4.5-2.9-10.3c-0.8-5.1-1.3-7.1-2.1-8.9c-1-2.3-2.2-3.2-4-2.9c-6.2,1.2-9,1.4-11,0.2
	c-2.4-1.4-3.1-4.6-2.6-10.7c0.2-2-1-2.9-3.8-3c-2.2-0.1-4.9,0.2-9.9,1.1l-0.7,0.1c-8,1.5-10.7,1.7-12.7,0.7
	c-2.9-1.4-1.6-5.3,4.2-12.2c5.5-6.5,10.6-10.8,15.8-13.5c3.7-2,5.9-2.6,12.2-4.1c7.3-1.7,10.4-3.5,14-9.3c3-4.8,10.7-18.6,12.1-20.8
	c3.6-5.7,6.8-9.1,11-11.3c2.6-1.4,4.7-2.8,9.2-6.1l1.4-1c7.9-5.7,12.3-8,17.7-8c4.2,0,6.5,1.4,9.1,4.8c0.3,0.4,1.7,2.2,2,2.7
	c0.8,1.1,1.6,2,2.5,2.8C516.4,283.6,518.7,285.2,521.1,286.4L521.1,286.4z M520.7,287.3c-2.8-1.4-5-3-6.9-5
	c-0.9-0.9-1.7-1.8-2.5-2.9c-0.4-0.5-1.7-2.2-2-2.7c-2.5-3.2-4.5-4.4-8.3-4.4c-5.1,0-9.4,2.2-17.1,7.8l-1.4,1
	c-4.5,3.3-6.6,4.7-9.3,6.1c-4.1,2.1-7.2,5.5-10.7,11c-1.4,2.2-9.2,16-12.1,20.8c-3.8,6.1-7.1,8-14.7,9.8c-6.1,1.5-8.3,2.1-11.9,4
	c-5,2.7-10,6.9-15.5,13.3c-5.4,6.5-6.5,9.7-4.5,10.7c1.7,0.8,4.5,0.6,12.1-0.8l0.7-0.1c5.1-0.9,7.8-1.3,10.2-1.1
	c3.2,0.2,4.9,1.5,4.7,4.1c-0.5,5.8,0.2,8.6,2.1,9.8c1.7,1,4.3,0.9,10.3-0.3c2.4-0.5,4,0.8,5.1,3.5c0.8,2,1.3,4,2.1,8.8l0.1,0.4
	c0.9,5.7,1.5,8.1,2.7,10c1.5,2.3,3.5,2.6,6.8,0.5c4.1-2.7,14.7-8.8,14.8-8.8c3.1-1.8,5.9-4,8.5-6.5c1.7-1.7,3.2-3.5,4.6-5.5
	c4.3-6,7.8-7.2,15.7-7.5c4.7-0.2,6.8-0.5,9.5-1.7c0.9-0.4,1.8-1.1,2.8-2c1.7-1.6,3.2-3.4,4.6-5.4c1-1.3,4.4-6.2,4.9-6.9
	c7.5-10.3,13.2-15.1,20.8-15.1c7.2,0,11-1.6,11.6-4.2c0.5-2.3-1.4-5.5-5-8.6c-6.8-5.8-8.2-8.8-8.2-16.4c0-2.7,1.6-4.7,5.4-7.9
	c3.8-3.2,4.2-3.6,4.8-4.7c0.5-1.1,0.2-2-1-3c-2.2-1.9-4.7-1.6-13.8,0.4c-3.9,0.9-6.3,1.3-8.9,1.5
	C527.6,289.5,523.9,288.9,520.7,287.3L520.7,287.3z M492.7,283.4c5.6-2.8,9-2.2,12.9,1.4c0.6,0.5,2.6,2.5,3,2.9
	c4.2,3.9,8.1,5.7,14.3,5.7c11.4,0,14,1.4,16.1,8.1c0.3,0.8,1.3,4.6,1.7,5.6c0.8,2.6,1.6,5,2.7,7.6c2.1,5.2,2.6,8.3,1.7,10.2
	c-0.8,1.6-2.1,2.2-5.4,2.8c-2.3,0.4-2.8,0.5-3.8,0.9c-1.8,0.6-3.3,1.4-4.6,2.7c-1,1-2,2.1-3.3,3.7c-0.6,0.7-2.9,3.5-3.5,4.1
	c-7.2,8.5-12.4,12.4-19.6,12.4c-3.8,0-7,1.3-10.6,4c-1.8,1.4-11.6,10.3-15.2,13.1c-2.8,2.2-5.8,4.1-9,5.9c-4.6,2.5-7.4,3.2-9,2.2
	c-1.3-0.8-1.6-2.1-1.9-5.5c0-0.6-0.1-1.2-0.2-1.8c-0.5-4.7-2.2-6.9-7.2-6.9c-7.1,0-8.9-1.2-9.7-5.4c-1-4.6-2.1-6.7-6.5-9.7
	c-4-2.6-4.3-5.4-1.5-8.2c2-2,4.6-3.5,11.4-6.9c6.6-3.3,9.2-4.8,11.1-6.7c2-2,3.8-4.1,5.3-6.5c1-1.5,1.8-3,2.9-5.1l2.1-4.3
	c0.9-1.8,1.7-3.4,2.6-5C475.2,294.3,479.8,289.9,492.7,283.4L492.7,283.4z M470.3,305.1c-0.9,1.6-1.7,3.1-2.6,4.9l-2.1,4.3
	c-0.9,1.8-1.9,3.5-2.9,5.2c-1.6,2.4-3.4,4.6-5.4,6.6s-4.6,3.5-11.4,6.9c-6.6,3.3-9.2,4.8-11.1,6.7c-2.3,2.3-2.1,4.4,1.4,6.7
	c4.7,3.1,6,5.5,7,10.3c0.8,3.7,2.1,4.6,8.8,4.6c5.5,0,7.6,2.6,8.1,7.8c0.1,0.5,0.1,0.8,0.2,1.8c0.2,3.1,0.5,4.2,1.5,4.7
	c1.2,0.7,3.7,0.1,8-2.2c3.1-1.7,6-3.7,8.8-5.8c3.5-2.7,13.3-11.7,15.2-13.1c3.8-2.8,7.2-4.2,11.2-4.2c6.8,0,11.8-3.7,18.8-12
	l3.5-4.1c1.1-1.3,2.2-2.5,3.4-3.7c1.4-1.4,3.1-2.4,5-2.9c1.1-0.3,1.6-0.5,4-0.9c3-0.5,4.1-1,4.7-2.2c0.8-1.6,0.3-4.5-1.7-9.4
	c-1-2.5-2-5.1-2.7-7.7c-0.3-1-1.4-4.8-1.7-5.6c-2-6.2-4.2-7.4-15.1-7.4c-6.5,0-10.6-1.9-15-6c-0.4-0.4-2.5-2.4-3-2.9
	c-3.6-3.3-6.5-3.9-11.8-1.2C480.4,290.7,476,295,470.3,305.1L470.3,305.1z M526.2,317.1c-3,6.5-16.8,15.3-26.7,15.3
	c-5.3,0-7.6-3-7.1-7.9c0.3-3.5,2.1-7.9,3.9-10.6l1.5-2.3c0.6-0.9,1.2-1.8,1.9-2.7c3.7-4.8,7.9-7.5,13.6-7.5
	C522.4,301.4,529.1,310.9,526.2,317.1L526.2,317.1z M525.3,316.6c2.5-5.5-3.7-14.3-12-14.3c-5.4,0-9.3,2.5-12.8,7.1
	c-0.6,0.8-1.2,1.6-1.9,2.6c0,0-1.2,1.9-1.5,2.3c-1.7,2.6-3.5,6.9-3.8,10.1c-0.4,4.3,1.4,6.8,6.1,6.8
	C509,331.3,522.5,322.7,525.3,316.6L525.3,316.6z M455.6,337.4c2.1,0.2,4.4,0.8,5.9,1.8c2.1,1.5,2.2,3.6-0.3,6
	c-5.1,5.1-12.9,4.3-12.9-1.4C448.4,339.2,451.5,337,455.6,337.4L455.6,337.4z M455.5,338.4c-3.6-0.3-6.1,1.5-6.1,5.5
	c0,4.6,6.5,5.3,11.1,0.6c2-2,2-3.4,0.4-4.5C459.7,339.1,457.5,338.5,455.5,338.4L455.5,338.4z M485.1,112.4
	c4.6,2.4,17.3,8.2,19.4,9.4c2.7,1.4,5.1,3.3,7,5.6c1.4,1.6,2.6,3.4,3.8,5.2c2.4,3.8,0,7.7-6.2,11.6c-5,3.2-12.2,6.3-22,9.8
	c-4.8,1.7-19.6,6.7-21.1,7.2c-6.6,2.3-14.9,0.1-25.1-5.9c-3.9-2.3-8-5-12.9-8.5c-2.2-1.6-9.5-7-10.7-7.9c-2.8-2.1-5.6-4-8.6-5.7
	c-4.8-2.6-4.5-6.6,0.2-12.1c3.3-3.9,4.2-4.7,18.1-16.3c3-2.5,6-5.1,8.9-7.7c1.6-1.5,3.2-3.1,4.7-4.7c5.1-5.4,9.8-6.5,15-3.9
	c2.2,1.1,4.5,2.9,7.4,5.5c1.5,1.4,6.9,6.7,8,7.7C476.1,106.8,480.4,110.1,485.1,112.4L485.1,112.4z M484.7,113.3
	c-4.9-2.5-9.2-5.8-14.4-10.8c-1-1-6.5-6.3-8-7.7c-2.8-2.6-5.1-4.3-7.2-5.4c-4.8-2.4-9-1.4-13.8,3.7c-1.5,1.6-3.1,3.2-4.8,4.7
	c-2.5,2.3-5.2,4.6-8.9,7.8c-13.9,11.6-14.8,12.4-18,16.2c-4.3,5.1-4.6,8.4-0.5,10.6c2.2,1.2,4.9,3,8.7,5.8c1.2,0.9,8.5,6.2,10.7,7.9
	c4.1,3,8.4,5.9,12.9,8.5c10.1,5.8,18.1,8,24.3,5.8c1.5-0.5,16.3-5.5,21.1-7.2c9.7-3.5,16.9-6.6,21.8-9.7c5.8-3.7,7.9-7.1,5.9-10.3
	c-1.1-1.8-2.3-3.5-3.7-5.1c-1.9-2.2-4.2-4.1-6.8-5.4C501.9,121.6,489.3,115.7,484.7,113.3L484.7,113.3z M445.8,121.4
	c3.1-0.4,5.7-0.1,8.4,0.7c2.1,0.7,2.7,0.9,8.6,3.8c4.8,2.3,8.4,3.9,13.2,5.6c8.4,3,11.3,6.2,8.8,9.8c-2.1,2.9-8,5.9-17.8,9.2
	c-8.5,2.8-15.5,2.4-21.4-0.9c-4.6-2.5-8.3-6.5-12.1-12.3c-2.9-4.4-2.7-8.2,0.2-11.1C436.1,123.6,440.5,122,445.8,121.4L445.8,121.4z
	 M446,122.4c-5.1,0.6-9.3,2.2-11.6,4.4c-2.5,2.5-2.7,5.8,0,9.8c3.7,5.7,7.3,9.5,11.8,12c5.7,3.1,12.4,3.6,20.6,0.8
	c9.6-3.2,15.4-6.1,17.3-8.8c1.9-2.8-0.5-5.5-8.4-8.2c-4.8-1.7-8.5-3.3-13.3-5.6c-5.8-2.8-6.4-3.1-8.5-3.7
	C451.4,122.2,448.6,122,446,122.4L446,122.4z M201.4,336.3c0,4.8-1.4,7.6-4.4,8.9c-2.3,1-4.6,1.2-10.8,1.2h-1.8
	c-9.2,0-17-7.6-17-15.5c0-7.6,10.6-10.5,19.7-5.4c2.8,1.5,4.2,1.9,8.6,2.8C200.2,329,201.4,330.5,201.4,336.3L201.4,336.3z
	 M200.4,336.3c0-5.3-0.9-6.3-4.9-7.1c-4.4-0.8-6-1.2-8.9-2.9c-8.6-4.8-18.3-2.1-18.3,4.6c0,7.3,7.4,14.5,16,14.5h1.8
	c6.1,0,8.3-0.1,10.4-1.1C199.1,343.1,200.4,340.7,200.4,336.3L200.4,336.3z M233.7,218.4c3.7-1.3,8.7-2.7,16.1-4.5
	c2.6-0.6,16.5-4,20.6-5c19.6-4.9,31.5-8.9,38.2-13.4c14.9-10,36.9-33.9,43.8-47.8c2.2-4.5,4.6-6.4,7.7-6.2c1.3,0.1,2.6,0.5,4.3,1.2
	c1.2,0.5,2.4,1.1,3.5,1.7l1.3,0.6c4.8,2.3,8.4,3.4,12.6,3.4c7.2,0,10,3.1,8.4,7.9c-1.4,4.1-5.9,8.9-11.1,12
	c-8.3,5-11.8,17.3-11.8,33.6c0,3.6-1.4,6.3-4,8.4c-2,1.6-4.2,2.6-8.5,4.2l-1,0.4c-4.9,1.8-7,2.8-8.7,4.5c-5.1,5.1-12.5,7.1-20.4,7.1
	c-1.4,0-2.5,0.9-4,3.1c-0.3,0.4-1.3,2-1.5,2.2c-2.7,3.9-4.9,5.7-8.5,5.7c-7.8,0-10.7,0.9-21.8,6.9c-5.2,2.8-8.8,3.6-14.7,3.7
	c-0.3,0-0.5,0-0.9,0c-4.8,0.1-7.1,0.3-10.5,1.3c-3,1-6,2.2-8.9,3.6c-2.2,1-10.5,5-10.2,4.9c-7.8,3.7-13.3,6-18.9,7.6
	c-12.4,3.5-18.6,2.2-27.4-4.1c-2.6-1.9-2.7-4.4-0.8-7.6c1.4-2.5,3.9-5.1,8.1-9l1.8-1.6c3.9-3.6,4.5-4.1,5.9-5.5
	c2.3-2.3,3.1-3.5,5.5-7.6c1.9-3.4,3.4-5.1,6.3-7.1C226.6,221.3,229.6,219.9,233.7,218.4L233.7,218.4z M234.1,219.4
	c-4,1.4-7,2.8-9.2,4.3c-2.8,1.9-4.1,3.5-6,6.7c-2.4,4.2-3.2,5.4-5.6,7.8c-1.4,1.4-2,2-5.9,5.6l-1.8,1.6c-4.1,3.8-6.5,6.4-7.9,8.8
	c-1.6,2.8-1.5,4.8,0.6,6.3c8.6,6.1,14.5,7.4,26.6,3.9c5.5-1.6,11-3.8,18.7-7.5c-0.3,0.1,8.1-3.9,10.2-4.9c2.9-1.4,5.9-2.6,9-3.6
	c3.5-1.1,5.9-1.3,10.8-1.4h0.9c5.7-0.1,9.2-0.8,14.2-3.6c11.2-6.1,14.2-7.1,22.2-7.1c3.2,0,5.2-1.6,7.7-5.3l1.5-2.2
	c1.7-2.4,3-3.5,4.8-3.5c7.6,0,14.8-2,19.6-6.9c1.8-1.8,4-2.9,9-4.7l1-0.4c8.6-3.1,11.8-5.7,11.8-11.6c0-16.6,3.5-29.2,12.2-34.4
	c5-3,9.4-7.7,10.7-11.5c1.4-4.1-0.8-6.6-7.4-6.6c-4.5,0-8.2-1.1-13.1-3.5c-7.5-3.7-6.8-3.3-8.7-3.4c-2.6-0.1-4.6,1.5-6.7,5.7
	c-7,14.1-29.1,38.1-44.2,48.2c-6.8,4.5-18.8,8.5-38.5,13.5c-4,1-18,4.4-20.6,5C242.7,216.7,237.7,218.1,234.1,219.4L234.1,219.4z
	 M250.9,223.4c2.1,0,4-0.2,7.2-0.7c5.2-0.8,6.6-0.9,8.5-0.5c2.5,0.6,3.8,2.4,3.8,5.7c0,4-2.3,7.3-6.6,10.1
	c-3.2,2.1-6.5,3.5-14.1,6.4l-0.3,0.1l-2.3,0.9c-3,1.2-5.3,2.5-9.3,5.4l-0.8,0.6c-8.2,5.9-13.4,8-23.1,8c-5,0-6.9-2-5.8-5.6
	c0.9-2.8,3.6-6.6,7.8-11.1c1.3-1.4,2.6-2.8,4.1-4.3c3.2-3.1,11.2-10.6,11.4-10.8c0.5-0.5,0.9-0.9,1.4-1.3c3.4-2.7,5.8-3.1,14.2-2.9
	C248.8,223.4,249.8,223.4,250.9,223.4L250.9,223.4z M250.9,224.4c-1.1,0-2.1,0-3.8,0c-8.2-0.1-10.4,0.2-13.5,2.7
	c-0.4,0.4-0.9,0.7-1.3,1.2c-0.2,0.2-8.3,7.7-11.4,10.8c-1.4,1.4-2.8,2.8-4.1,4.3c-4.1,4.5-6.8,8.1-7.6,10.8
	c-0.9,2.9,0.4,4.3,4.8,4.3c9.5,0,14.4-2.1,22.5-7.8l0.8-0.6c4.1-3,6.4-4.4,9.6-5.6l2.3-0.9l0.2-0.1c7.5-2.8,10.8-4.2,14-6.3
	c4.1-2.6,6.2-5.6,6.2-9.3c0-2.9-1-4.3-3-4.7c-1.6-0.4-3-0.2-8.1,0.5C255,224.2,253,224.4,250.9,224.4L250.9,224.4z M363.4,179.1
	c-1.9,5.4-2,6.8-1,12.8c1.2,7.1-1.4,16.6-5.5,16.6c-0.5,0-1,0-1.5,0.1h-0.6c-2.9,0.2-4.8,0.2-6.9-0.2c-6.5-1.1-10.4-5.1-10.4-13.4
	c0-13.9,2.1-19.7,8.1-26.3c1-1.2,1.8-2.4,2.5-3.8c0.6-1,2.8-5.1,2.7-5c4.4-8.1,7.7-11.5,12.2-10.4c1.2,0.3,2.2,0.8,3.6,1.6l1.4,0.8
	c1,0.6,2,1.2,3.1,1.6c0.7,0.3,1.8,0.3,4.8,0.3h0.7c3.2,0,4.8,0.1,5.8,0.7c1.6,0.9,1.2,2.6-1.1,4.9c-1.3,1.3-2.6,2.5-3.9,3.8
	C366.8,173.1,364.6,175.4,363.4,179.1L363.4,179.1z M362.4,178.7c1.3-3.9,3.5-6.2,14.3-16.5c1.5-1.5,2.7-2.6,3.9-3.7
	c1.9-2,2.2-2.9,1.4-3.3c-0.8-0.5-2.4-0.6-5.3-0.5H376c-3.1,0.1-4.3,0-5.1-0.3c-1.1-0.4-2-0.9-3.2-1.7l-1.4-0.8
	c-1-0.7-2.1-1.1-3.3-1.5c-3.9-1-6.9,2.2-11.1,9.9c0.1-0.1-2.1,4-2.7,5c-0.7,1.4-1.6,2.7-2.6,3.9c-5.8,6.5-7.9,12-7.9,25.7
	c0,7.8,3.5,11.5,9.6,12.5c2,0.3,3.9,0.3,6.7,0.2c0.4,0,0.8,0,1.2-0.1c0.4,0,0.7,0,1,0c3.2,0,5.6-8.9,4.5-15.4
	C360.4,185.8,360.5,184.3,362.4,178.7L362.4,178.7z M353.2,191.2c0.6,0.5,2.5,1.9,2.5,1.9c2,1.6,2,3.3,0,6.4
	c-3.7,5.6-8.8,3.1-8.8-4.5c0-3.8,0.5-5.7,2.1-6C350.1,188.6,351,189.2,353.2,191.2L353.2,191.2z M351.8,192.6
	c-1.5-1.4-2.2-1.9-2.4-1.8c-0.2,0-0.5,1.2-0.5,4.1c0,5.9,2.7,7.2,5.2,3.5c1.5-2.3,1.5-2.8,0.4-3.7
	C354.5,194.7,352.5,193.3,351.8,192.6L351.8,192.6z M574.7,62.5c2.2-1.1,3.7-1.7,5.9-2.4l0.3-0.1c3-0.9,6-2.1,8.8-3.6
	c4.2-2.1,6.3-1.9,7,0.8c0.4,2,0.2,4-1.2,12.7c-2.3,13.6-9.2,26.1-21.2,36.3c-4.3,3.6-7.4,4.4-9.8,2.4c-1.9-1.6-3.1-4.6-4.6-10.5
	c-0.3-1.1-1.4-5.8-1.7-7c-0.8-3.1-1.7-6.2-2.7-9.2c-2.4-6.8-3-10.8-2.1-12.9c0.8-1.8,2.1-2.2,5.6-2.4c1.5-0.1,2.1-0.1,3-0.3l2-0.3
	c0.7-0.1,1.2-0.2,1.7-0.3c1.1-0.2,1.9-0.4,2.7-0.6C569.9,64.7,571.7,64,574.7,62.5L574.7,62.5z M575.2,63.4
	c-3.1,1.5-4.9,2.3-6.7,2.8c-0.8,0.2-1.7,0.4-2.8,0.6c-1.3,0.2-2.5,0.4-3.8,0.6c-0.8,0.1-1.4,0.2-2.9,0.3c-3.1,0.2-4.2,0.5-4.7,1.9
	c-0.8,1.8-0.2,5.6,2.1,12.2c1,3.1,2,6.2,2.7,9.3l1.7,7c1.5,5.7,2.6,8.6,4.3,10c1.9,1.6,4.5,0.9,8.5-2.4c11.8-10,18.6-22.3,20.8-35.7
	c1.4-8.4,1.7-10.5,1.2-12.3c-0.4-1.9-1.9-2-5.5-0.2c-2.9,1.5-5.8,2.7-8.9,3.6l-0.3,0.1C578.9,61.6,577,62.4,575.2,63.4z M570.7,69.9
	c1.4-0.3,2.5-0.8,3.9-1.4c0.3-0.2,2.6-1.3,3.3-1.7c1.5-0.7,3-1.3,4.7-1.9c2.7-0.9,4.6-0.8,5.9,0.4c1,0.9,1.3,2.3,1.4,4.2
	c0,0.4,0,0.7,0,1.4c0,5.6-4.6,16.9-11.3,22.8c-4.3,3.8-7.3,4.7-9.9,2.5c-2.1-1.7-3.5-4.6-6.7-12.9c-1.9-4.8-2-8.1-0.7-10.2
	c1.1-1.7,2.9-2.4,5.8-2.7l1.3-0.1C569.6,70.1,570.1,70,570.7,69.9L570.7,69.9z M568.6,72.2l-1.2,0.1c-2.4,0.3-3.7,0.8-4.4,1.8
	c-0.9,1.4-0.8,4.1,0.9,8.4c3,7.8,4.4,10.7,6.1,12.1c1.6,1.3,3.6,0.8,7.3-2.5c6.3-5.5,10.7-16.2,10.7-21.2c0-0.6,0-0.9,0-1.3
	c0-1.4-0.3-2.3-0.8-2.8c-0.6-0.6-1.8-0.6-3.9,0c-1.5,0.5-3,1.1-4.5,1.8c-0.7,0.3-2.9,1.5-3.3,1.7c-1.4,0.7-2.8,1.2-4.3,1.6
	C570.5,72,569.9,72.1,568.6,72.2L568.6,72.2z M340.8-16.7c-1.6,4.3-3.5,7.2-7.1,11.4l-2.6,3c-0.9,1-1.8,2.1-2.6,3.2
	c-1.8,2.3-3.4,4.9-4.7,7.5c-2.9,5.7-7.1,10.2-12.9,13.9c-4.2,2.8-8.2,4.6-15.7,7.6c-11,4.4-16.4,1.3-27.2-16.4
	c-2.9-4.7-8.8-8.6-18-12.7c-3-1.3-12.9-5.2-14.4-5.9c-5-2.2-7-3.7-6.4-5.9c0.7-2.3,5.3-4.1,15.5-6.1c16.6-3.3,26.9-3.8,39.9-3
	c7.9,0.5,9.7,0.5,12.7-0.3c2-0.5,3.9-1.3,6-2.6l2.8-1.7c9.9-6.1,12.9-8,17.3-9.9c6-2.7,10.6-3.3,13.9-1.4
	C344.6-31.9,345.1-28.3,340.8-16.7L340.8-16.7z M339-17.4c4-10.7,3.6-13.3-2.6-16.8c-2.7-1.5-6.6-1-12.1,1.5
	c-4.2,1.9-7.3,3.7-17.1,9.8l-2.8,1.7c-2,1.3-4.2,2.2-6.6,2.8c-3.4,0.8-5.2,0.8-13.3,0.3c-12.8-0.8-23-0.3-39.4,3
	c-4.9,1-8.4,1.9-10.8,2.8c-2,0.8-3,1.4-3.2,1.9c-0.2,0.6,1.5,1.8,5.3,3.5c1.5,0.7,11.4,4.6,14.4,5.9c9.5,4.2,15.7,8.3,18.9,13.4
	C280.1,29.3,284.6,32,294.5,28c7.3-2.9,11.2-4.8,15.3-7.4c5.4-3.5,9.5-7.8,12.1-13.1c1.4-2.9,3-5.4,4.9-7.8c0.9-1.1,1.8-2.2,2.7-3.3
	l2.6-3C335.6-10.7,337.5-13.4,339-17.4L339-17.4z M332.3-17.8C324.4-5,313.8,4,299,7.4c-7.8,1.8-12.5-0.8-13.1-5.9
	c-0.5-4.4,2.3-9.1,6-9.1c3,0,5.6-1.7,15.4-9.2c1.5-1.1,2.6-2,3.7-2.7c4.4-3.2,7.8-5.2,10.8-6.1c5.6-1.7,9.3-2.1,11.4-1.2
	C335.6-25.7,335.3-22.7,332.3-17.8L332.3-17.8z M331.5-18.4c2.7-4.4,2.9-6.7,1.2-7.5c-1.7-0.8-5.3-0.3-10.6,1.3
	c-2.9,0.9-6.2,2.8-10.5,5.9c-1.1,0.8-2.2,1.6-3.6,2.7c-10.1,7.7-12.6,9.4-16,9.4c-3,0-5.5,4-5,7.9c0.6,4.5,4.6,6.8,11.9,5.1
	C313.3,3,323.7-5.8,331.5-18.4L331.5-18.4z M460.1-130.6c13.9,5,20.8,5,31.6,0c3-1.4,5.5-2.9,11-6.8c5.6-3.9,8-5.5,11.1-6.9
	c4.1-1.9,7.8-2.4,11.2-1.3c3.9,1.3,6.2,12.3,6.8,28.5c0.5,14.2-0.5,28.9-2.5,34.2c-1.8,4.9-5.9,8.2-11.5,10c-4.2,1.3-8.6,1.9-13,1.8
	c-5.8,0-9,2.4-12.2,7.6c-0.4,0.6-1.5,2.6-1.7,2.9c-1.8,2.9-3,4.3-4.9,4.9c-0.9,0.3-2.1,0.8-3.9,1.7l-2.4,1.2c-1,0.5-1.9,0.9-2.7,1.3
	c-6.4,3.1-11.7,4.7-17.2,4.7c-5.7,0-10,2.1-14,5.9c-1.2,1.1-4.2,4.5-4.6,4.9c-2.5,2.4-5.9,4.2-10.9,6.1c-1.4,0.5-6,2.1-6.2,2.2
	l-2.1,0.8c-0.9,0.4-1.8,0.6-2.7,0.8c-5.5,1.1-11.1-0.5-18-4.4c-1.3-0.7-5.1-3.1-5.8-3.4c-2-1.2-4.1-1.5-9.1-1.9l-1.7-0.1
	c-4.8-0.4-7.7-1.1-10.2-3c-5-3.6-6.8-7.8-5.6-12.3c1.3-5.4,6.5-11,14.9-17.3c2.1-1.6,4.3-3.1,6.5-4.6c-0.3,0.2,4.3-2.9,5.3-3.6
	c2.7-1.9,4.8-3.9,12.8-12l1.1-1.1c3.5-3.6,5.9-5.9,8.1-7.8c2.9-2.5,4.7-6,7.5-13l0.6-1.6c2.7-6.9,4.3-10,6.9-12.3
	c1.4-1.3,6.7-6.5,7.9-7.5C444.5-135,448.5-134.7,460.1-130.6L460.1-130.6z M459.7-129.6c-11.3-4-15-4.3-18.6-1.5
	c-1.2,0.9-6.4,6.1-7.9,7.4c-2.4,2.2-4,5.2-6.6,12l-0.6,1.6c-2.8,7.3-4.7,10.8-7.8,13.4c-3.2,2.8-6.2,5.8-9.2,8.9
	c-8,8.2-10.1,10.2-12.9,12.2c-1,0.7-5.6,3.8-5.3,3.6c-2.5,1.7-4.5,3.1-6.5,4.6c-8.2,6.1-13.2,11.6-14.5,16.7
	c-1,4.2,0.6,7.9,5.3,11.3c2.4,1.7,5.1,2.4,9.7,2.8l1.7,0.1c5.1,0.4,7.3,0.8,9.5,2c0.6,0.4,4.5,2.7,5.8,3.4c6.7,3.8,12,5.4,17.3,4.3
	c0.9-0.2,1.7-0.4,2.5-0.8c0.7-0.3,1.4-0.5,2.1-0.8c0.3-0.1,4.9-1.7,6.2-2.2c4.8-1.8,8.1-3.6,10.5-5.9c0.4-0.4,3.4-3.8,4.6-4.9
	c4.2-4,8.7-6.2,14.7-6.2c5.2,0,10.4-1.6,16.7-4.6c0.8-0.4,1.6-0.8,2.7-1.3c0.1-0.1,1.9-1,2.4-1.2c1.8-0.9,3-1.5,4-1.8
	c1.6-0.5,2.8-1.8,4.4-4.5l1.7-2.9c3.4-5.5,6.9-8.1,13.1-8.1c4.5,0,8.7-0.5,12.6-1.8c5.4-1.8,9.2-4.8,10.9-9.4
	c1.9-5.1,2.9-19.8,2.4-33.8c-0.6-15.5-2.8-26.5-6.1-27.5c-3.2-1-6.6-0.5-10.5,1.2c-3,1.4-5.5,2.9-11,6.8c-5.6,3.9-8,5.5-11.1,6.9
	C481-124.6,473.9-124.6,459.7-129.6L459.7-129.6z M473.9-109.1c5.4,0,7.5-0.2,9.7-1c1.3-0.4,10-4.8,14.9-7c1.9-0.8,3.6-2.4,6.6-6
	c2.6-3,3.2-3.8,4.4-4.8c3.7-3.3,7.1-3.3,10.2,1.2c6.2,8.9,5.6,15.9,0.1,27c-0.9,1.8-1.7,3.6-2.5,5.5c-0.3,0.8-1,2.7-1.1,2.9
	c-0.2,0.4-0.3,0.8-0.5,1.2c-0.6,1.1-1.6,2.2-4,4.7c-2.4,2.4-5.2,3.3-11.7,4.3c-1.8,0.3-2.2,0.4-3,0.5c-6,1.1-9.6,2.7-12.2,6.1
	c-3.6,4.6-7.9,7.5-15,10.7c-0.5,0.2-1.1,0.5-1.8,0.8l-1.8,0.8c-2.7,1.1-5.2,2.4-7.7,3.9c-2.6,1.6-4.8,2.3-9.4,3.5
	c-8.6,2.1-12.3,3.8-17.4,9.4s-10.2,7.6-16.6,6.7c-5.4-0.8-10.6-3-23.6-9.5c-6.3-3.2-6.4-7.8-1.5-13.6c3.4-3.9,3.5-4.1,19.4-16.4
	c8.1-6.3,13-10.6,16.6-14.9c2.5-3,4.2-5.7,5-8.3c5.5-18.3,12.5-22,22.8-15.6c2,1.2,6.6,4.5,7.2,4.9
	C464.3-109.9,467.4-109.1,473.9-109.1z M473.9-107.1c-6.8,0-10.4-0.9-14.1-3.3c-0.6-0.4-5.3-3.7-7.2-4.9c-9-5.7-14.7-2.7-19.8,14.5
	c-0.9,2.9-2.7,5.8-5.4,9c-3.8,4.4-8.7,8.8-16.9,15.2c-15.7,12.2-15.9,12.4-19.1,16.2c-4.2,4.9-4.1,8,0.9,10.5
	c12.7,6.3,17.9,8.5,22.9,9.3c5.8,0.8,10.2-0.9,14.9-6.1c5.4-6,9.5-7.8,18.4-10c4.4-1.1,6.5-1.8,8.8-3.2c2.5-1.5,5.2-2.9,7.9-4
	l1.8-0.8l1.8-0.8c6.8-3.1,10.9-5.9,14.2-10.1c3-3.9,7-5.6,13.5-6.8c0.8-0.2,1.2-0.2,3-0.5c6.1-1,8.6-1.8,10.6-3.8
	c2.4-2.4,3.2-3.3,3.7-4.3c0.2-0.3,0.3-0.6,0.4-0.9c0.1-0.2,0.8-2.1,1.1-2.9c0.6-1.6,1.5-3.4,2.6-5.6c5.2-10.5,5.8-16.8,0.1-25
	c-2.4-3.4-4.4-3.5-7.2-0.9c-1.1,1-1.7,1.7-4.2,4.7c-3.2,3.8-5,5.6-7.3,6.6c-4.8,2.1-13.6,6.5-15,7
	C481.8-107.3,479.5-107.1,473.9-107.1z M461.2-98.5c5.5,3.9,10.3,3.7,18.2,0.9c5.4-1.9,5.9-2.1,7.7-2.1c2.5,0,4.2,1.4,5.2,4.5
	c1.7,5-2.3,8.5-12.3,12.7c-2.7,1.1-16.2,6.2-20,7.7c-7.9,3.2-13.9,6.4-18.9,10.2c-13,9.8-18.4,11.9-23.7,9.7c-1.3-0.6-2.5-1.2-3.6-2
	l-2-1.3c-0.7-0.5-1.5-0.9-2.2-1.4c-3.3-2-2.8-4.3,0.9-7.3c1.4-1.1,10.7-7.6,13.5-9.9c7.1-5.7,11.9-11.5,14.4-18.3
	c3.1-8.5,4.9-12.1,6.8-13.4c1.7-1.2,3.4-0.5,6.2,1.9c0.6,0.6,3.4,3.1,4.1,3.7C457.5-101.4,459.2-99.9,461.2-98.5L461.2-98.5z
	 M460.6-97.7c-2-1.4-3.8-2.9-5.7-4.6c-0.7-0.6-3.5-3.2-4.1-3.7c-2.5-2.2-3.8-2.7-5-1.8c-1.7,1.1-3.4,4.7-6.4,12.9
	c-2.6,7.1-7.5,13-14.7,18.8c-2.9,2.3-12.2,8.8-13.5,9.9c-3.2,2.7-3.6,4.2-1,5.7l2.3,1.4l2,1.3c1.5,0.9,2.5,1.5,3.5,1.9
	c4.9,2.1,10,0.1,22.7-9.6c5-3.8,11.1-7,19.1-10.3c3.8-1.6,17.3-6.6,20-7.7c9.5-4,13.1-7.2,11.7-11.4c-0.9-2.7-2.2-3.8-4.3-3.8
	c-1.6,0-2.1,0.2-7.4,2.1C471.6-93.7,466.4-93.5,460.6-97.7L460.6-97.7z"/>
</svg>
